<?xml version="1.0" encoding="UTF-8"?>
<!--Generator: Apple Native CoreSVG 149-->
<!DOCTYPE svg
PUBLIC "-//W3C//DTD SVG 1.1//EN"
       "http://www.w3.org/Graphics/SVG/1.1/DTD/svg11.dtd">
<svg version="1.1" xmlns="http://www.w3.org/2000/svg" xmlns:xlink="http://www.w3.org/1999/xlink" width="3300" height="2200">
 <!--glyph: "uni100202.medium", point size: 100.000000, font version: "Version 16.0d12e3", template writer version: "8"-->
 <g id="Notes">
  <rect height="2200" id="artboard" style="fill:white;opacity:1" width="3300" x="0" y="0"/>
  <line id="" style="fill:none;stroke:black;opacity:1;stroke-width:0.5;" x1="263" x2="3036" y1="292" y2="292"/>
  <text style="stroke:none;fill:black;font-family:-apple-system,&quot;SF Pro Display&quot;,&quot;SF Pro Text&quot;,Helvetica,sans-serif;font-weight:bold;" transform="matrix(1 0 0 1 263 322)">Weight/Scale Variations</text>
  <text style="stroke:none;fill:black;font-family:-apple-system,&quot;SF Pro Display&quot;,&quot;SF Pro Text&quot;,Helvetica,sans-serif;text-anchor:middle;" transform="matrix(1 0 0 1 559.711 322)">Ultralight</text>
  <text style="stroke:none;fill:black;font-family:-apple-system,&quot;SF Pro Display&quot;,&quot;SF Pro Text&quot;,Helvetica,sans-serif;text-anchor:middle;" transform="matrix(1 0 0 1 856.422 322)">Thin</text>
  <text style="stroke:none;fill:black;font-family:-apple-system,&quot;SF Pro Display&quot;,&quot;SF Pro Text&quot;,Helvetica,sans-serif;text-anchor:middle;" transform="matrix(1 0 0 1 1153.13 322)">Light</text>
  <text style="stroke:none;fill:black;font-family:-apple-system,&quot;SF Pro Display&quot;,&quot;SF Pro Text&quot;,Helvetica,sans-serif;text-anchor:middle;" transform="matrix(1 0 0 1 1449.84 322)">Regular</text>
  <text style="stroke:none;fill:black;font-family:-apple-system,&quot;SF Pro Display&quot;,&quot;SF Pro Text&quot;,Helvetica,sans-serif;text-anchor:middle;" transform="matrix(1 0 0 1 1746.56 322)">Medium</text>
  <text style="stroke:none;fill:black;font-family:-apple-system,&quot;SF Pro Display&quot;,&quot;SF Pro Text&quot;,Helvetica,sans-serif;text-anchor:middle;" transform="matrix(1 0 0 1 2043.27 322)">Semibold</text>
  <text style="stroke:none;fill:black;font-family:-apple-system,&quot;SF Pro Display&quot;,&quot;SF Pro Text&quot;,Helvetica,sans-serif;text-anchor:middle;" transform="matrix(1 0 0 1 2339.98 322)">Bold</text>
  <text style="stroke:none;fill:black;font-family:-apple-system,&quot;SF Pro Display&quot;,&quot;SF Pro Text&quot;,Helvetica,sans-serif;text-anchor:middle;" transform="matrix(1 0 0 1 2636.69 322)">Heavy</text>
  <text style="stroke:none;fill:black;font-family:-apple-system,&quot;SF Pro Display&quot;,&quot;SF Pro Text&quot;,Helvetica,sans-serif;text-anchor:middle;" transform="matrix(1 0 0 1 2933.4 322)">Black</text>
  <line id="" style="fill:none;stroke:black;opacity:1;stroke-width:0.5;" x1="263" x2="3036" y1="1903" y2="1903"/>
  <g id="" transform="matrix(1 0 0 1 263 1933)">
   <path d="M9.24805 0.830078C13.5547 0.830078 17.1387-2.74414 17.1387-7.05078C17.1387-11.3574 13.5449-14.9316 9.23828-14.9316C4.94141-14.9316 1.36719-11.3574 1.36719-7.05078C1.36719-2.74414 4.95117 0.830078 9.24805 0.830078ZM9.24805-0.654297C5.70312-0.654297 2.87109-3.49609 2.87109-7.05078C2.87109-10.6055 5.69336-13.4473 9.23828-13.4473C12.793-13.4473 15.6348-10.6055 15.6445-7.05078C15.6543-3.49609 12.8027-0.654297 9.24805-0.654297ZM9.22852-3.62305C9.69727-3.62305 9.9707-3.93555 9.9707-4.45312L9.9707-6.31836L12.002-6.31836C12.5-6.31836 12.832-6.57227 12.832-7.04102C12.832-7.51953 12.5195-7.7832 12.002-7.7832L9.9707-7.7832L9.9707-9.81445C9.9707-10.332 9.69727-10.6543 9.22852-10.6543C8.75977-10.6543 8.50586-10.3125 8.50586-9.81445L8.50586-7.7832L6.49414-7.7832C5.97656-7.7832 5.64453-7.51953 5.64453-7.04102C5.64453-6.57227 5.99609-6.31836 6.49414-6.31836L8.50586-6.31836L8.50586-4.45312C8.50586-3.95508 8.75977-3.62305 9.22852-3.62305Z"/>
  </g>
  <g id="" transform="matrix(1 0 0 1 281.506 1933)">
   <path d="M11.709 2.91016C17.1582 2.91016 21.6699-1.61133 21.6699-7.05078C21.6699-12.5 17.1484-17.0117 11.6992-17.0117C6.25977-17.0117 1.74805-12.5 1.74805-7.05078C1.74805-1.61133 6.26953 2.91016 11.709 2.91016ZM11.709 1.25C7.09961 1.25 3.41797-2.44141 3.41797-7.05078C3.41797-11.6602 7.08984-15.3516 11.6992-15.3516C16.3086-15.3516 20-11.6602 20.0098-7.05078C20.0195-2.44141 16.3184 1.25 11.709 1.25ZM11.6797-2.66602C12.207-2.66602 12.5098-3.01758 12.5098-3.59375L12.5098-6.23047L15.3223-6.23047C15.8691-6.23047 16.25-6.51367 16.25-7.03125C16.25-7.55859 15.8887-7.86133 15.3223-7.86133L12.5098-7.86133L12.5098-10.6836C12.5098-11.25 12.207-11.6113 11.6797-11.6113C11.1621-11.6113 10.8789-11.2305 10.8789-10.6836L10.8789-7.86133L8.07617-7.86133C7.50977-7.86133 7.13867-7.55859 7.13867-7.03125C7.13867-6.51367 7.5293-6.23047 8.07617-6.23047L10.8789-6.23047L10.8789-3.59375C10.8789-3.03711 11.1621-2.66602 11.6797-2.66602Z"/>
  </g>
  <g id="" transform="matrix(1 0 0 1 304.924 1933)">
   <path d="M14.9707 5.66406C21.9336 5.66406 27.6953-0.0976562 27.6953-7.05078C27.6953-14.0137 21.9238-19.7754 14.9609-19.7754C8.00781-19.7754 2.25586-14.0137 2.25586-7.05078C2.25586-0.0976562 8.01758 5.66406 14.9707 5.66406ZM14.9707 3.84766C8.93555 3.84766 4.08203-1.01562 4.08203-7.05078C4.08203-13.0957 8.92578-17.9492 14.9609-17.9492C21.0059-17.9492 25.8594-13.0957 25.8691-7.05078C25.8789-1.01562 21.0156 3.84766 14.9707 3.84766ZM14.9414-1.38672C15.5176-1.38672 15.8594-1.77734 15.8594-2.38281L15.8594-6.13281L19.7754-6.13281C20.3711-6.13281 20.7812-6.46484 20.7812-7.02148C20.7812-7.59766 20.3906-7.93945 19.7754-7.93945L15.8594-7.93945L15.8594-11.8652C15.8594-12.4805 15.5176-12.8711 14.9414-12.8711C14.375-12.8711 14.0527-12.4609 14.0527-11.8652L14.0527-7.93945L10.1465-7.93945C9.53125-7.93945 9.13086-7.59766 9.13086-7.02148C9.13086-6.46484 9.55078-6.13281 10.1465-6.13281L14.0527-6.13281L14.0527-2.38281C14.0527-1.79688 14.375-1.38672 14.9414-1.38672Z"/>
  </g>
  <text style="stroke:none;fill:black;font-family:-apple-system,&quot;SF Pro Display&quot;,&quot;SF Pro Text&quot;,Helvetica,sans-serif;font-weight:bold;" transform="matrix(1 0 0 1 263 1953)">Design Variations</text>
  <text style="stroke:none;fill:black;font-family:-apple-system,&quot;SF Pro Display&quot;,&quot;SF Pro Text&quot;,Helvetica,sans-serif;" transform="matrix(1 0 0 1 263 1971)">Symbols are supported in up to nine weights and three scales.</text>
  <text style="stroke:none;fill:black;font-family:-apple-system,&quot;SF Pro Display&quot;,&quot;SF Pro Text&quot;,Helvetica,sans-serif;" transform="matrix(1 0 0 1 263 1989)">For optimal layout with text and other symbols, vertically align</text>
  <text style="stroke:none;fill:black;font-family:-apple-system,&quot;SF Pro Display&quot;,&quot;SF Pro Text&quot;,Helvetica,sans-serif;" transform="matrix(1 0 0 1 263 2007)">symbols with the adjacent text.</text>
  <line id="" style="fill:none;stroke:#00AEEF;stroke-width:0.5;opacity:1.0;" x1="776" x2="776" y1="1919" y2="1933"/>
  <g id="" transform="matrix(1 0 0 1 776 1933)">
   <path d="M3.31055 0.126953C3.82812 0.126953 4.08203-0.0683594 4.26758-0.605469L5.52734-4.0625L11.2891-4.0625L12.5488-0.605469C12.7344-0.0683594 12.9883 0.126953 13.4961 0.126953C14.0137 0.126953 14.3457-0.185547 14.3457-0.673828C14.3457-0.839844 14.3164-0.986328 14.2383-1.20117L9.6582-13.3887C9.43359-13.9941 9.0332-14.2871 8.4082-14.2871C7.80273-14.2871 7.39258-13.9941 7.17773-13.3984L2.59766-1.19141C2.51953-0.976562 2.49023-0.830078 2.49023-0.664062C2.49023-0.175781 2.80273 0.126953 3.31055 0.126953ZM6.00586-5.53711L8.37891-12.1094L8.42773-12.1094L10.8008-5.53711Z"/>
  </g>
  <line id="" style="fill:none;stroke:#00AEEF;stroke-width:0.5;opacity:1.0;" x1="792.836" x2="792.836" y1="1919" y2="1933"/>
  <text style="stroke:none;fill:black;font-family:-apple-system,&quot;SF Pro Display&quot;,&quot;SF Pro Text&quot;,Helvetica,sans-serif;font-weight:bold;" transform="matrix(1 0 0 1 776 1953)">Margins</text>
  <text style="stroke:none;fill:black;font-family:-apple-system,&quot;SF Pro Display&quot;,&quot;SF Pro Text&quot;,Helvetica,sans-serif;" transform="matrix(1 0 0 1 776 1971)">Leading and trailing margins on the left and right side of each symbol</text>
  <text style="stroke:none;fill:black;font-family:-apple-system,&quot;SF Pro Display&quot;,&quot;SF Pro Text&quot;,Helvetica,sans-serif;" transform="matrix(1 0 0 1 776 1989)">can be adjusted by modifying the x-location of the margin guidelines.</text>
  <text style="stroke:none;fill:black;font-family:-apple-system,&quot;SF Pro Display&quot;,&quot;SF Pro Text&quot;,Helvetica,sans-serif;" transform="matrix(1 0 0 1 776 2007)">Modifications are automatically applied proportionally to all</text>
  <text style="stroke:none;fill:black;font-family:-apple-system,&quot;SF Pro Display&quot;,&quot;SF Pro Text&quot;,Helvetica,sans-serif;" transform="matrix(1 0 0 1 776 2025)">scales and weights.</text>
  <g id="" transform="matrix(1 0 0 1 1289 1933)">
   <path d="M2.8418 1.86523L4.54102 3.57422C5.40039 4.44336 6.38672 4.38477 7.31445 3.35938L17.4902-7.85156C17.7539-7.76367 18.0273-7.7832 18.3398-7.8418L19.4043-8.03711L20.0684-7.36328L20.0293-6.80664C19.9902-6.30859 20.1172-5.92773 20.6055-5.44922L21.3672-4.70703C21.8457-4.22852 22.4609-4.19922 22.9297-4.66797L25.8398-7.58789C26.3086-8.05664 26.2891-8.65234 25.8105-9.13086L25.0391-9.89258C24.5605-10.3711 24.1895-10.5273 23.7109-10.4883L23.1348-10.4395L22.4902-11.0742L22.7344-12.1973C22.8613-12.7637 22.7051-13.2031 22.1191-13.7891L19.9219-15.9766C16.582-19.2969 12.1484-19.2188 9.25781-16.3281C8.83789-15.918 8.80859-15.3418 9.04297-14.9512C9.27734-14.5898 9.73633-14.3555 10.3809-14.5215C11.8457-14.8633 13.3691-14.9219 14.7949-13.9844L14.209-12.5293C14.0137-12.0508 13.9844-11.6504 14.1113-11.2891L3.04688-0.898438C2.06055 0.0195312 1.98242 0.996094 2.8418 1.86523ZM10.752-15.957C13.1836-17.7344 16.4746-17.4316 18.7012-15.2051L21.1328-12.793C21.3672-12.5586 21.4062-12.373 21.3379-12.0312L21.0156-10.5469L22.5195-9.0625L23.5059-9.12109C23.7598-9.13086 23.8379-9.11133 24.0332-8.91602L24.6094-8.33984L22.168-5.89844L21.5918-6.47461C21.3965-6.66992 21.3672-6.74805 21.377-7.01172L21.4453-7.98828L19.9512-9.47266L18.4277-9.21875C18.1055-9.15039 17.959-9.17969 17.7148-9.41406L15.7129-11.416C15.459-11.6504 15.4297-11.8164 15.5859-12.1875L16.4648-14.2773C14.9023-15.7324 12.8711-16.3574 10.8398-15.7617C10.6836-15.7227 10.625-15.8496 10.752-15.957ZM5.27344 2.30469L4.10156 1.14258C3.63281 0.683594 3.74023 0.341797 4.14062-0.0195312L14.9512-10.1953L16.416-8.71094L6.42578 2.27539C6.07422 2.67578 5.74219 2.77344 5.27344 2.30469Z"/>
  </g>
  <text style="stroke:none;fill:black;font-family:-apple-system,&quot;SF Pro Display&quot;,&quot;SF Pro Text&quot;,Helvetica,sans-serif;font-weight:bold;" transform="matrix(1 0 0 1 1289 1953)">Exporting</text>
  <text style="stroke:none;fill:black;font-family:-apple-system,&quot;SF Pro Display&quot;,&quot;SF Pro Text&quot;,Helvetica,sans-serif;" transform="matrix(1 0 0 1 1289 1971)">Symbols should be outlined when exporting to ensure the</text>
  <text style="stroke:none;fill:black;font-family:-apple-system,&quot;SF Pro Display&quot;,&quot;SF Pro Text&quot;,Helvetica,sans-serif;" transform="matrix(1 0 0 1 1289 1989)">design is preserved when submitting to Xcode.</text>
  <text id="template-version" style="stroke:none;fill:black;font-family:-apple-system,&quot;SF Pro Display&quot;,&quot;SF Pro Text&quot;,Helvetica,sans-serif;text-anchor:end;" transform="matrix(1 0 0 1 3036 1933)">Template v.2.0</text>
  <text style="stroke:none;fill:black;font-family:-apple-system,&quot;SF Pro Display&quot;,&quot;SF Pro Text&quot;,Helvetica,sans-serif;text-anchor:end;" transform="matrix(1 0 0 1 3036 1951)">Requires Xcode 12 or greater</text>
  <text style="stroke:none;fill:black;font-family:-apple-system,&quot;SF Pro Display&quot;,&quot;SF Pro Text&quot;,Helvetica,sans-serif;text-anchor:end;" transform="matrix(1 0 0 1 3036 1969)">Generated from square.and.arrow.up</text>
  <text style="stroke:none;fill:black;font-family:-apple-system,&quot;SF Pro Display&quot;,&quot;SF Pro Text&quot;,Helvetica,sans-serif;text-anchor:end;" transform="matrix(1 0 0 1 3036 1987)">Typeset at 100 points</text>
  <text style="stroke:none;fill:black;font-family:-apple-system,&quot;SF Pro Display&quot;,&quot;SF Pro Text&quot;,Helvetica,sans-serif;" transform="matrix(1 0 0 1 263 726)">Small</text>
  <text style="stroke:none;fill:black;font-family:-apple-system,&quot;SF Pro Display&quot;,&quot;SF Pro Text&quot;,Helvetica,sans-serif;" transform="matrix(1 0 0 1 263 1156)">Medium</text>
  <text style="stroke:none;fill:black;font-family:-apple-system,&quot;SF Pro Display&quot;,&quot;SF Pro Text&quot;,Helvetica,sans-serif;" transform="matrix(1 0 0 1 263 1586)">Large</text>
 </g>
 <g id="Guides">
  <g id="H-reference" style="fill:#27AAE1;stroke:none;" transform="matrix(1 0 0 1 339 696)">
   <path d="M0.976562 0L3.66211 0L12.9883-24.4629L45.752-24.4629L55.127 0L57.7637 0L30.6152-70.459L28.125-70.459ZM29.3457-67.1387L29.4434-67.1387L44.873-26.709L13.8672-26.709Z"/>
  </g>
  <line id="Baseline-S" style="fill:none;stroke:#27AAE1;opacity:1;stroke-width:0.5;" x1="263" x2="3036" y1="696" y2="696"/>
  <line id="Capline-S" style="fill:none;stroke:#27AAE1;opacity:1;stroke-width:0.5;" x1="263" x2="3036" y1="625.541" y2="625.541"/>
  <g id="H-reference" style="fill:#27AAE1;stroke:none;" transform="matrix(1 0 0 1 339 1126)">
   <path d="M0.976562 0L3.66211 0L12.9883-24.4629L45.752-24.4629L55.127 0L57.7637 0L30.6152-70.459L28.125-70.459ZM29.3457-67.1387L29.4434-67.1387L44.873-26.709L13.8672-26.709Z"/>
  </g>
  <line id="Baseline-M" style="fill:none;stroke:#27AAE1;opacity:1;stroke-width:0.5;" x1="263" x2="3036" y1="1126" y2="1126"/>
  <line id="Capline-M" style="fill:none;stroke:#27AAE1;opacity:1;stroke-width:0.5;" x1="263" x2="3036" y1="1055.54" y2="1055.54"/>
  <g id="H-reference" style="fill:#27AAE1;stroke:none;" transform="matrix(1 0 0 1 339 1556)">
   <path d="M0.976562 0L3.66211 0L12.9883-24.4629L45.752-24.4629L55.127 0L57.7637 0L30.6152-70.459L28.125-70.459ZM29.3457-67.1387L29.4434-67.1387L44.873-26.709L13.8672-26.709Z"/>
  </g>
  <line id="Baseline-L" style="fill:none;stroke:#27AAE1;opacity:1;stroke-width:0.5;" x1="263" x2="3036" y1="1556" y2="1556"/>
  <line id="Capline-L" style="fill:none;stroke:#27AAE1;opacity:1;stroke-width:0.5;" x1="263" x2="3036" y1="1485.54" y2="1485.54"/>
  <line id="left-margin" style="fill:none;stroke:#00AEEF;stroke-width:0.5;opacity:1.0;" x1="1394.06" x2="1394.06" y1="1030.79" y2="1150.12"/>
  <line id="right-margin" style="fill:none;stroke:#00AEEF;stroke-width:0.5;opacity:1.0;" x1="1505.63" x2="1505.63" y1="1030.79" y2="1150.12"/>
 </g>
 <g id="Symbols">
  <g id="Black-L" transform="matrix(1 0 0 1 2856.76 1556)">
   <path d="M76.6602-20.2148C81.6406-20.2148 85.498-24.2676 85.498-28.9551L85.498-87.7441L84.7168-96.9727L87.207-92.041L93.457-85.3516C94.9219-83.7891 96.9238-82.8613 99.1211-82.8613C102.979-82.8613 106.641-85.791 106.641-90.0879C106.641-92.2852 105.811-93.8477 104.346-95.3125L83.8379-114.941C81.4941-117.188 79.0527-118.066 76.6602-118.066C74.2676-118.066 71.875-117.188 69.5312-114.941L48.9746-95.3125C47.5098-93.8477 46.6797-92.2852 46.6797-90.0879C46.6797-85.791 50.3418-82.8613 54.1992-82.8613C56.3965-82.8613 58.3984-83.7891 59.8633-85.3516L66.1621-92.041L68.6523-96.9727L67.8711-87.7441L67.8711-28.9551C67.8711-24.2676 71.6797-20.2148 76.6602-20.2148ZM39.9902 33.1055L113.33 33.1055C128.564 33.1055 137.207 24.5117 137.207 9.32617L137.207-49.5605C137.207-64.7461 128.564-73.3398 113.33-73.3398L97.9492-73.3398L97.9492-53.125L110.596-53.125C114.795-53.125 116.992-51.2207 116.992-46.6797L116.992 6.44531C116.992 10.9863 114.795 12.8906 110.596 12.8906L42.6758 12.8906C38.4766 12.8906 36.3281 10.9863 36.3281 6.44531L36.3281-46.6797C36.3281-51.2207 38.4766-53.125 42.6758-53.125L55.7617-53.125L55.7617-73.3398L39.9902-73.3398C24.7559-73.3398 16.0645-64.7461 16.0645-49.5605L16.0645 9.32617C16.0645 24.5117 24.7559 33.1055 39.9902 33.1055Z"/>
  </g>
  <g id="Heavy-L" transform="matrix(1 0 0 1 2561.32 1556)">
   <path d="M75.3906-19.7266C79.7363-19.7266 83.1543-23.291 83.1543-27.3926L83.1543-88.0859L82.4707-97.2656L85.5957-92.2852L92.8223-84.6191C94.0918-83.2031 95.8984-82.4219 97.8027-82.4219C101.27-82.4219 104.492-85.0098 104.492-88.8184C104.492-90.7715 103.76-92.1387 102.441-93.457L81.5918-113.477C79.541-115.479 77.4902-116.211 75.3906-116.211C73.291-116.211 71.2402-115.479 69.2383-113.477L48.3887-93.457C47.0703-92.1387 46.3379-90.7715 46.3379-88.8184C46.3379-85.0098 49.5117-82.4219 52.9785-82.4219C54.8828-82.4219 56.6895-83.2031 58.0078-84.6191L65.2344-92.2852L68.3594-97.2656L67.6758-88.0859L67.6758-27.3926C67.6758-23.291 71.0449-19.7266 75.3906-19.7266ZM38.8184 32.5195L111.914 32.5195C126.562 32.5195 134.668 24.4141 134.668 9.91211L134.668-50.1465C134.668-64.6484 126.562-72.7539 111.914-72.7539L95.9961-72.7539L95.9961-55.2734L109.814-55.2734C114.6-55.2734 117.188-52.9785 117.188-47.8516L117.188 7.61719C117.188 12.7441 114.6 15.0391 109.814 15.0391L40.918 15.0391C36.084 15.0391 33.5938 12.7441 33.5938 7.61719L33.5938-47.8516C33.5938-52.9785 36.084-55.2734 40.918-55.2734L55.127-55.2734L55.127-72.7539L38.8184-72.7539C24.2188-72.7539 16.0645-64.6973 16.0645-50.1465L16.0645 9.91211C16.0645 24.4629 24.2188 32.5195 38.8184 32.5195Z"/>
  </g>
  <g id="Bold-L" transform="matrix(1 0 0 1 2266 1556)">
   <path d="M73.9746-19.2383C77.6367-19.2383 80.5664-22.2168 80.5664-25.6836L80.5664-88.4277L79.9805-97.6562L83.7891-92.5293L92.0898-83.7891C93.1641-82.5684 94.7266-81.8848 96.3867-81.8848C99.4141-81.8848 102.1-84.1797 102.1-87.4023C102.1-89.0625 101.465-90.2832 100.293-91.4551L79.1016-111.865C77.4414-113.574 75.7324-114.16 73.9746-114.16C72.2656-114.16 70.5566-113.574 68.8965-111.865L47.6562-91.4551C46.5332-90.2832 45.8984-89.0625 45.8984-87.4023C45.8984-84.1797 48.5352-81.8848 51.5625-81.8848C53.2227-81.8848 54.7852-82.5684 55.9082-83.7891L64.1602-92.5293L68.0176-97.6562L67.4316-88.4277L67.4316-25.6836C67.4316-22.2168 70.3613-19.2383 73.9746-19.2383ZM37.5 31.8848L110.4 31.8848C124.365 31.8848 131.885 24.3652 131.885 10.5469L131.885-50.7812C131.885-64.5996 124.365-72.1191 110.4-72.1191L93.8477-72.1191L93.8477-57.666L108.984-57.666C114.404-57.666 117.432-54.9316 117.432-49.1211L117.432 8.88672C117.432 14.6484 114.404 17.4316 108.984 17.4316L38.9648 17.4316C33.4473 17.4316 30.5176 14.6484 30.5176 8.88672L30.5176-49.1211C30.5176-54.9316 33.4473-57.666 38.9648-57.666L54.3457-57.666L54.3457-72.1191L37.5-72.1191C23.6328-72.1191 16.0645-64.6484 16.0645-50.7812L16.0645 10.5469C16.0645 24.4141 23.6328 31.8848 37.5 31.8848Z"/>
  </g>
  <g id="Semibold-L" transform="matrix(1 0 0 1 1970.27 1556)">
   <path d="M73.0469-18.8477C76.1719-18.8477 78.7598-21.4355 78.7598-24.4629L78.7598-88.6719L78.2715-97.9004L82.5684-92.7246L91.5527-83.252C92.5293-82.1289 93.9453-81.543 95.3613-81.543C98.0957-81.543 100.439-83.5938 100.439-86.4258C100.439-87.9395 99.8535-89.0137 98.8281-90.0391L77.3926-110.791C75.9277-112.207 74.5117-112.744 73.0469-112.744C71.5332-112.744 70.1172-112.207 68.6523-110.791L47.2168-90.0391C46.1914-89.0137 45.6055-87.9395 45.6055-86.4258C45.6055-83.5938 47.9004-81.543 50.6348-81.543C52.0508-81.543 53.4668-82.1289 54.4434-83.252L63.4766-92.7246L67.7734-97.9004L67.2852-88.6719L67.2852-24.4629C67.2852-21.4355 69.873-18.8477 73.0469-18.8477ZM36.6211 31.3965L109.326 31.3965C122.803 31.3965 129.932 24.3164 129.932 10.9863L129.932-51.2695C129.932-64.5508 122.803-71.6797 109.326-71.6797L92.334-71.6797L92.334-59.3262L108.35-59.3262C114.258-59.3262 117.578-56.25 117.578-50.0488L117.578 9.76562C117.578 16.0156 114.258 19.043 108.35 19.043L37.5977 19.043C31.6406 19.043 28.418 16.0156 28.418 9.76562L28.418-50.0488C28.418-56.25 31.6406-59.3262 37.5977-59.3262L53.8574-59.3262L53.8574-71.6797L36.6211-71.6797C23.1934-71.6797 16.0645-64.5996 16.0645-51.2695L16.0645 10.9863C16.0645 24.3652 23.1934 31.3965 36.6211 31.3965Z"/>
  </g>
  <g id="Medium-L" transform="matrix(1 0 0 1 1674.31 1556)">
   <path d="M72.2656-18.5547C75.0977-18.5547 77.3926-20.8496 77.3926-23.584L77.3926-88.8672L76.9531-98.0957L81.6406-92.8711L91.1621-82.8125C92.0898-81.8359 93.3594-81.2988 94.5801-81.2988C97.1191-81.2988 99.1699-83.1543 99.1699-85.6934C99.1699-87.0605 98.6328-88.0371 97.7051-88.9648L76.123-109.961C74.8047-111.23 73.6328-111.67 72.2656-111.67C70.9473-111.67 69.7266-111.23 68.457-109.961L46.8262-88.9648C45.8984-88.0371 45.3613-87.0605 45.3613-85.6934C45.3613-83.1543 47.3633-81.2988 49.9023-81.2988C51.1719-81.2988 52.4902-81.8359 53.3691-82.8125L62.9395-92.8711L67.5781-98.0957L67.1875-88.8672L67.1875-23.584C67.1875-20.8496 69.4824-18.5547 72.2656-18.5547ZM35.9375 31.0547L108.545 31.0547C121.68 31.0547 128.418 24.2676 128.418 11.3281L128.418-51.6113C128.418-64.5508 121.68-71.3379 108.545-71.3379L91.2109-71.3379L91.2109-60.5957L107.91-60.5957C114.16-60.5957 117.725-57.2754 117.725-50.7324L117.725 10.4492C117.725 16.9922 114.16 20.3125 107.91 20.3125L36.5723 20.3125C30.2246 20.3125 26.8066 16.9922 26.8066 10.4492L26.8066-50.7324C26.8066-57.2754 30.2246-60.5957 36.5723-60.5957L53.4668-60.5957L53.4668-71.3379L35.9375-71.3379C22.9004-71.3379 16.0645-64.5996 16.0645-51.6113L16.0645 11.3281C16.0645 24.3164 22.9004 31.0547 35.9375 31.0547Z"/>
  </g>
  <g id="Regular-L" transform="matrix(1 0 0 1 1378.56 1556)">
   <path d="M71.3379-18.2129C73.6328-18.2129 75.5859-20.1172 75.5859-22.4121L75.5859-89.0625L75.293-98.3398L80.3711-93.0176L90.6738-82.2754C91.4551-81.3965 92.5781-80.957 93.6035-80.957C95.8008-80.957 97.5098-82.5684 97.5098-84.7656C97.5098-85.8887 97.0703-86.7676 96.2402-87.5977L74.4141-108.838C73.3398-109.912 72.4121-110.254 71.3379-110.254C70.2148-110.254 69.2871-109.912 68.2129-108.838L46.3867-87.5977C45.5566-86.7676 45.0684-85.8887 45.0684-84.7656C45.0684-82.5684 46.7285-80.957 48.9746-80.957C50-80.957 51.1719-81.3965 51.9531-82.2754L62.207-93.0176L67.3828-98.3398L67.041-89.0625L67.041-22.4121C67.041-20.1172 68.9941-18.2129 71.3379-18.2129ZM35.0586 30.6152L107.52 30.6152C120.166 30.6152 126.514 24.2188 126.514 11.7676L126.514-52.0508C126.514-64.502 120.166-70.8496 107.52-70.8496L89.6973-70.8496L89.6973-62.207L107.324-62.207C114.014-62.207 117.871-58.5938 117.871-51.6113L117.871 11.3281C117.871 18.3105 114.014 21.9238 107.324 21.9238L35.2539 21.9238C28.418 21.9238 24.707 18.3105 24.707 11.3281L24.707-51.6113C24.707-58.5938 28.418-62.207 35.2539-62.207L52.9297-62.207L52.9297-70.8496L35.0586-70.8496C22.4609-70.8496 16.0645-64.5508 16.0645-52.0508L16.0645 11.7676C16.0645 24.2676 22.4609 30.6152 35.0586 30.6152Z"/>
  </g>
  <g id="Light-L" transform="matrix(1 0 0 1 1082.77 1556)">
   <path d="M70.4102-18.3105C72.168-18.3105 73.6816-19.7754 73.6816-21.5332L73.6816-90.918L73.4375-99.9023L79.7363-93.457L91.0156-81.8848C91.6016-81.25 92.5293-80.8594 93.3105-80.8594C94.9707-80.8594 96.2891-82.1289 96.2891-83.7891C96.2891-84.668 95.9473-85.3516 95.3125-85.9863L72.7539-108.203C71.9727-108.984 71.2402-109.277 70.4102-109.277C69.5801-109.277 68.7988-108.984 68.0176-108.203L45.4102-85.9863C44.7754-85.3516 44.4336-84.668 44.4336-83.7891C44.4336-82.1289 45.7031-80.8594 47.4121-80.8594C48.1934-80.8594 49.1211-81.25 49.707-81.8848L60.9863-93.457L67.334-99.9512L67.1387-90.918L67.1387-21.5332C67.1387-19.7754 68.6035-18.3105 70.4102-18.3105ZM34.0332 29.7852L106.689 29.7852C118.555 29.7852 124.658 23.6328 124.658 11.9141L124.658-53.2227C124.658-64.9414 118.555-71.0938 106.689-71.0938L88.5254-71.0938L88.5254-64.4531L106.543-64.4531C113.818-64.4531 118.066-60.5469 118.066-52.8809L118.066 11.5723C118.066 19.2383 113.818 23.1445 106.543 23.1445L34.1797 23.1445C26.709 23.1445 22.7051 19.2383 22.7051 11.5723L22.7051-52.8809C22.7051-60.5469 26.709-64.4531 34.1797-64.4531L52.2949-64.4531L52.2949-71.0938L34.0332-71.0938C22.168-71.0938 16.0645-65.0391 16.0645-53.2227L16.0645 11.9141C16.0645 23.7305 22.168 29.7852 34.0332 29.7852Z"/>
  </g>
  <g id="Thin-L" transform="matrix(1 0 0 1 787.282 1556)">
   <path d="M69.1895-18.4082C70.2637-18.4082 71.1426-19.2871 71.1426-20.3613L71.1426-93.3594L71.0449-102.002L78.9062-94.043L91.5039-81.3965C91.8457-81.0059 92.4316-80.7617 92.9199-80.7617C93.8477-80.7617 94.6777-81.5918 94.6777-82.5684C94.6777-83.0566 94.4824-83.4473 94.0918-83.8379L70.5566-107.373C70.166-107.812 69.6777-108.008 69.1895-108.008C68.7012-108.008 68.2129-107.812 67.7734-107.373L44.1895-83.8379C43.7988-83.4473 43.6035-83.0566 43.6035-82.5684C43.6035-81.5918 44.3848-80.7617 45.3613-80.7617C45.8496-80.7617 46.4355-81.0059 46.7773-81.3965L59.375-94.043L67.334-102.1L67.2363-93.3594L67.2363-20.3613C67.2363-19.2871 68.1152-18.4082 69.1895-18.4082ZM32.666 28.7109L105.615 28.7109C116.504 28.7109 122.217 22.8516 122.217 12.1094L122.217-54.7852C122.217-65.5273 116.504-71.3867 105.615-71.3867L87.0117-71.3867L87.0117-67.4316L105.469-67.4316C113.574-67.4316 118.311-63.0859 118.311-54.5898L118.311 11.9141C118.311 20.4102 113.574 24.7559 105.469 24.7559L32.8125 24.7559C24.4141 24.7559 19.9707 20.4102 19.9707 11.9141L19.9707-54.5898C19.9707-63.0859 24.4141-67.4316 32.8125-67.4316L51.416-67.4316L51.416-71.3867L32.666-71.3867C21.7773-71.3867 16.0645-65.6738 16.0645-54.7852L16.0645 12.1094C16.0645 22.998 21.7773 28.7109 32.666 28.7109Z"/>
  </g>
  <g id="Ultralight-L" transform="matrix(1 0 0 1 491.205 1556)">
   <path d="M68.5547-18.5059C69.2383-18.5059 69.8242-19.0918 69.8242-19.7754L69.8242-94.5801L69.7754-103.125L78.4668-94.3848L91.748-81.1523C91.9922-80.9082 92.3828-80.6641 92.7246-80.6641C93.2617-80.6641 93.8477-81.2988 93.8477-81.9336C93.8477-82.2266 93.75-82.4707 93.5059-82.7637L69.4336-106.982C69.1895-107.178 68.8477-107.324 68.5547-107.324C68.2129-107.324 67.9199-107.178 67.6758-106.982L43.5547-82.7637C43.2617-82.4707 43.1641-82.2266 43.1641-81.9336C43.1641-81.2988 43.6523-80.6641 44.2871-80.6641C44.6289-80.6641 45.0195-80.9082 45.3125-81.1523L58.5449-94.3848L67.334-103.174L67.2852-94.5801L67.2852-19.7754C67.2852-19.0918 67.8223-18.5059 68.5547-18.5059ZM31.9824 28.1738L105.078 28.1738C115.43 28.1738 120.947 22.4609 120.947 12.207L120.947-55.6152C120.947-65.8203 115.43-71.5332 105.078-71.5332L86.2305-71.5332L86.2305-68.9941L104.883-68.9941C113.477-68.9941 118.408-64.3555 118.408-55.4688L118.408 12.1094C118.408 20.9961 113.477 25.5859 104.883 25.5859L32.1289 25.5859C23.1934 25.5859 18.6035 20.9961 18.6035 12.1094L18.6035-55.4688C18.6035-64.3555 23.1934-68.9941 32.1289-68.9941L50.9766-68.9941L50.9766-71.5332L31.9824-71.5332C21.582-71.5332 16.0645-65.9668 16.0645-55.6152L16.0645 12.207C16.0645 22.6074 21.582 28.1738 31.9824 28.1738Z"/>
  </g>
  <g id="Black-M" transform="matrix(1 0 0 1 2872.8 1126)">
   <path d="M60.6445-24.2676C65.0391-24.2676 68.3594-27.8809 68.3594-31.9824L68.3594-76.5137L67.6758-83.4473L69.4336-79.1992L73.5352-74.8535C74.8047-73.5352 76.4648-72.7051 78.418-72.7051C81.6406-72.7051 84.9121-75.1953 84.9121-78.9062C84.9121-80.8105 84.2285-82.1289 82.959-83.3984L67.041-98.584C64.9902-100.586 62.793-101.367 60.6445-101.367C58.4961-101.367 56.2988-100.586 54.1992-98.584L38.3301-83.3984C37.0605-82.1289 36.377-80.8105 36.377-78.9062C36.377-75.1953 39.6484-72.7051 42.8223-72.7051C44.7754-72.7051 46.4844-73.5352 47.7539-74.8535L51.8555-79.1992L53.5645-83.4473L52.8809-76.5137L52.8809-31.9824C52.8809-27.8809 56.2012-24.2676 60.6445-24.2676ZM31.9824 18.1152L89.209 18.1152C101.465 18.1152 108.74 10.8398 108.74-1.41602L108.74-46.1426C108.74-58.3984 101.465-65.6738 89.209-65.6738L77.9297-65.6738L77.9297-47.4121L86.2793-47.4121C89.1113-47.4121 90.4785-46.2891 90.4785-43.2129L90.4785-4.3457C90.4785-1.26953 89.1113-0.146484 86.2793-0.146484L34.9121-0.146484C32.0801-0.146484 30.7617-1.26953 30.7617-4.3457L30.7617-43.2129C30.7617-46.2891 32.0801-47.4121 34.9121-47.4121L43.7988-47.4121L43.7988-65.6738L31.9824-65.6738C19.7266-65.6738 12.4512-58.3984 12.4512-46.1426L12.4512-1.41602C12.4512 10.8398 19.7266 18.1152 31.9824 18.1152Z"/>
  </g>
  <g id="Heavy-M" transform="matrix(1 0 0 1 2577.22 1126)">
   <path d="M59.4727-23.7305C63.3789-23.7305 66.3086-26.9043 66.3086-30.5176L66.3086-76.3672L65.7227-83.3984L67.8223-79.3457L72.7051-74.1211C73.8281-72.9492 75.3906-72.2168 77.0996-72.2168C79.9805-72.2168 82.8613-74.5117 82.8613-77.7832C82.8613-79.4922 82.2266-80.6641 81.1035-81.7871L65.0879-97.168C63.2324-98.9746 61.377-99.6094 59.4727-99.6094C57.6172-99.6094 55.7129-98.9746 53.9062-97.168L37.8906-81.7871C36.7676-80.6641 36.1328-79.4922 36.1328-77.7832C36.1328-74.5117 38.9648-72.2168 41.8945-72.2168C43.6035-72.2168 45.166-72.9492 46.2891-74.1211L51.1719-79.3457L53.2715-83.3984L52.6855-76.3672L52.6855-30.5176C52.6855-26.9043 55.6152-23.7305 59.4727-23.7305ZM31.0059 17.6758L87.9395 17.6758C99.707 17.6758 106.494 10.9375 106.494-0.830078L106.494-46.4844C106.494-58.252 99.707-64.9902 87.9395-64.9902L76.123-64.9902L76.123-49.1699L85.6934-49.1699C88.9648-49.1699 90.625-47.7051 90.625-44.1406L90.625-3.125C90.625 0.390625 88.9648 1.85547 85.6934 1.85547L33.252 1.85547C29.9316 1.85547 28.2715 0.390625 28.2715-3.125L28.2715-44.1406C28.2715-47.7051 29.9316-49.1699 33.252-49.1699L43.2129-49.1699L43.2129-64.9902L31.0059-64.9902C19.2383-64.9902 12.4512-58.252 12.4512-46.4844L12.4512-0.830078C12.4512 10.9375 19.2383 17.6758 31.0059 17.6758Z"/>
  </g>
  <g id="Bold-M" transform="matrix(1 0 0 1 2281.8 1126)">
   <path d="M58.2031-23.1445C61.4746-23.1445 64.0137-25.7812 64.0137-28.8574L64.0137-76.2207L63.5254-83.3496L66.0645-79.4922L71.7773-73.3398C72.7539-72.3145 74.1211-71.7285 75.5859-71.7285C78.1738-71.7285 80.6152-73.6816 80.6152-76.5137C80.6152-77.9785 80.0293-79.0527 79.0527-80.0293L62.8418-95.6055C61.3281-97.1191 59.7656-97.6562 58.2031-97.6562C56.6406-97.6562 55.127-97.1191 53.6133-95.6055L37.4023-80.0293C36.377-79.0527 35.8398-77.9785 35.8398-76.5137C35.8398-73.6816 38.2324-71.7285 40.8203-71.7285C42.2852-71.7285 43.6523-72.3145 44.6289-73.3398L50.3906-79.4922L52.9297-83.3496L52.3926-76.2207L52.3926-28.8574C52.3926-25.7812 54.9805-23.1445 58.2031-23.1445ZM29.8828 17.1875L86.5234 17.1875C97.7539 17.1875 103.906 10.9863 103.906-0.146484L103.906-46.875C103.906-58.0078 97.7539-64.209 86.5234-64.209L74.0723-64.209L74.0723-51.123L84.9609-51.123C88.8184-51.123 90.8691-49.2676 90.8691-45.2148L90.8691-1.80664C90.8691 2.24609 88.8184 4.10156 84.9609 4.10156L31.3965 4.10156C27.5391 4.10156 25.5371 2.24609 25.5371-1.80664L25.5371-45.2148C25.5371-49.2676 27.5391-51.123 31.3965-51.123L42.5781-51.123L42.5781-64.209L29.8828-64.209C18.6523-64.209 12.4512-58.0566 12.4512-46.875L12.4512-0.146484C12.4512 11.0352 18.6523 17.1875 29.8828 17.1875Z"/>
  </g>
  <g id="Semibold-M" transform="matrix(1 0 0 1 1985.97 1126)">
   <path d="M57.3242-22.7051C60.1562-22.7051 62.4512-25.0488 62.4512-27.7344L62.4512-76.123L62.0117-83.3008L64.7949-79.5898L71.1914-72.8027C72.0215-71.875 73.291-71.3379 74.5117-71.3379C76.9531-71.3379 79.0039-73.1445 79.0039-75.6836C79.0039-76.9531 78.5156-77.9297 77.6367-78.8574L61.3281-94.5312C59.9609-95.8496 58.6914-96.2891 57.3242-96.2891C56.0059-96.2891 54.6875-95.8496 53.3691-94.5312L37.0605-78.8574C36.1328-77.9297 35.6445-76.9531 35.6445-75.6836C35.6445-73.1445 37.6953-71.3379 40.0879-71.3379C41.3574-71.3379 42.627-71.875 43.5059-72.8027L49.8535-79.5898L52.6855-83.3008L52.2461-76.123L52.2461-27.7344C52.2461-25.0488 54.4922-22.7051 57.3242-22.7051ZM29.1016 16.8457L85.498 16.8457C96.3867 16.8457 102.148 11.084 102.148 0.292969L102.148-47.1191C102.148-57.9102 96.3867-63.6719 85.498-63.6719L72.6562-63.6719L72.6562-52.4902L84.4727-52.4902C88.6719-52.4902 91.0156-50.3418 91.0156-45.8984L91.0156-0.878906C91.0156 3.51562 88.6719 5.66406 84.4727 5.66406L30.127 5.66406C25.8789 5.66406 23.6328 3.51562 23.6328-0.878906L23.6328-45.8984C23.6328-50.3418 25.8789-52.4902 30.127-52.4902L42.1387-52.4902L42.1387-63.6719L29.1016-63.6719C18.2617-63.6719 12.4512-57.9102 12.4512-47.1191L12.4512 0.292969C12.4512 11.084 18.2617 16.8457 29.1016 16.8457Z"/>
  </g>
  <g id="Medium-M" transform="matrix(1 0 0 1 1689.91 1126)">
   <path d="M56.6895-22.4121C59.1797-22.4121 61.2305-24.4629 61.2305-26.9043L61.2305-76.0254L60.8887-83.252L63.8672-79.6875L70.7031-72.4121C71.4844-71.5332 72.6074-71.0938 73.7305-71.0938C75.9766-71.0938 77.832-72.7051 77.832-75C77.832-76.2207 77.3438-77.0996 76.5137-77.9297L60.1562-93.7012C58.9844-94.873 57.8613-95.2637 56.6895-95.2637C55.4688-95.2637 54.3945-94.873 53.2227-93.7012L36.8164-77.9297C35.9863-77.0996 35.498-76.2207 35.498-75C35.498-72.7051 37.3047-71.0938 39.5508-71.0938C40.6738-71.0938 41.8457-71.5332 42.627-72.4121L49.4629-79.6875L52.4902-83.3008L52.0996-76.0254L52.0996-26.9043C52.0996-24.4629 54.1504-22.4121 56.6895-22.4121ZM28.5156 16.6016L84.7656 16.6016C95.3613 16.6016 100.83 11.1328 100.83 0.683594L100.83-47.3145C100.83-57.7637 95.3613-63.2324 84.7656-63.2324L71.582-63.2324L71.582-53.5156L84.1309-53.5156C88.5742-53.5156 91.1133-51.1719 91.1133-46.4844L91.1133-0.195312C91.1133 4.49219 88.5742 6.83594 84.1309 6.83594L29.1504 6.83594C24.6582 6.83594 22.168 4.49219 22.168-0.195312L22.168-46.4844C22.168-51.1719 24.6582-53.5156 29.1504-53.5156L41.8457-53.5156L41.8457-63.2324L28.5156-63.2324C17.9688-63.2324 12.4512-57.8125 12.4512-47.3145L12.4512 0.683594C12.4512 11.1328 17.9688 16.6016 28.5156 16.6016Z"/>
  </g>
  <g id="Regular-M" transform="matrix(1 0 0 1 1394.06 1126)">
   <path d="M55.8105-21.9727C57.9102-21.9727 59.668-23.7305 59.668-25.7812L59.668-75.9277L59.375-83.252L62.6953-79.7852L70.0684-71.875C70.752-71.0938 71.7773-70.7031 72.7051-70.7031C74.7559-70.7031 76.2695-72.168 76.2695-74.1699C76.2695-75.1953 75.8789-75.9766 75.1465-76.709L58.6426-92.627C57.666-93.6035 56.7871-93.9453 55.8105-93.9453C54.834-93.9453 53.9551-93.6035 52.9785-92.627L36.4746-76.709C35.7422-75.9766 35.3027-75.1953 35.3027-74.1699C35.3027-72.168 36.8164-70.7031 38.8184-70.7031C39.7949-70.7031 40.8203-71.0938 41.5039-71.875L48.9258-79.7852L52.2461-83.252L51.9043-75.9277L51.9043-25.7812C51.9043-23.7305 53.7109-21.9727 55.8105-21.9727ZM27.7832 16.2598L83.7891 16.2598C93.9941 16.2598 99.1211 11.1816 99.1211 1.12305L99.1211-47.6074C99.1211-57.666 93.9941-62.7441 83.7891-62.7441L70.166-62.7441L70.166-54.8828L83.6426-54.8828C88.4766-54.8828 91.2598-52.2461 91.2598-47.168L91.2598 0.683594C91.2598 5.76172 88.4766 8.39844 83.6426 8.39844L27.8809 8.39844C22.998 8.39844 20.3125 5.76172 20.3125 0.683594L20.3125-47.168C20.3125-52.2461 22.998-54.8828 27.8809-54.8828L41.4062-54.8828L41.4062-62.7441L27.7832-62.7441C17.5781-62.7441 12.4512-57.666 12.4512-47.6074L12.4512 1.12305C12.4512 11.1816 17.5781 16.2598 27.7832 16.2598Z"/>
  </g>
  <g id="Light-M" transform="matrix(1 0 0 1 1098.18 1126)">
   <path d="M54.9805-22.0703C56.5918-22.0703 57.959-23.3887 57.959-25L57.959-77.5879L57.7637-84.668L62.1094-80.1758L70.4102-71.5332C70.9473-70.9473 71.7285-70.6543 72.4609-70.6543C73.9746-70.6543 75.1953-71.7773 75.1953-73.291C75.1953-74.1211 74.8535-74.707 74.3164-75.293L57.1289-92.0898C56.3965-92.8223 55.7617-93.0664 54.9805-93.0664C54.1992-93.0664 53.5645-92.8223 52.832-92.0898L35.6445-75.293C35.0586-74.707 34.7168-74.1211 34.7168-73.291C34.7168-71.7773 35.8887-70.6543 37.4512-70.6543C38.1836-70.6543 39.0137-70.9473 39.5508-71.5332L47.8516-80.1758L52.1973-84.668L52.002-77.5879L52.002-25C52.002-23.3887 53.3691-22.0703 54.9805-22.0703ZM26.8555 15.5273L83.0566 15.5273C92.5781 15.5273 97.4609 10.6445 97.4609 1.26953L97.4609-48.6328C97.4609-58.0566 92.5781-62.9395 83.0566-62.9395L69.1406-62.9395L69.1406-56.8848L82.9102-56.8848C88.3301-56.8848 91.4062-53.9551 91.4062-48.3398L91.4062 0.927734C91.4062 6.5918 88.3301 9.47266 82.9102 9.47266L26.9531 9.47266C21.4844 9.47266 18.5059 6.5918 18.5059 0.927734L18.5059-48.3398C18.5059-53.9551 21.4844-56.8848 26.9531-56.8848L40.8203-56.8848L40.8203-62.9395L26.8555-62.9395C17.334-62.9395 12.4512-58.1055 12.4512-48.6328L12.4512 1.26953C12.4512 10.6934 17.334 15.5273 26.8555 15.5273Z"/>
  </g>
  <g id="Thin-M" transform="matrix(1 0 0 1 802.565 1126)">
   <path d="M53.9062-22.168C54.8828-22.168 55.6641-22.998 55.6641-23.9746L55.6641-79.7363L55.5664-86.5234L61.3281-80.7129L70.8008-71.0938C71.1426-70.752 71.6797-70.5078 72.1191-70.5078C72.998-70.5078 73.7305-71.2891 73.7305-72.168C73.7305-72.6562 73.5352-72.998 73.1934-73.3887L55.1758-91.3086C54.7852-91.748 54.3457-91.8945 53.9062-91.8945C53.418-91.8945 52.9785-91.748 52.5879-91.3086L34.5215-73.3887C34.1797-72.998 33.9844-72.6562 33.9844-72.168C33.9844-71.2891 34.668-70.5078 35.5957-70.5078C36.0352-70.5078 36.5723-70.752 36.9141-71.0938L46.3867-80.7129L52.1973-86.5723L52.0996-79.7363L52.0996-23.9746C52.0996-22.998 52.8809-22.168 53.9062-22.168ZM25.6348 14.5508L82.0801 14.5508C90.7227 14.5508 95.2637 9.96094 95.2637 1.41602L95.2637-50.0488C95.2637-58.5938 90.7227-63.1836 82.0801-63.1836L67.7734-63.1836L67.7734-59.5703L81.9824-59.5703C88.0859-59.5703 91.6016-56.25 91.6016-49.8535L91.6016 1.2207C91.6016 7.61719 88.0859 10.9375 81.9824 10.9375L25.7324 10.9375C19.3848 10.9375 16.0645 7.61719 16.0645 1.2207L16.0645-49.8535C16.0645-56.25 19.3848-59.5703 25.7324-59.5703L40.0391-59.5703L40.0391-63.1836L25.6348-63.1836C16.9922-63.1836 12.4512-58.6914 12.4512-50.0488L12.4512 1.41602C12.4512 10.0586 16.9922 14.5508 25.6348 14.5508Z"/>
  </g>
  <g id="Ultralight-M" transform="matrix(1 0 0 1 506.415 1126)">
   <path d="M53.3203-22.2168C54.0039-22.2168 54.541-22.8027 54.541-23.4375L54.541-80.8594L54.4434-87.5L60.9375-80.957L71.0449-70.8984C71.2402-70.6543 71.6309-70.459 71.9238-70.459C72.4609-70.459 72.998-70.9961 72.998-71.6309C72.998-71.9238 72.9004-72.168 72.6562-72.4121L54.1504-90.9668C53.9062-91.1621 53.6133-91.3086 53.3203-91.3086C53.0273-91.3086 52.7344-91.1621 52.4902-90.9668L33.9355-72.4121C33.6914-72.168 33.5938-71.9238 33.5938-71.6309C33.5938-70.9961 34.082-70.459 34.668-70.459C34.9609-70.459 35.3027-70.6543 35.5469-70.8984L45.6543-80.957L52.1973-87.5488L52.1484-80.8594L52.1484-23.4375C52.1484-22.8027 52.6855-22.2168 53.3203-22.2168ZM25 14.0625L81.5918 14.0625C89.7949 14.0625 94.1406 9.57031 94.1406 1.51367L94.1406-50.7812C94.1406-58.8379 89.7949-63.3301 81.5918-63.3301L67.041-63.3301L67.041-60.9375L81.4453-60.9375C87.9883-60.9375 91.748-57.4219 91.748-50.6348L91.748 1.41602C91.748 8.1543 87.9883 11.6699 81.4453 11.6699L25.0977 11.6699C18.3594 11.6699 14.8438 8.1543 14.8438 1.41602L14.8438-50.6348C14.8438-57.4219 18.3594-60.9375 25.0977-60.9375L39.6484-60.9375L39.6484-63.3301L25-63.3301C16.7969-63.3301 12.4512-58.9844 12.4512-50.7812L12.4512 1.51367C12.4512 9.7168 16.7969 14.0625 25 14.0625Z"/>
  </g>
  <g id="Black-S" transform="matrix(1 0 0 1 2885.99 696)">
   <path d="M47.4121-26.6113C50.8301-26.6113 53.418-29.3945 53.418-32.5684L53.418-67.5293L52.8809-72.998L54.248-69.6777L57.5195-66.2109C58.4961-65.1855 59.8145-64.5508 61.3281-64.5508C63.8184-64.5508 66.3574-66.5039 66.3574-69.3848C66.3574-70.8496 65.8203-71.875 64.8438-72.8516L52.3926-84.7656C50.7812-86.3281 49.0723-86.9141 47.4121-86.9141C45.752-86.9141 44.043-86.3281 42.4316-84.7656L29.9805-72.8516C29.0039-71.875 28.4668-70.8496 28.4668-69.3848C28.4668-66.5039 31.0059-64.5508 33.4961-64.5508C35.0098-64.5508 36.3281-65.1855 37.3047-66.2109L40.5762-69.6777L41.9434-72.998L41.4062-67.5293L41.4062-32.5684C41.4062-29.3945 43.9941-26.6113 47.4121-26.6113ZM25 6.54297L69.8242 6.54297C79.3945 6.54297 85.0586 0.878906 85.0586-8.69141L85.0586-43.7988C85.0586-53.3691 79.3945-59.0332 69.8242-59.0332L60.9375-59.0332L60.9375-44.873L67.5781-44.873C69.8242-44.873 70.8984-43.9941 70.8984-41.5527L70.8984-10.9375C70.8984-8.49609 69.8242-7.61719 67.5781-7.61719L27.2461-7.61719C25-7.61719 23.9258-8.49609 23.9258-10.9375L23.9258-41.5527C23.9258-43.9941 25-44.873 27.2461-44.873L34.2773-44.873L34.2773-59.0332L25-59.0332C15.4297-59.0332 9.76562-53.3691 9.76562-43.7988L9.76562-8.69141C9.76562 0.878906 15.4297 6.54297 25 6.54297Z"/>
  </g>
  <g id="Heavy-S" transform="matrix(1 0 0 1 2590.06 696)">
   <path d="M46.6309-26.1719C49.707-26.1719 52.0508-28.6621 52.0508-31.543L52.0508-67.2363L51.5625-72.8027L53.0762-69.7266L56.8848-65.7227C57.7637-64.7461 58.9844-64.209 60.3516-64.209C62.6465-64.209 64.9414-66.0156 64.9414-68.6035C64.9414-69.9707 64.4043-70.8984 63.5254-71.8262L51.0254-83.7402C49.6094-85.1562 48.0957-85.6934 46.6309-85.6934C45.166-85.6934 43.6523-85.1562 42.2363-83.7402L29.7363-71.8262C28.8574-70.8984 28.3203-69.9707 28.3203-68.6035C28.3203-66.0156 30.6152-64.209 32.9102-64.209C34.2773-64.209 35.498-64.7461 36.4258-65.7227L40.1855-69.7266L41.6992-72.8027L41.2109-67.2363L41.2109-31.543C41.2109-28.6621 43.5547-26.1719 46.6309-26.1719ZM24.3652 6.29883L68.9453 6.29883C78.2227 6.29883 83.4961 0.976562 83.4961-8.25195L83.4961-43.9453C83.4961-53.1738 78.2227-58.4961 68.9453-58.4961L59.668-58.4961L59.668-45.9961L67.1875-45.9961C69.7266-45.9961 70.9961-44.873 70.9961-42.1387L70.9961-10.0586C70.9961-7.32422 69.7266-6.20117 67.1875-6.20117L26.0742-6.20117C23.5352-6.20117 22.2656-7.32422 22.2656-10.0586L22.2656-42.1387C22.2656-44.873 23.5352-45.9961 26.0742-45.9961L33.8867-45.9961L33.8867-58.4961L24.3652-58.4961C15.0879-58.4961 9.76562-53.1738 9.76562-43.9453L9.76562-8.25195C9.76562 0.976562 15.0879 6.29883 24.3652 6.29883Z"/>
  </g>
  <g id="Bold-S" transform="matrix(1 0 0 1 2294.23 696)">
   <path d="M45.752-25.7324C48.3887-25.7324 50.4883-27.8809 50.4883-30.3711L50.4883-66.9434L50.0977-72.5586L51.8066-69.8242L56.1523-65.1367C56.9336-64.3066 58.0078-63.8184 59.2285-63.8184C61.377-63.8184 63.3301-65.4297 63.3301-67.7734C63.3301-68.9453 62.8418-69.8242 62.0605-70.6543L49.5117-82.6172C48.291-83.8379 47.0215-84.2773 45.752-84.2773C44.4824-84.2773 43.2617-83.8379 41.9922-82.6172L29.4922-70.6543C28.6621-69.8242 28.2227-68.9453 28.2227-67.7734C28.2227-65.4297 30.127-63.8184 32.2754-63.8184C33.4473-63.8184 34.6191-64.3066 35.4004-65.1367L39.6973-69.8242L41.4062-72.5586L41.0156-66.9434L41.0156-30.3711C41.0156-27.8809 43.1152-25.7324 45.752-25.7324ZM23.6328 6.00586L67.9199 6.00586C76.8555 6.00586 81.7383 1.12305 81.7383-7.76367L81.7383-44.0918C81.7383-52.9785 76.8555-57.8613 67.9199-57.8613L58.2031-57.8613L58.2031-47.2656L66.748-47.2656C69.6289-47.2656 71.1426-45.8496 71.1426-42.7734L71.1426-9.08203C71.1426-6.00586 69.6289-4.58984 66.748-4.58984L24.8047-4.58984C21.9238-4.58984 20.3613-6.00586 20.3613-9.08203L20.3613-42.7734C20.3613-45.8496 21.9238-47.2656 24.8047-47.2656L33.4961-47.2656L33.4961-57.8613L23.6328-57.8613C14.6973-57.8613 9.76562-52.9785 9.76562-44.0918L9.76562-7.76367C9.76562 1.12305 14.6973 6.00586 23.6328 6.00586Z"/>
  </g>
  <g id="Semibold-S" transform="matrix(1 0 0 1 1998.1 696)">
   <path d="M45.166-25.3906C47.5098-25.3906 49.4629-27.3438 49.4629-29.5898L49.4629-66.6992L49.0723-72.4121L50.9277-69.873L55.6152-64.7949C56.3477-63.9648 57.373-63.5254 58.4473-63.5254C60.498-63.5254 62.207-65.0391 62.207-67.1875C62.207-68.2617 61.7676-69.0918 61.0352-69.8242L48.4863-81.8359C47.3633-82.959 46.2891-83.3008 45.166-83.3008C44.043-83.3008 42.9688-82.959 41.8457-81.8359L29.2969-69.8242C28.5156-69.0918 28.125-68.2617 28.125-67.1875C28.125-65.0391 29.834-63.5254 31.8359-63.5254C32.9102-63.5254 33.9844-63.9648 34.7168-64.7949L39.4043-69.873L41.2598-72.4121L40.8691-66.6992L40.8691-29.5898C40.8691-27.3438 42.7734-25.3906 45.166-25.3906ZM23.0957 5.81055L67.2363 5.81055C75.9277 5.81055 80.5664 1.2207 80.5664-7.42188L80.5664-44.1895C80.5664-52.832 75.9277-57.4219 67.2363-57.4219L57.2266-57.4219L57.2266-48.0957L66.4551-48.0957C69.5312-48.0957 71.2402-46.5332 71.2402-43.2617L71.2402-8.39844C71.2402-5.07812 69.5312-3.51562 66.4551-3.51562L23.877-3.51562C20.752-3.51562 19.0918-5.07812 19.0918-8.39844L19.0918-43.2617C19.0918-46.5332 20.752-48.0957 23.877-48.0957L33.2031-48.0957L33.2031-57.4219L23.0957-57.4219C14.4043-57.4219 9.76562-52.832 9.76562-44.1895L9.76562-7.42188C9.76562 1.2207 14.4043 5.81055 23.0957 5.81055Z"/>
  </g>
  <g id="Medium-S" transform="matrix(1 0 0 1 1701.85 696)">
   <path d="M44.7266-25.1465C46.875-25.1465 48.6328-26.9043 48.6328-29.0039L48.6328-66.5527L48.291-72.3145L50.2441-69.873L55.2246-64.502C55.9082-63.7207 56.8848-63.3301 57.8613-63.3301C59.8145-63.3301 61.377-64.7461 61.377-66.6992C61.377-67.7246 60.9863-68.5059 60.2539-69.2383L47.6562-81.25C46.6797-82.2754 45.752-82.6172 44.7266-82.6172C43.6523-82.6172 42.7734-82.2754 41.748-81.25L29.1504-69.2383C28.418-68.5059 28.0273-67.7246 28.0273-66.6992C28.0273-64.7461 29.5898-63.3301 31.4941-63.3301C32.4707-63.3301 33.4961-63.7207 34.1797-64.502L39.1602-69.873L41.1133-72.3145L40.7715-66.5527L40.7715-29.0039C40.7715-26.9043 42.5293-25.1465 44.7266-25.1465ZM22.7051 5.66406L66.6992 5.66406C75.2441 5.66406 79.6387 1.26953 79.6387-7.12891L79.6387-44.2871C79.6387-52.7344 75.2441-57.0801 66.6992-57.0801L56.4941-57.0801L56.4941-48.7793L66.2109-48.7793C69.4824-48.7793 71.3379-47.0703 71.3379-43.6035L71.3379-7.86133C71.3379-4.39453 69.4824-2.68555 66.2109-2.68555L23.1934-2.68555C19.9219-2.68555 18.0664-4.39453 18.0664-7.86133L18.0664-43.6035C18.0664-47.0703 19.9219-48.7793 23.1934-48.7793L33.0078-48.7793L33.0078-57.0801L22.7051-57.0801C14.209-57.0801 9.76562-52.7344 9.76562-44.2871L9.76562-7.12891C9.76562 1.31836 14.209 5.66406 22.7051 5.66406Z"/>
  </g>
  <g id="Regular-S" transform="matrix(1 0 0 1 1405.73 696)">
   <path d="M44.0918-24.8047C45.9961-24.8047 47.6074-26.3672 47.6074-28.2227L47.6074-66.3086L47.3145-72.168L49.3652-69.9219L54.7363-64.1113C55.3711-63.4277 56.25-63.0859 57.0801-63.0859C58.9355-63.0859 60.3027-64.3555 60.3027-66.1133C60.3027-67.0898 59.9121-67.7734 59.2285-68.4082L46.6309-80.4688C45.752-81.3477 45.0195-81.6406 44.0918-81.6406C43.2129-81.6406 42.4805-81.3477 41.5527-80.4688L28.9551-68.4082C28.3203-67.7734 27.9297-67.0898 27.9297-66.1133C27.9297-64.3555 29.248-63.0859 31.1035-63.0859C31.9336-63.0859 32.8613-63.4277 33.4961-64.1113L38.8672-69.9219L40.918-72.168L40.625-66.3086L40.625-28.2227C40.625-26.3672 42.2363-24.8047 44.0918-24.8047ZM22.2168 5.46875L66.0156 5.46875C74.3652 5.46875 78.4668 1.36719 78.4668-6.83594L78.4668-44.3848C78.4668-52.5879 74.3652-56.6895 66.0156-56.6895L55.5176-56.6895L55.5176-49.6094L65.918-49.6094C69.3848-49.6094 71.4355-47.7051 71.4355-44.043L71.4355-7.17773C71.4355-3.4668 69.3848-1.61133 65.918-1.61133L22.3145-1.61133C18.7988-1.61133 16.7969-3.4668 16.7969-7.17773L16.7969-44.043C16.7969-47.7051 18.7988-49.6094 22.3145-49.6094L32.7148-49.6094L32.7148-56.6895L22.2168-56.6895C13.916-56.6895 9.76562-52.5879 9.76562-44.3848L9.76562-6.83594C9.76562 1.36719 13.916 5.46875 22.2168 5.46875Z"/>
  </g>
  <g id="Light-S" transform="matrix(1 0 0 1 1109.75 696)">
   <path d="M43.3594-24.9023C44.8242-24.9023 46.0449-26.0742 46.0449-27.4902L46.0449-67.7734L45.8496-73.3887L48.877-70.2637L55.0293-63.8184C55.5176-63.2812 56.2012-62.9883 56.8359-62.9883C58.252-62.9883 59.3262-64.0137 59.3262-65.3809C59.3262-66.1133 59.0332-66.6504 58.4961-67.1387L45.3125-79.9805C44.6777-80.6641 44.043-80.8594 43.3594-80.8594C42.6758-80.8594 42.0898-80.6641 41.4062-79.9805L28.2227-67.1387C27.7344-66.6504 27.4414-66.1133 27.4414-65.3809C27.4414-64.0137 28.4668-62.9883 29.834-62.9883C30.5176-62.9883 31.25-63.2812 31.7383-63.8184L37.8906-70.2637L40.918-73.4375L40.6738-67.7734L40.6738-27.4902C40.6738-26.0742 41.9434-24.9023 43.3594-24.9023ZM21.3867 4.78516L65.332 4.78516C73.0957 4.78516 77.002 0.927734 77.002-6.68945L77.002-45.3613C77.002-52.9297 73.0957-56.8359 65.332-56.8359L54.5898-56.8359L54.5898-51.416L65.2344-51.416C69.2383-51.416 71.582-49.2676 71.582-45.0684L71.582-6.98242C71.582-2.7832 69.2383-0.634766 65.2344-0.634766L21.4844-0.634766C17.4316-0.634766 15.1855-2.7832 15.1855-6.98242L15.1855-45.0684C15.1855-49.2676 17.4316-51.416 21.4844-51.416L32.2266-51.416L32.2266-56.8359L21.3867-56.8359C13.6719-56.8359 9.76562-52.9785 9.76562-45.3613L9.76562-6.68945C9.76562 0.927734 13.6719 4.78516 21.3867 4.78516Z"/>
  </g>
  <g id="Thin-S" transform="matrix(1 0 0 1 814.015 696)">
   <path d="M42.4316-25C43.3105-25 44.043-25.7324 44.043-26.6113L44.043-69.6777L43.9453-75.0488L48.1934-70.752L55.3711-63.4277C55.6641-63.0859 56.1523-62.8906 56.543-62.8906C57.373-62.8906 58.0566-63.5742 58.0566-64.4043C58.0566-64.8438 57.8613-65.1367 57.5684-65.4785L43.6035-79.3457C43.2129-79.6875 42.8223-79.834 42.4316-79.834C41.9922-79.834 41.6016-79.6875 41.2598-79.3457L27.2461-65.4785C26.9043-65.1367 26.7578-64.8438 26.7578-64.4043C26.7578-63.5742 27.3926-62.8906 28.2227-62.8906C28.6133-62.8906 29.1016-63.0859 29.3945-63.4277L36.6211-70.752L40.8691-75.0977L40.7715-69.6777L40.7715-26.6113C40.7715-25.7324 41.5039-25 42.4316-25ZM20.3125 3.95508L64.502 3.95508C71.4355 3.95508 75.0488 0.292969 75.0488-6.54297L75.0488-46.582C75.0488-53.418 71.4355-57.0801 64.502-57.0801L53.3691-57.0801L53.3691-53.7598L64.4043-53.7598C69.0918-53.7598 71.7285-51.2695 71.7285-46.3867L71.7285-6.73828C71.7285-1.85547 69.0918 0.634766 64.4043 0.634766L20.4102 0.634766C15.625 0.634766 13.0859-1.85547 13.0859-6.73828L13.0859-46.3867C13.0859-51.2695 15.625-53.7598 20.4102-53.7598L31.543-53.7598L31.543-57.0801L20.3125-57.0801C13.3789-57.0801 9.76562-53.4668 9.76562-46.582L9.76562-6.54297C9.76562 0.390625 13.3789 3.95508 20.3125 3.95508Z"/>
  </g>
  <g id="Ultralight-S" transform="matrix(1 0 0 1 517.792 696)">
   <path d="M41.8945-25.0488C42.5293-25.0488 43.0176-25.5371 43.0176-26.123L43.0176-70.6543L42.9688-75.9277L47.8516-70.9961L55.5664-63.2324C55.8105-62.9883 56.1035-62.8418 56.3965-62.8418C56.8848-62.8418 57.373-63.3301 57.373-63.8672C57.373-64.1602 57.2754-64.4043 57.0312-64.5996L42.6758-79.0039C42.4805-79.1992 42.1875-79.2969 41.8945-79.2969C41.6504-79.2969 41.3574-79.1992 41.1133-79.0039L26.709-64.5996C26.5137-64.4043 26.416-64.1602 26.416-63.8672C26.416-63.3301 26.8555-62.8418 27.3926-62.8418C27.6855-62.8418 27.9785-62.9883 28.2227-63.2324L35.9375-70.9961L40.8691-75.9766L40.8203-70.6543L40.8203-26.123C40.8203-25.5371 41.3086-25.0488 41.8945-25.0488ZM19.7754 3.51562L64.0625 3.51562C70.6055 3.51562 74.0723-0.0488281 74.0723-6.44531L74.0723-47.2168C74.0723-53.6621 70.6055-57.1777 64.0625-57.1777L52.7344-57.1777L52.7344-54.9805L63.9648-54.9805C68.9453-54.9805 71.875-52.2949 71.875-47.1191L71.875-6.5918C71.875-1.36719 68.9453 1.31836 63.9648 1.31836L19.873 1.31836C14.6484 1.31836 11.9629-1.36719 11.9629-6.5918L11.9629-47.1191C11.9629-52.2949 14.6484-54.9805 19.873-54.9805L31.2012-54.9805L31.2012-57.1777L19.7754-57.1777C13.2324-57.1777 9.76562-53.7598 9.76562-47.2168L9.76562-6.44531C9.76562 0.0488281 13.2324 3.51562 19.7754 3.51562Z"/>
  </g>
 </g>
</svg>
