<?xml version="1.0" encoding="UTF-8"?>
<!--Generator: Apple Native CoreSVG 149-->
<!DOCTYPE svg
PUBLIC "-//W3C//DTD SVG 1.1//EN"
       "http://www.w3.org/Graphics/SVG/1.1/DTD/svg11.dtd">
<svg version="1.1" xmlns="http://www.w3.org/2000/svg" xmlns:xlink="http://www.w3.org/1999/xlink" width="3300" height="2200">
 <!--glyph: "uni10023F.medium", point size: 100.000000, font version: "Version 16.0d12e3", template writer version: "8"-->
 <g id="Notes">
  <rect height="2200" id="artboard" style="fill:white;opacity:1" width="3300" x="0" y="0"/>
  <line id="" style="fill:none;stroke:black;opacity:1;stroke-width:0.5;" x1="263" x2="3036" y1="292" y2="292"/>
  <text style="stroke:none;fill:black;font-family:-apple-system,&quot;SF Pro Display&quot;,&quot;SF Pro Text&quot;,Helvetica,sans-serif;font-weight:bold;" transform="matrix(1 0 0 1 263 322)">Weight/Scale Variations</text>
  <text style="stroke:none;fill:black;font-family:-apple-system,&quot;SF Pro Display&quot;,&quot;SF Pro Text&quot;,Helvetica,sans-serif;text-anchor:middle;" transform="matrix(1 0 0 1 559.711 322)">Ultralight</text>
  <text style="stroke:none;fill:black;font-family:-apple-system,&quot;SF Pro Display&quot;,&quot;SF Pro Text&quot;,Helvetica,sans-serif;text-anchor:middle;" transform="matrix(1 0 0 1 856.422 322)">Thin</text>
  <text style="stroke:none;fill:black;font-family:-apple-system,&quot;SF Pro Display&quot;,&quot;SF Pro Text&quot;,Helvetica,sans-serif;text-anchor:middle;" transform="matrix(1 0 0 1 1153.13 322)">Light</text>
  <text style="stroke:none;fill:black;font-family:-apple-system,&quot;SF Pro Display&quot;,&quot;SF Pro Text&quot;,Helvetica,sans-serif;text-anchor:middle;" transform="matrix(1 0 0 1 1449.84 322)">Regular</text>
  <text style="stroke:none;fill:black;font-family:-apple-system,&quot;SF Pro Display&quot;,&quot;SF Pro Text&quot;,Helvetica,sans-serif;text-anchor:middle;" transform="matrix(1 0 0 1 1746.56 322)">Medium</text>
  <text style="stroke:none;fill:black;font-family:-apple-system,&quot;SF Pro Display&quot;,&quot;SF Pro Text&quot;,Helvetica,sans-serif;text-anchor:middle;" transform="matrix(1 0 0 1 2043.27 322)">Semibold</text>
  <text style="stroke:none;fill:black;font-family:-apple-system,&quot;SF Pro Display&quot;,&quot;SF Pro Text&quot;,Helvetica,sans-serif;text-anchor:middle;" transform="matrix(1 0 0 1 2339.98 322)">Bold</text>
  <text style="stroke:none;fill:black;font-family:-apple-system,&quot;SF Pro Display&quot;,&quot;SF Pro Text&quot;,Helvetica,sans-serif;text-anchor:middle;" transform="matrix(1 0 0 1 2636.69 322)">Heavy</text>
  <text style="stroke:none;fill:black;font-family:-apple-system,&quot;SF Pro Display&quot;,&quot;SF Pro Text&quot;,Helvetica,sans-serif;text-anchor:middle;" transform="matrix(1 0 0 1 2933.4 322)">Black</text>
  <line id="" style="fill:none;stroke:black;opacity:1;stroke-width:0.5;" x1="263" x2="3036" y1="1903" y2="1903"/>
  <g id="" transform="matrix(1 0 0 1 263 1933)">
   <path d="M9.24805 0.830078C13.5547 0.830078 17.1387-2.74414 17.1387-7.05078C17.1387-11.3574 13.5449-14.9316 9.23828-14.9316C4.94141-14.9316 1.36719-11.3574 1.36719-7.05078C1.36719-2.74414 4.95117 0.830078 9.24805 0.830078ZM9.24805-0.654297C5.70312-0.654297 2.87109-3.49609 2.87109-7.05078C2.87109-10.6055 5.69336-13.4473 9.23828-13.4473C12.793-13.4473 15.6348-10.6055 15.6445-7.05078C15.6543-3.49609 12.8027-0.654297 9.24805-0.654297ZM9.22852-3.62305C9.69727-3.62305 9.9707-3.93555 9.9707-4.45312L9.9707-6.31836L12.002-6.31836C12.5-6.31836 12.832-6.57227 12.832-7.04102C12.832-7.51953 12.5195-7.7832 12.002-7.7832L9.9707-7.7832L9.9707-9.81445C9.9707-10.332 9.69727-10.6543 9.22852-10.6543C8.75977-10.6543 8.50586-10.3125 8.50586-9.81445L8.50586-7.7832L6.49414-7.7832C5.97656-7.7832 5.64453-7.51953 5.64453-7.04102C5.64453-6.57227 5.99609-6.31836 6.49414-6.31836L8.50586-6.31836L8.50586-4.45312C8.50586-3.95508 8.75977-3.62305 9.22852-3.62305Z"/>
  </g>
  <g id="" transform="matrix(1 0 0 1 281.506 1933)">
   <path d="M11.709 2.91016C17.1582 2.91016 21.6699-1.61133 21.6699-7.05078C21.6699-12.5 17.1484-17.0117 11.6992-17.0117C6.25977-17.0117 1.74805-12.5 1.74805-7.05078C1.74805-1.61133 6.26953 2.91016 11.709 2.91016ZM11.709 1.25C7.09961 1.25 3.41797-2.44141 3.41797-7.05078C3.41797-11.6602 7.08984-15.3516 11.6992-15.3516C16.3086-15.3516 20-11.6602 20.0098-7.05078C20.0195-2.44141 16.3184 1.25 11.709 1.25ZM11.6797-2.66602C12.207-2.66602 12.5098-3.01758 12.5098-3.59375L12.5098-6.23047L15.3223-6.23047C15.8691-6.23047 16.25-6.51367 16.25-7.03125C16.25-7.55859 15.8887-7.86133 15.3223-7.86133L12.5098-7.86133L12.5098-10.6836C12.5098-11.25 12.207-11.6113 11.6797-11.6113C11.1621-11.6113 10.8789-11.2305 10.8789-10.6836L10.8789-7.86133L8.07617-7.86133C7.50977-7.86133 7.13867-7.55859 7.13867-7.03125C7.13867-6.51367 7.5293-6.23047 8.07617-6.23047L10.8789-6.23047L10.8789-3.59375C10.8789-3.03711 11.1621-2.66602 11.6797-2.66602Z"/>
  </g>
  <g id="" transform="matrix(1 0 0 1 304.924 1933)">
   <path d="M14.9707 5.66406C21.9336 5.66406 27.6953-0.0976562 27.6953-7.05078C27.6953-14.0137 21.9238-19.7754 14.9609-19.7754C8.00781-19.7754 2.25586-14.0137 2.25586-7.05078C2.25586-0.0976562 8.01758 5.66406 14.9707 5.66406ZM14.9707 3.84766C8.93555 3.84766 4.08203-1.01562 4.08203-7.05078C4.08203-13.0957 8.92578-17.9492 14.9609-17.9492C21.0059-17.9492 25.8594-13.0957 25.8691-7.05078C25.8789-1.01562 21.0156 3.84766 14.9707 3.84766ZM14.9414-1.38672C15.5176-1.38672 15.8594-1.77734 15.8594-2.38281L15.8594-6.13281L19.7754-6.13281C20.3711-6.13281 20.7812-6.46484 20.7812-7.02148C20.7812-7.59766 20.3906-7.93945 19.7754-7.93945L15.8594-7.93945L15.8594-11.8652C15.8594-12.4805 15.5176-12.8711 14.9414-12.8711C14.375-12.8711 14.0527-12.4609 14.0527-11.8652L14.0527-7.93945L10.1465-7.93945C9.53125-7.93945 9.13086-7.59766 9.13086-7.02148C9.13086-6.46484 9.55078-6.13281 10.1465-6.13281L14.0527-6.13281L14.0527-2.38281C14.0527-1.79688 14.375-1.38672 14.9414-1.38672Z"/>
  </g>
  <text style="stroke:none;fill:black;font-family:-apple-system,&quot;SF Pro Display&quot;,&quot;SF Pro Text&quot;,Helvetica,sans-serif;font-weight:bold;" transform="matrix(1 0 0 1 263 1953)">Design Variations</text>
  <text style="stroke:none;fill:black;font-family:-apple-system,&quot;SF Pro Display&quot;,&quot;SF Pro Text&quot;,Helvetica,sans-serif;" transform="matrix(1 0 0 1 263 1971)">Symbols are supported in up to nine weights and three scales.</text>
  <text style="stroke:none;fill:black;font-family:-apple-system,&quot;SF Pro Display&quot;,&quot;SF Pro Text&quot;,Helvetica,sans-serif;" transform="matrix(1 0 0 1 263 1989)">For optimal layout with text and other symbols, vertically align</text>
  <text style="stroke:none;fill:black;font-family:-apple-system,&quot;SF Pro Display&quot;,&quot;SF Pro Text&quot;,Helvetica,sans-serif;" transform="matrix(1 0 0 1 263 2007)">symbols with the adjacent text.</text>
  <line id="" style="fill:none;stroke:#00AEEF;stroke-width:0.5;opacity:1.0;" x1="776" x2="776" y1="1919" y2="1933"/>
  <g id="" transform="matrix(1 0 0 1 776 1933)">
   <path d="M3.31055 0.126953C3.82812 0.126953 4.08203-0.0683594 4.26758-0.605469L5.52734-4.0625L11.2891-4.0625L12.5488-0.605469C12.7344-0.0683594 12.9883 0.126953 13.4961 0.126953C14.0137 0.126953 14.3457-0.185547 14.3457-0.673828C14.3457-0.839844 14.3164-0.986328 14.2383-1.20117L9.6582-13.3887C9.43359-13.9941 9.0332-14.2871 8.4082-14.2871C7.80273-14.2871 7.39258-13.9941 7.17773-13.3984L2.59766-1.19141C2.51953-0.976562 2.49023-0.830078 2.49023-0.664062C2.49023-0.175781 2.80273 0.126953 3.31055 0.126953ZM6.00586-5.53711L8.37891-12.1094L8.42773-12.1094L10.8008-5.53711Z"/>
  </g>
  <line id="" style="fill:none;stroke:#00AEEF;stroke-width:0.5;opacity:1.0;" x1="792.836" x2="792.836" y1="1919" y2="1933"/>
  <text style="stroke:none;fill:black;font-family:-apple-system,&quot;SF Pro Display&quot;,&quot;SF Pro Text&quot;,Helvetica,sans-serif;font-weight:bold;" transform="matrix(1 0 0 1 776 1953)">Margins</text>
  <text style="stroke:none;fill:black;font-family:-apple-system,&quot;SF Pro Display&quot;,&quot;SF Pro Text&quot;,Helvetica,sans-serif;" transform="matrix(1 0 0 1 776 1971)">Leading and trailing margins on the left and right side of each symbol</text>
  <text style="stroke:none;fill:black;font-family:-apple-system,&quot;SF Pro Display&quot;,&quot;SF Pro Text&quot;,Helvetica,sans-serif;" transform="matrix(1 0 0 1 776 1989)">can be adjusted by modifying the x-location of the margin guidelines.</text>
  <text style="stroke:none;fill:black;font-family:-apple-system,&quot;SF Pro Display&quot;,&quot;SF Pro Text&quot;,Helvetica,sans-serif;" transform="matrix(1 0 0 1 776 2007)">Modifications are automatically applied proportionally to all</text>
  <text style="stroke:none;fill:black;font-family:-apple-system,&quot;SF Pro Display&quot;,&quot;SF Pro Text&quot;,Helvetica,sans-serif;" transform="matrix(1 0 0 1 776 2025)">scales and weights.</text>
  <g id="" transform="matrix(1 0 0 1 1289 1933)">
   <path d="M2.8418 1.86523L4.54102 3.57422C5.40039 4.44336 6.38672 4.38477 7.31445 3.35938L17.4902-7.85156C17.7539-7.76367 18.0273-7.7832 18.3398-7.8418L19.4043-8.03711L20.0684-7.36328L20.0293-6.80664C19.9902-6.30859 20.1172-5.92773 20.6055-5.44922L21.3672-4.70703C21.8457-4.22852 22.4609-4.19922 22.9297-4.66797L25.8398-7.58789C26.3086-8.05664 26.2891-8.65234 25.8105-9.13086L25.0391-9.89258C24.5605-10.3711 24.1895-10.5273 23.7109-10.4883L23.1348-10.4395L22.4902-11.0742L22.7344-12.1973C22.8613-12.7637 22.7051-13.2031 22.1191-13.7891L19.9219-15.9766C16.582-19.2969 12.1484-19.2188 9.25781-16.3281C8.83789-15.918 8.80859-15.3418 9.04297-14.9512C9.27734-14.5898 9.73633-14.3555 10.3809-14.5215C11.8457-14.8633 13.3691-14.9219 14.7949-13.9844L14.209-12.5293C14.0137-12.0508 13.9844-11.6504 14.1113-11.2891L3.04688-0.898438C2.06055 0.0195312 1.98242 0.996094 2.8418 1.86523ZM10.752-15.957C13.1836-17.7344 16.4746-17.4316 18.7012-15.2051L21.1328-12.793C21.3672-12.5586 21.4062-12.373 21.3379-12.0312L21.0156-10.5469L22.5195-9.0625L23.5059-9.12109C23.7598-9.13086 23.8379-9.11133 24.0332-8.91602L24.6094-8.33984L22.168-5.89844L21.5918-6.47461C21.3965-6.66992 21.3672-6.74805 21.377-7.01172L21.4453-7.98828L19.9512-9.47266L18.4277-9.21875C18.1055-9.15039 17.959-9.17969 17.7148-9.41406L15.7129-11.416C15.459-11.6504 15.4297-11.8164 15.5859-12.1875L16.4648-14.2773C14.9023-15.7324 12.8711-16.3574 10.8398-15.7617C10.6836-15.7227 10.625-15.8496 10.752-15.957ZM5.27344 2.30469L4.10156 1.14258C3.63281 0.683594 3.74023 0.341797 4.14062-0.0195312L14.9512-10.1953L16.416-8.71094L6.42578 2.27539C6.07422 2.67578 5.74219 2.77344 5.27344 2.30469Z"/>
  </g>
  <text style="stroke:none;fill:black;font-family:-apple-system,&quot;SF Pro Display&quot;,&quot;SF Pro Text&quot;,Helvetica,sans-serif;font-weight:bold;" transform="matrix(1 0 0 1 1289 1953)">Exporting</text>
  <text style="stroke:none;fill:black;font-family:-apple-system,&quot;SF Pro Display&quot;,&quot;SF Pro Text&quot;,Helvetica,sans-serif;" transform="matrix(1 0 0 1 1289 1971)">Symbols should be outlined when exporting to ensure the</text>
  <text style="stroke:none;fill:black;font-family:-apple-system,&quot;SF Pro Display&quot;,&quot;SF Pro Text&quot;,Helvetica,sans-serif;" transform="matrix(1 0 0 1 1289 1989)">design is preserved when submitting to Xcode.</text>
  <text id="template-version" style="stroke:none;fill:black;font-family:-apple-system,&quot;SF Pro Display&quot;,&quot;SF Pro Text&quot;,Helvetica,sans-serif;text-anchor:end;" transform="matrix(1 0 0 1 3036 1933)">Template v.2.0</text>
  <text style="stroke:none;fill:black;font-family:-apple-system,&quot;SF Pro Display&quot;,&quot;SF Pro Text&quot;,Helvetica,sans-serif;text-anchor:end;" transform="matrix(1 0 0 1 3036 1951)">Requires Xcode 12 or greater</text>
  <text style="stroke:none;fill:black;font-family:-apple-system,&quot;SF Pro Display&quot;,&quot;SF Pro Text&quot;,Helvetica,sans-serif;text-anchor:end;" transform="matrix(1 0 0 1 3036 1969)">Generated from doc.text</text>
  <text style="stroke:none;fill:black;font-family:-apple-system,&quot;SF Pro Display&quot;,&quot;SF Pro Text&quot;,Helvetica,sans-serif;text-anchor:end;" transform="matrix(1 0 0 1 3036 1987)">Typeset at 100 points</text>
  <text style="stroke:none;fill:black;font-family:-apple-system,&quot;SF Pro Display&quot;,&quot;SF Pro Text&quot;,Helvetica,sans-serif;" transform="matrix(1 0 0 1 263 726)">Small</text>
  <text style="stroke:none;fill:black;font-family:-apple-system,&quot;SF Pro Display&quot;,&quot;SF Pro Text&quot;,Helvetica,sans-serif;" transform="matrix(1 0 0 1 263 1156)">Medium</text>
  <text style="stroke:none;fill:black;font-family:-apple-system,&quot;SF Pro Display&quot;,&quot;SF Pro Text&quot;,Helvetica,sans-serif;" transform="matrix(1 0 0 1 263 1586)">Large</text>
 </g>
 <g id="Guides">
  <g id="H-reference" style="fill:#27AAE1;stroke:none;" transform="matrix(1 0 0 1 339 696)">
   <path d="M0.976562 0L3.66211 0L12.9883-24.4629L45.752-24.4629L55.127 0L57.7637 0L30.6152-70.459L28.125-70.459ZM29.3457-67.1387L29.4434-67.1387L44.873-26.709L13.8672-26.709Z"/>
  </g>
  <line id="Baseline-S" style="fill:none;stroke:#27AAE1;opacity:1;stroke-width:0.5;" x1="263" x2="3036" y1="696" y2="696"/>
  <line id="Capline-S" style="fill:none;stroke:#27AAE1;opacity:1;stroke-width:0.5;" x1="263" x2="3036" y1="625.541" y2="625.541"/>
  <g id="H-reference" style="fill:#27AAE1;stroke:none;" transform="matrix(1 0 0 1 339 1126)">
   <path d="M0.976562 0L3.66211 0L12.9883-24.4629L45.752-24.4629L55.127 0L57.7637 0L30.6152-70.459L28.125-70.459ZM29.3457-67.1387L29.4434-67.1387L44.873-26.709L13.8672-26.709Z"/>
  </g>
  <line id="Baseline-M" style="fill:none;stroke:#27AAE1;opacity:1;stroke-width:0.5;" x1="263" x2="3036" y1="1126" y2="1126"/>
  <line id="Capline-M" style="fill:none;stroke:#27AAE1;opacity:1;stroke-width:0.5;" x1="263" x2="3036" y1="1055.54" y2="1055.54"/>
  <g id="H-reference" style="fill:#27AAE1;stroke:none;" transform="matrix(1 0 0 1 339 1556)">
   <path d="M0.976562 0L3.66211 0L12.9883-24.4629L45.752-24.4629L55.127 0L57.7637 0L30.6152-70.459L28.125-70.459ZM29.3457-67.1387L29.4434-67.1387L44.873-26.709L13.8672-26.709Z"/>
  </g>
  <line id="Baseline-L" style="fill:none;stroke:#27AAE1;opacity:1;stroke-width:0.5;" x1="263" x2="3036" y1="1556" y2="1556"/>
  <line id="Capline-L" style="fill:none;stroke:#27AAE1;opacity:1;stroke-width:0.5;" x1="263" x2="3036" y1="1485.54" y2="1485.54"/>
  <line id="left-margin" style="fill:none;stroke:#00AEEF;stroke-width:0.5;opacity:1.0;" x1="1396.33" x2="1396.33" y1="1030.79" y2="1150.12"/>
  <line id="right-margin" style="fill:none;stroke:#00AEEF;stroke-width:0.5;opacity:1.0;" x1="1503.36" x2="1503.36" y1="1030.79" y2="1150.12"/>
 </g>
 <g id="Symbols">
  <g id="Black-L" transform="matrix(1 0 0 1 2859.65 1556)">
   <path d="M39.8926 35.2539L107.617 35.2539C122.803 35.2539 131.445 26.5625 131.445 11.3281L131.445-45.3613C131.445-56.4453 129.688-62.207 122.559-69.3848L95.4102-96.7773C88.3789-103.809 82.4707-105.664 71.7285-105.664L39.8926-105.664C24.707-105.664 16.0645-96.9727 16.0645-81.7383L16.0645 11.3281C16.0645 26.5625 24.707 35.2539 39.8926 35.2539ZM42.7246 14.9902C38.1836 14.9902 36.3281 12.8418 36.3281 8.59375L36.3281-79.0039C36.3281-83.252 38.1836-85.4004 42.7246-85.4004L65.332-85.4004L65.332-58.1055C65.332-45.2637 71.2891-39.3066 84.1309-39.3066L111.23-39.3066L111.23 8.59375C111.23 12.8418 109.326 14.9902 104.785 14.9902ZM85.4492-55.2246C82.666-55.2246 81.25-56.6406 81.25-59.4727L81.25-84.4727L110.254-55.2246ZM92.7246-26.123L54.2969-26.123C51.6113-26.123 49.707-24.1699 49.707-21.6797C49.707-19.0918 51.6113-17.0898 54.2969-17.0898L92.7246-17.0898C95.3125-17.0898 97.2656-19.0918 97.2656-21.6797C97.2656-24.1699 95.3125-26.123 92.7246-26.123ZM92.7246-7.86133L54.2969-7.86133C51.6113-7.86133 49.707-5.85938 49.707-3.27148C49.707-0.78125 51.6113 1.17188 54.2969 1.17188L92.7246 1.17188C95.3125 1.17188 97.2656-0.78125 97.2656-3.27148C97.2656-5.85938 95.3125-7.86133 92.7246-7.86133Z"/>
  </g>
  <g id="Heavy-L" transform="matrix(1 0 0 1 2564.18 1556)">
   <path d="M38.7207 34.4727L106.348 34.4727C120.898 34.4727 128.955 26.3672 128.955 11.7188L128.955-45.3613C128.955-55.5664 127.393-60.6934 120.898-67.2363L91.6016-96.8262C85.2051-103.271 79.8828-104.932 70.1172-104.932L38.7207-104.932C24.1699-104.932 16.0645-96.7773 16.0645-82.1777L16.0645 11.7188C16.0645 26.3672 24.1211 34.4727 38.7207 34.4727ZM40.9668 16.9922C35.8887 16.9922 33.5938 14.4531 33.5938 9.61914L33.5938-80.0293C33.5938-84.8633 35.8887-87.4023 41.0156-87.4023L65.0879-87.4023L65.0879-57.7148C65.0879-46.1426 70.5078-40.7227 82.0801-40.7227L111.475-40.7227L111.475 9.61914C111.475 14.4531 109.18 16.9922 104.053 16.9922ZM83.3008-54.834C80.5176-54.834 79.1504-56.1523 79.1504-58.9844L79.1504-86.2793L110.303-54.834ZM92.6758-26.1719L51.7578-26.1719C49.2676-26.1719 47.4121-24.3164 47.4121-21.9727C47.4121-19.5801 49.2676-17.6758 51.7578-17.6758L92.6758-17.6758C95.0684-17.6758 96.9238-19.5801 96.9238-21.9727C96.9238-24.3164 95.0684-26.1719 92.6758-26.1719ZM92.6758-6.98242L51.7578-6.98242C49.2676-6.98242 47.4121-5.12695 47.4121-2.68555C47.4121-0.341797 49.2676 1.46484 51.7578 1.46484L92.6758 1.46484C95.0684 1.46484 96.9238-0.341797 96.9238-2.68555C96.9238-5.12695 95.0684-6.98242 92.6758-6.98242Z"/>
  </g>
  <g id="Bold-L" transform="matrix(1 0 0 1 2268.86 1556)">
   <path d="M37.4023 33.6426L104.883 33.6426C118.701 33.6426 126.172 26.123 126.172 12.207L126.172-45.3613C126.172-54.541 124.854-59.0332 119.043-64.8926L87.3535-96.9238C81.6895-102.637 76.9531-104.053 68.3594-104.053L37.4023-104.053C23.584-104.053 16.0645-96.5332 16.0645-82.6172L16.0645 12.207C16.0645 26.123 23.5352 33.6426 37.4023 33.6426ZM39.0137 19.1895C33.252 19.1895 30.5176 16.2598 30.5176 10.7422L30.5176-81.1523C30.5176-86.6211 33.252-89.6484 39.0625-89.6484L64.7949-89.6484L64.7949-57.2754C64.7949-47.1191 69.6777-42.334 79.7363-42.334L111.719-42.334L111.719 10.7422C111.719 16.2598 108.984 19.1895 103.223 19.1895ZM80.8594-54.3945C78.0762-54.3945 76.8066-55.6152 76.8066-58.3984L76.8066-88.2812L110.4-54.3945ZM92.5781-26.2207L48.9258-26.2207C46.582-26.2207 44.873-24.5117 44.873-22.3145C44.873-20.0684 46.582-18.3105 48.9258-18.3105L92.5781-18.3105C94.8242-18.3105 96.5332-20.0684 96.5332-22.3145C96.5332-24.5117 94.8242-26.2207 92.5781-26.2207ZM92.5781-6.05469L48.9258-6.05469C46.582-6.05469 44.873-4.29688 44.873-2.05078C44.873 0.146484 46.582 1.80664 48.9258 1.80664L92.5781 1.80664C94.8242 1.80664 96.5332 0.146484 96.5332-2.05078C96.5332-4.29688 94.8242-6.05469 92.5781-6.05469Z"/>
  </g>
  <g id="Semibold-L" transform="matrix(1 0 0 1 1973.1 1556)">
   <path d="M36.4746 33.0566L103.857 33.0566C117.188 33.0566 124.268 25.9277 124.268 12.5L124.268-45.3613C124.268-53.8574 123.096-57.8613 117.725-63.2812L84.4238-96.9727C79.248-102.246 74.9512-103.516 67.1387-103.516L36.4746-103.516C23.1445-103.516 16.0645-96.3867 16.0645-82.9102L16.0645 12.5C16.0645 25.9766 23.0957 33.0566 36.4746 33.0566ZM37.6465 20.752C31.4453 20.752 28.418 17.5293 28.418 11.5234L28.418-81.9336C28.418-87.8418 31.4453-91.1621 37.6953-91.1621L64.5996-91.1621L64.5996-56.9824C64.5996-47.8027 69.0918-43.4082 78.125-43.4082L111.914-43.4082L111.914 11.5234C111.914 17.5293 108.838 20.752 102.637 20.752ZM79.1992-54.0527C76.416-54.0527 75.2441-55.2734 75.2441-58.0566L75.2441-89.6973L110.449-54.0527ZM92.4805-26.2695L46.9727-26.2695C44.7266-26.2695 43.1152-24.6582 43.1152-22.5586C43.1152-20.459 44.7266-18.7988 46.9727-18.7988L92.4805-18.7988C94.6289-18.7988 96.2402-20.459 96.2402-22.5586C96.2402-24.6582 94.6289-26.2695 92.4805-26.2695ZM92.4805-5.41992L46.9727-5.41992C44.7266-5.41992 43.1152-3.75977 43.1152-1.61133C43.1152 0.439453 44.7266 2.05078 46.9727 2.05078L92.4805 2.05078C94.6289 2.05078 96.2402 0.439453 96.2402-1.61133C96.2402-3.75977 94.6289-5.41992 92.4805-5.41992Z"/>
  </g>
  <g id="Medium-L" transform="matrix(1 0 0 1 1677.12 1556)">
   <path d="M35.791 32.666L103.076 32.666C116.064 32.666 122.803 25.8301 122.803 12.7441L122.803-45.3613C122.803-53.3203 121.729-56.9824 116.748-62.0117L82.2266-97.0215C77.4414-101.904 73.4375-103.076 66.2109-103.076L35.791-103.076C22.8516-103.076 16.0645-96.2402 16.0645-83.1543L16.0645 12.7441C16.0645 25.8789 22.8027 32.666 35.791 32.666ZM36.6211 21.9238C30.127 21.9238 26.8066 18.457 26.8066 12.1094L26.8066-82.5684C26.8066-88.7695 30.127-92.334 36.6699-92.334L64.4531-92.334L64.4531-56.7383C64.4531-48.291 68.6035-44.2871 76.9043-44.2871L112.061-44.2871L112.061 12.1094C112.061 18.457 108.74 21.9238 102.197 21.9238ZM77.9297-53.8086C75.1465-53.8086 74.0234-54.9805 74.0234-57.7637L74.0234-90.7227L110.449-53.8086ZM92.4316-26.2695L45.459-26.2695C43.3594-26.2695 41.7969-24.7559 41.7969-22.7539C41.7969-20.7031 43.3594-19.1406 45.459-19.1406L92.4316-19.1406C94.5312-19.1406 96.0449-20.7031 96.0449-22.7539C96.0449-24.7559 94.5312-26.2695 92.4316-26.2695ZM92.4316-4.93164L45.459-4.93164C43.3594-4.93164 41.7969-3.32031 41.7969-1.26953C41.7969 0.732422 43.3594 2.24609 45.459 2.24609L92.4316 2.24609C94.5312 2.24609 96.0449 0.732422 96.0449-1.26953C96.0449-3.32031 94.5312-4.93164 92.4316-4.93164Z"/>
  </g>
  <g id="Regular-L" transform="matrix(1 0 0 1 1381.36 1556)">
   <path d="M34.8633 32.0801L102.1 32.0801C114.6 32.0801 120.898 25.6348 120.898 13.0859L120.898-45.3613C120.898-52.6367 120.02-55.8105 115.479-60.4004L79.2969-97.0703C75-101.514 71.4844-102.49 64.9902-102.49L34.8633-102.49C22.4609-102.49 16.0645-96.0938 16.0645-83.4961L16.0645 13.0859C16.0645 25.6836 22.3633 32.0801 34.8633 32.0801ZM35.3027 23.4375C28.3203 23.4375 24.707 19.7266 24.707 12.8906L24.707-83.3008C24.707-89.9902 28.3203-93.8477 35.3516-93.8477L64.2578-93.8477L64.2578-56.4453C64.2578-48.9746 68.0176-45.3613 75.3418-45.3613L112.256-45.3613L112.256 12.8906C112.256 19.7266 108.643 23.4375 101.611 23.4375ZM76.2695-53.5156C73.5352-53.5156 72.4121-54.5898 72.4121-57.373L72.4121-92.1387L110.547-53.5156ZM92.3828-26.3184L43.5547-26.3184C41.5527-26.3184 40.0879-24.8535 40.0879-22.998C40.0879-21.0938 41.5527-19.5801 43.5547-19.5801L92.3828-19.5801C94.3359-19.5801 95.8008-21.0938 95.8008-22.998C95.8008-24.8535 94.3359-26.3184 92.3828-26.3184ZM92.3828-4.29688L43.5547-4.29688C41.5527-4.29688 40.0879-2.7832 40.0879-0.830078C40.0879 1.02539 41.5527 2.49023 43.5547 2.49023L92.3828 2.49023C94.3359 2.49023 95.8008 1.02539 95.8008-0.830078C95.8008-2.7832 94.3359-4.29688 92.3828-4.29688Z"/>
  </g>
  <g id="Light-L" transform="matrix(1 0 0 1 1085.43 1556)">
   <path d="M33.9355 31.7871L101.514 31.7871C113.281 31.7871 119.336 25.6348 119.336 13.7695L119.336-46.2891C119.336-52.4414 118.506-55.1758 114.697-59.0332L76.5625-97.4609C72.9004-101.172 69.9219-102.1 64.3066-102.1L33.9355-102.1C22.2168-102.1 16.0645-95.9961 16.0645-84.1309L16.0645 13.7695C16.0645 25.6836 22.1191 31.7871 33.9355 31.7871ZM34.2285 25.1465C26.6113 25.1465 22.7051 21.1426 22.7051 13.623L22.7051-83.9844C22.7051-91.2598 26.6113-95.5078 34.2773-95.5078L64.4531-95.5078L64.4531-56.8848C64.4531-50.0488 67.9199-46.9238 74.4629-46.9238L112.744-46.9238L112.744 13.623C112.744 21.1426 108.789 25.1465 101.172 25.1465ZM75.0977-53.2227C72.0215-53.2227 70.752-54.4434 70.752-57.5684L70.752-94.0918L111.328-53.2227ZM92.627-25.6836L42.334-25.6836C40.6738-25.6836 39.502-24.5117 39.502-22.998C39.502-21.4844 40.6738-20.2637 42.334-20.2637L92.627-20.2637C94.1895-20.2637 95.4102-21.4844 95.4102-22.998C95.4102-24.5117 94.1895-25.6836 92.627-25.6836ZM92.627-3.51562L42.334-3.51562C40.6738-3.51562 39.502-2.29492 39.502-0.78125C39.502 0.732422 40.6738 1.9043 42.334 1.9043L92.627 1.9043C94.1895 1.9043 95.4102 0.732422 95.4102-0.78125C95.4102-2.29492 94.1895-3.51562 92.627-3.51562Z"/>
  </g>
  <g id="Thin-L" transform="matrix(1 0 0 1 789.747 1556)">
   <path d="M32.666 31.3477L100.732 31.3477C111.572 31.3477 117.285 25.6348 117.285 14.7461L117.285-47.5098C117.285-52.1484 116.455-54.2969 113.672-57.1777L72.9004-97.9492C70.1172-100.781 67.9199-101.611 63.3789-101.611L32.666-101.611C21.9238-101.611 16.0645-95.8496 16.0645-84.9609L16.0645 14.7461C16.0645 25.6348 21.7773 31.3477 32.666 31.3477ZM32.8613 27.4414C24.3652 27.4414 19.9707 22.998 19.9707 14.5996L19.9707-84.8145C19.9707-92.9688 24.3652-97.6562 32.8613-97.6562L64.7461-97.6562L64.7461-57.5195C64.7461-51.5137 67.7246-48.9746 73.291-48.9746L113.379-48.9746L113.379 14.5996C113.379 22.998 108.984 27.4414 100.537 27.4414ZM73.584-52.832C69.9707-52.832 68.6035-54.248 68.6035-57.8125L68.6035-96.6797L112.354-52.832ZM92.9199-24.8535L40.7227-24.8535C39.5996-24.8535 38.7695-24.0723 38.7695-23.0469C38.7695-22.0215 39.5996-21.1914 40.7227-21.1914L92.9199-21.1914C94.043-21.1914 94.873-22.0215 94.873-23.0469C94.873-24.0723 94.043-24.8535 92.9199-24.8535ZM92.9199-2.53906L40.7227-2.53906C39.5996-2.53906 38.7695-1.70898 38.7695-0.732422C38.7695 0.292969 39.5996 1.12305 40.7227 1.12305L92.9199 1.12305C94.043 1.12305 94.873 0.292969 94.873-0.732422C94.873-1.70898 94.043-2.53906 92.9199-2.53906Z"/>
  </g>
  <g id="Ultralight-L" transform="matrix(1 0 0 1 493.549 1556)">
   <path d="M31.9824 31.1523L100.293 31.1523C110.693 31.1523 116.26 25.5859 116.26 15.2344L116.26-48.0957C116.26-52.002 115.43-53.8574 113.135-56.2012L71.0449-98.1934C68.7012-100.537 66.8945-101.318 62.8906-101.318L31.9824-101.318C21.7773-101.318 16.0645-95.8008 16.0645-85.4004L16.0645 15.2344C16.0645 25.5859 21.6309 31.1523 31.9824 31.1523ZM32.1289 28.5645C23.2422 28.5645 18.6035 23.9746 18.6035 15.0879L18.6035-85.2539C18.6035-93.8477 23.2422-98.7793 32.1289-98.7793L64.8438-98.7793L64.8438-57.8613C64.8438-52.2949 67.6758-50 72.7051-50L113.672-50L113.672 15.0879C113.672 23.9746 109.082 28.5645 100.195 28.5645ZM72.8027-52.6367C68.9453-52.6367 67.4805-54.1016 67.4805-57.9102L67.4805-97.998L112.891-52.6367ZM93.1152-24.4629L39.8926-24.4629C39.0137-24.4629 38.3789-23.8281 38.3789-23.0469C38.3789-22.3145 39.0137-21.6797 39.8926-21.6797L93.1152-21.6797C93.9453-21.6797 94.5801-22.3145 94.5801-23.0469C94.5801-23.8281 93.9453-24.4629 93.1152-24.4629ZM93.1152-2.05078L39.8926-2.05078C39.0137-2.05078 38.3789-1.41602 38.3789-0.683594C38.3789 0.0976562 39.0137 0.732422 39.8926 0.732422L93.1152 0.732422C93.9453 0.732422 94.5801 0.0976562 94.5801-0.683594C94.5801-1.41602 93.9453-2.05078 93.1152-2.05078Z"/>
  </g>
  <g id="Black-M" transform="matrix(1 0 0 1 2874.98 1126)">
   <path d="M31.9824 20.2148L84.8633 20.2148C97.1191 20.2148 104.395 12.9395 104.395 0.683594L104.395-43.6035C104.395-52.7832 102.734-57.8125 96.7773-63.7695L77.5879-83.0078C71.582-88.9648 66.6016-90.625 57.3242-90.625L31.9824-90.625C19.7266-90.625 12.4512-83.3496 12.4512-71.0938L12.4512 0.683594C12.4512 12.9395 19.7266 20.2148 31.9824 20.2148ZM34.9121 1.9043C31.8359 1.9043 30.7617 0.585938 30.7617-2.24609L30.7617-68.1641C30.7617-70.9961 31.8359-72.3145 34.9121-72.3145L51.0742-72.3145L51.0742-53.7598C51.0742-42.4316 56.2012-37.3047 67.5293-37.3047L86.1328-37.3047L86.1328-2.24609C86.1328 0.585938 85.0098 1.9043 81.9336 1.9043ZM68.5547-51.123C66.1621-51.123 64.8926-52.3926 64.8926-54.7852L64.8926-71.9727L85.791-51.123ZM72.1191-27.7344L44.8242-27.7344C42.7734-27.7344 41.3086-26.2695 41.3086-24.3164C41.3086-22.3145 42.7734-20.752 44.8242-20.752L72.1191-20.752C74.1211-20.752 75.5859-22.3145 75.5859-24.3164C75.5859-26.2695 74.1211-27.7344 72.1191-27.7344ZM72.1191-14.7461L44.8242-14.7461C42.7734-14.7461 41.3086-13.1836 41.3086-11.1816C41.3086-9.27734 42.7734-7.76367 44.8242-7.76367L72.1191-7.76367C74.1211-7.76367 75.5859-9.27734 75.5859-11.1816C75.5859-13.1836 74.1211-14.7461 72.1191-14.7461Z"/>
  </g>
  <g id="Heavy-M" transform="matrix(1 0 0 1 2579.41 1126)">
   <path d="M30.957 19.4824L83.5938 19.4824C95.3125 19.4824 102.1 12.6953 102.1 0.927734L102.1-43.3594C102.1-51.8555 100.635-56.3477 95.166-61.8652L74.1211-83.0078C68.7012-88.4277 64.1602-89.8926 55.8105-89.8926L30.957-89.8926C19.1895-89.8926 12.4512-83.1055 12.4512-71.3379L12.4512 0.927734C12.4512 12.7441 19.1895 19.4824 30.957 19.4824ZM33.252 3.66211C29.7363 3.66211 28.2715 2.00195 28.2715-1.31836L28.2715-69.0918C28.2715-72.3633 29.7363-74.0723 33.3008-74.0723L50.7324-74.0723L50.7324-53.2227C50.7324-43.1152 55.4199-38.4277 65.4785-38.4277L86.2793-38.4277L86.2793-1.31836C86.2793 2.00195 84.8145 3.66211 81.25 3.66211ZM66.4551-50.7324C64.209-50.7324 63.0371-51.9043 63.0371-54.1992L63.0371-73.4375L85.6445-50.7324ZM71.9727-27.9785L42.3828-27.9785C40.3809-27.9785 38.9648-26.5137 38.9648-24.6582C38.9648-22.7051 40.3809-21.2402 42.3828-21.2402L71.9727-21.2402C73.877-21.2402 75.3418-22.7051 75.3418-24.6582C75.3418-26.5137 73.877-27.9785 71.9727-27.9785ZM71.9727-14.0137L42.3828-14.0137C40.3809-14.0137 38.9648-12.5 38.9648-10.5957C38.9648-8.74023 40.3809-7.27539 42.3828-7.27539L71.9727-7.27539C73.877-7.27539 75.3418-8.74023 75.3418-10.5957C75.3418-12.5 73.877-14.0137 71.9727-14.0137Z"/>
  </g>
  <g id="Bold-M" transform="matrix(1 0 0 1 2284 1126)">
   <path d="M29.7852 18.6523L82.1777 18.6523C93.3105 18.6523 99.5117 12.4512 99.5117 1.2207L99.5117-43.0664C99.5117-50.8301 98.291-54.6875 93.3594-59.668L70.3125-83.0078C65.4785-87.8418 61.4258-89.1113 54.0527-89.1113L29.7852-89.1113C18.6035-89.1113 12.4512-82.8613 12.4512-71.6797L12.4512 1.2207C12.4512 12.5 18.6035 18.6523 29.7852 18.6523ZM31.4453 5.56641C27.3926 5.56641 25.5371 3.56445 25.5371-0.292969L25.5371-70.1172C25.5371-73.9746 27.3926-76.0254 31.4453-76.0254L50.3906-76.0254L50.3906-52.5879C50.3906-43.8477 54.4922-39.7461 63.2324-39.7461L86.4258-39.7461L86.4258-0.292969C86.4258 3.56445 84.5703 5.56641 80.4688 5.56641ZM64.1602-50.3418C62.0117-50.3418 60.9863-51.3672 60.9863-53.5156L60.9863-75.0977L85.498-50.3418ZM71.7773-28.2227L39.6484-28.2227C37.7441-28.2227 36.3281-26.8066 36.3281-25.0488C36.3281-23.1934 37.7441-21.7285 39.6484-21.7285L71.7773-21.7285C73.6328-21.7285 75.0488-23.1934 75.0488-25.0488C75.0488-26.8066 73.6328-28.2227 71.7773-28.2227ZM71.7773-13.1836L39.6484-13.1836C37.7441-13.1836 36.3281-11.7676 36.3281-9.91211C36.3281-8.10547 37.7441-6.68945 39.6484-6.68945L71.7773-6.68945C73.6328-6.68945 75.0488-8.10547 75.0488-9.91211C75.0488-11.7676 73.6328-13.1836 71.7773-13.1836Z"/>
  </g>
  <g id="Semibold-M" transform="matrix(1 0 0 1 1988.19 1126)">
   <path d="M29.0039 18.1152L81.1523 18.1152C91.9434 18.1152 97.7051 12.2559 97.7051 1.41602L97.7051-42.8711C97.7051-50.0977 96.6797-53.5645 92.1387-58.1543L67.6758-82.959C63.2324-87.4512 59.5215-88.5254 52.8809-88.5254L29.0039-88.5254C18.2129-88.5254 12.4512-82.7148 12.4512-71.875L12.4512 1.41602C12.4512 12.3047 18.2129 18.1152 29.0039 18.1152ZM30.1758 6.93359C25.7324 6.93359 23.6328 4.63867 23.6328 0.439453L23.6328-70.8496C23.6328-75.0488 25.7324-77.3438 30.1758-77.3438L50.1465-77.3438L50.1465-52.1484C50.1465-44.3359 53.9062-40.625 61.6211-40.625L86.5234-40.625L86.5234 0.439453C86.5234 4.63867 84.375 6.93359 79.9805 6.93359ZM62.5488-50.0488C60.498-50.0488 59.5703-50.9766 59.5703-53.0762L59.5703-76.2207L85.4004-50.0488ZM71.6797-28.3691L37.7441-28.3691C35.8887-28.3691 34.5215-27.0508 34.5215-25.293C34.5215-23.4863 35.8887-22.0703 37.7441-22.0703L71.6797-22.0703C73.4863-22.0703 74.8535-23.4863 74.8535-25.293C74.8535-27.0508 73.4863-28.3691 71.6797-28.3691ZM71.6797-12.6465L37.7441-12.6465C35.8887-12.6465 34.5215-11.2305 34.5215-9.42383C34.5215-7.66602 35.8887-6.34766 37.7441-6.34766L71.6797-6.34766C73.4863-6.34766 74.8535-7.66602 74.8535-9.42383C74.8535-11.2305 73.4863-12.6465 71.6797-12.6465Z"/>
  </g>
  <g id="Medium-M" transform="matrix(1 0 0 1 1692.16 1126)">
   <path d="M28.3691 17.6758L80.4199 17.6758C90.918 17.6758 96.3379 12.1582 96.3379 1.61133L96.3379-42.7246C96.3379-49.5605 95.459-52.6855 91.2109-57.0312L65.6738-82.959C61.5234-87.1582 58.1055-88.1348 51.9531-88.1348L28.3691-88.1348C17.9199-88.1348 12.4512-82.6172 12.4512-72.0215L12.4512 1.61133C12.4512 12.1582 17.9199 17.6758 28.3691 17.6758ZM29.1992 7.91016C24.5117 7.91016 22.168 5.46875 22.168 0.976562L22.168-71.4355C22.168-75.8789 24.5117-78.3691 29.248-78.3691L49.9512-78.3691L49.9512-51.8066C49.9512-44.7266 53.418-41.3086 60.4492-41.3086L86.6211-41.3086L86.6211 0.976562C86.6211 5.46875 84.2773 7.91016 79.541 7.91016ZM61.377-49.8535C59.3262-49.8535 58.4473-50.7324 58.4473-52.7344L58.4473-77.0996L85.3027-49.8535ZM71.582-28.5156L36.3281-28.5156C34.4727-28.5156 33.1543-27.1973 33.1543-25.4883C33.1543-23.7305 34.4727-22.3633 36.3281-22.3633L71.582-22.3633C73.3398-22.3633 74.6582-23.7305 74.6582-25.4883C74.6582-27.1973 73.3398-28.5156 71.582-28.5156ZM71.582-12.207L36.3281-12.207C34.4727-12.207 33.1543-10.8398 33.1543-9.08203C33.1543-7.37305 34.4727-6.05469 36.3281-6.05469L71.582-6.05469C73.3398-6.05469 74.6582-7.37305 74.6582-9.08203C74.6582-10.8398 73.3398-12.207 71.582-12.207Z"/>
  </g>
  <g id="Regular-M" transform="matrix(1 0 0 1 1396.33 1126)">
   <path d="M27.5879 17.0898L79.4434 17.0898C89.5508 17.0898 94.5801 11.9629 94.5801 1.80664L94.5801-42.5293C94.5801-48.8281 93.8477-51.5625 89.9414-55.5664L63.0371-82.959C59.3262-86.7676 56.25-87.5977 50.7812-87.5977L27.5879-87.5977C17.5293-87.5977 12.4512-82.4219 12.4512-72.2656L12.4512 1.80664C12.4512 12.0117 17.4805 17.0898 27.5879 17.0898ZM27.9297 9.22852C22.9004 9.22852 20.3125 6.54297 20.3125 1.66016L20.3125-72.1191C20.3125-76.9531 22.9004-79.7363 27.9785-79.7363L49.707-79.7363L49.707-51.3672C49.707-45.2148 52.7832-42.1875 58.8867-42.1875L86.7188-42.1875L86.7188 1.66016C86.7188 6.54297 84.1309 9.22852 79.0527 9.22852ZM59.7656-49.5605C57.8125-49.5605 57.0801-50.3418 57.0801-52.2949L57.0801-78.2227L85.2051-49.5605ZM71.4844-28.7109L34.4238-28.7109C32.666-28.7109 31.3477-27.3926 31.3477-25.7324C31.3477-24.0234 32.666-22.7051 34.4238-22.7051L71.4844-22.7051C73.1934-22.7051 74.4629-24.0234 74.4629-25.7324C74.4629-27.3926 73.1934-28.7109 71.4844-28.7109ZM71.4844-11.6699L34.4238-11.6699C32.666-11.6699 31.3477-10.3027 31.3477-8.59375C31.3477-6.93359 32.666-5.66406 34.4238-5.66406L71.4844-5.66406C73.1934-5.66406 74.4629-6.93359 74.4629-8.59375C74.4629-10.3027 73.1934-11.6699 71.4844-11.6699Z"/>
  </g>
  <g id="Light-M" transform="matrix(1 0 0 1 1100.33 1126)">
   <path d="M26.709 16.8457L78.9062 16.8457C88.3789 16.8457 93.1641 11.9629 93.1641 2.44141L93.1641-43.3594C93.1641-48.6328 92.4805-50.9766 89.2578-54.2969L60.5469-83.3008C57.4219-86.4746 54.8828-87.207 50.1465-87.207L26.709-87.207C17.334-87.207 12.4512-82.373 12.4512-72.8516L12.4512 2.44141C12.4512 11.9629 17.2852 16.8457 26.709 16.8457ZM27.002 10.791C21.3867 10.791 18.5059 7.8125 18.5059 2.29492L18.5059-72.7051C18.5059-78.0762 21.3867-81.2012 27.0508-81.2012L49.8535-81.2012L49.8535-51.8066C49.8535-46.2402 52.6855-43.6035 58.1055-43.6035L87.1582-43.6035L87.1582 2.29492C87.1582 7.8125 84.2285 10.791 78.6133 10.791ZM58.7402-49.3164C56.4941-49.3164 55.5664-50.1953 55.5664-52.4414L55.5664-79.9805L85.9375-49.3164ZM71.6797-28.125L33.3496-28.125C31.9336-28.125 30.8594-27.0996 30.8594-25.7324C30.8594-24.4141 31.9336-23.3398 33.3496-23.3398L71.6797-23.3398C73.0469-23.3398 74.1211-24.4141 74.1211-25.7324C74.1211-27.0996 73.0469-28.125 71.6797-28.125ZM71.6797-10.9863L33.3496-10.9863C31.9336-10.9863 30.8594-9.91211 30.8594-8.54492C30.8594-7.22656 31.9336-6.20117 33.3496-6.20117L71.6797-6.20117C73.0469-6.20117 74.1211-7.22656 74.1211-8.54492C74.1211-9.91211 73.0469-10.9863 71.6797-10.9863Z"/>
  </g>
  <g id="Thin-M" transform="matrix(1 0 0 1 804.518 1126)">
   <path d="M25.5859 16.4551L78.2227 16.4551C86.8164 16.4551 91.3574 11.9141 91.3574 3.27148L91.3574-44.4824C91.3574-48.3887 90.7227-50.1953 88.3301-52.6367L57.3242-83.7402C54.9316-86.084 53.0762-86.7676 49.3164-86.7676L25.5859-86.7676C17.041-86.7676 12.4512-82.2266 12.4512-73.584L12.4512 3.27148C12.4512 11.9629 16.9434 16.4551 25.5859 16.4551ZM25.7324 12.8418C19.3848 12.8418 16.0645 9.52148 16.0645 3.17383L16.0645-73.4863C16.0645-79.5898 19.3848-83.1543 25.7812-83.1543L50.0977-83.1543L50.0977-52.3926C50.0977-47.5586 52.5391-45.4102 57.0801-45.4102L87.7441-45.4102L87.7441 3.17383C87.7441 9.52148 84.4238 12.8418 78.0273 12.8418ZM57.373-48.9258C54.6875-48.9258 53.6133-50 53.6133-52.6855L53.6133-82.2754L86.8652-48.9258ZM71.9727-27.3926L31.8848-27.3926C30.9082-27.3926 30.2246-26.6602 30.2246-25.7812C30.2246-24.8535 30.9082-24.1699 31.8848-24.1699L71.9727-24.1699C72.9004-24.1699 73.6328-24.8535 73.6328-25.7812C73.6328-26.6602 72.9004-27.3926 71.9727-27.3926ZM71.9727-10.1074L31.8848-10.1074C30.9082-10.1074 30.2246-9.375 30.2246-8.49609C30.2246-7.61719 30.9082-6.88477 31.8848-6.88477L71.9727-6.88477C72.9004-6.88477 73.6328-7.61719 73.6328-8.49609C73.6328-9.375 72.9004-10.1074 71.9727-10.1074Z"/>
  </g>
  <g id="Ultralight-M" transform="matrix(1 0 0 1 508.295 1126)">
   <path d="M25 16.2598L77.8809 16.2598C86.0352 16.2598 90.3809 11.9141 90.3809 3.71094L90.3809-45.0195C90.3809-48.291 89.7949-49.8047 87.8418-51.7578L55.6152-83.9355C53.6621-85.9375 52.1484-86.5234 48.877-86.5234L25-86.5234C16.9434-86.5234 12.4512-82.1777 12.4512-73.9746L12.4512 3.71094C12.4512 11.9141 16.7969 16.2598 25 16.2598ZM25.0977 13.8672C18.3594 13.8672 14.8438 10.3516 14.8438 3.61328L14.8438-73.877C14.8438-80.3711 18.3594-84.1309 25.0977-84.1309L50.2441-84.1309L50.2441-52.6855C50.2441-48.1934 52.4414-46.3867 56.543-46.3867L87.9883-46.3867L87.9883 3.61328C87.9883 10.3516 84.5215 13.8672 77.7344 13.8672ZM56.6406-48.7793C53.7598-48.7793 52.6367-49.9023 52.6367-52.7832L52.6367-83.4961L87.3535-48.7793ZM72.1191-27.002L31.1523-27.002C30.4199-27.002 29.8828-26.4648 29.8828-25.7812C29.8828-25.0977 30.4199-24.5605 31.1523-24.5605L72.1191-24.5605C72.8516-24.5605 73.3887-25.0977 73.3887-25.7812C73.3887-26.4648 72.8516-27.002 72.1191-27.002ZM72.1191-9.66797L31.1523-9.66797C30.4199-9.66797 29.8828-9.13086 29.8828-8.44727C29.8828-7.8125 30.4199-7.22656 31.1523-7.22656L72.1191-7.22656C72.8516-7.22656 73.3887-7.8125 73.3887-8.44727C73.3887-9.13086 72.8516-9.66797 72.1191-9.66797Z"/>
  </g>
  <g id="Black-S" transform="matrix(1 0 0 1 2887.7 696)">
   <path d="M25 8.1543L66.4062 8.1543C75.9766 8.1543 81.6406 2.49023 81.6406-7.08008L81.6406-41.748C81.6406-48.9258 80.3711-52.832 75.7324-57.4707L60.5469-72.6562C55.9082-77.2949 52.002-78.5645 44.8242-78.5645L25-78.5645C15.4297-78.5645 9.76562-72.9004 9.76562-63.3301L9.76562-7.08008C9.76562 2.49023 15.4297 8.1543 25 8.1543ZM27.2461-6.00586C24.8047-6.00586 23.9258-7.08008 23.9258-9.32617L23.9258-61.084C23.9258-63.3301 24.8047-64.4043 27.2461-64.4043L39.9902-64.4043L39.9902-49.707C39.9902-40.918 43.9941-36.9141 52.7832-36.9141L67.4805-36.9141L67.4805-9.32617C67.4805-7.08008 66.6016-6.00586 64.1602-6.00586ZM53.5645-47.6562C51.709-47.6562 50.7324-48.6328 50.7324-50.4883L50.7324-64.1113L67.1875-47.6562ZM56.4941-29.3945L34.9609-29.3945C33.3496-29.3945 32.1777-28.2227 32.1777-26.709C32.1777-25.1465 33.3496-23.9258 34.9609-23.9258L56.4941-23.9258C58.0566-23.9258 59.2285-25.1465 59.2285-26.709C59.2285-28.2227 58.0566-29.3945 56.4941-29.3945ZM56.4941-19.1406L34.9609-19.1406C33.3496-19.1406 32.1777-17.9199 32.1777-16.3574C32.1777-14.8438 33.3496-13.6719 34.9609-13.6719L56.4941-13.6719C58.0566-13.6719 59.2285-14.8438 59.2285-16.3574C59.2285-17.9199 58.0566-19.1406 56.4941-19.1406Z"/>
  </g>
  <g id="Heavy-S" transform="matrix(1 0 0 1 2591.79 696)">
   <path d="M24.3164 7.61719L65.4785 7.61719C74.7559 7.61719 80.0293 2.29492 80.0293-6.93359L80.0293-41.4551C80.0293-48.2422 78.9062-51.7578 74.5605-56.1035L58.2031-72.6074C53.9062-76.9043 50.293-78.0762 43.7012-78.0762L24.3164-78.0762C15.0391-78.0762 9.76562-72.7539 9.76562-63.4766L9.76562-6.93359C9.76562 2.34375 15.0391 7.61719 24.3164 7.61719ZM26.0742-4.83398C23.3887-4.83398 22.2656-6.15234 22.2656-8.69141L22.2656-61.7188C22.2656-64.3066 23.3887-65.5762 26.123-65.5762L39.6973-65.5762L39.6973-49.2188C39.6973-41.3086 43.4082-37.6465 51.3184-37.6465L67.5293-37.6465L67.5293-8.69141C67.5293-6.15234 66.4062-4.83398 63.6719-4.83398ZM52.0996-47.4121C50.3418-47.4121 49.4629-48.291 49.4629-50L49.4629-65.0391L66.9922-47.4121ZM56.3477-29.6387L33.2031-29.6387C31.5918-29.6387 30.4199-28.4668 30.4199-26.9531C30.4199-25.3906 31.5918-24.2188 33.2031-24.2188L56.3477-24.2188C57.9102-24.2188 59.082-25.3906 59.082-26.9531C59.082-28.4668 57.9102-29.6387 56.3477-29.6387ZM56.3477-18.6523L33.2031-18.6523C31.5918-18.6523 30.4199-17.4316 30.4199-15.918C30.4199-14.4043 31.5918-13.2324 33.2031-13.2324L56.3477-13.2324C57.9102-13.2324 59.082-14.4043 59.082-15.918C59.082-17.4316 57.9102-18.6523 56.3477-18.6523Z"/>
  </g>
  <g id="Bold-S" transform="matrix(1 0 0 1 2295.98 696)">
   <path d="M23.5352 7.03125L64.4531 7.03125C73.3398 7.03125 78.2227 2.09961 78.2227-6.78711L78.2227-41.1621C78.2227-47.4609 77.2949-50.5859 73.291-54.6387L55.5664-72.5586C51.6602-76.5137 48.3887-77.4902 42.4805-77.4902L23.5352-77.4902C14.6484-77.4902 9.76562-72.5586 9.76562-63.623L9.76562-6.78711C9.76562 2.14844 14.6484 7.03125 23.5352 7.03125ZM24.8047-3.56445C21.7773-3.56445 20.3613-5.07812 20.3613-7.95898L20.3613-62.4512C20.3613-65.332 21.7773-66.8945 24.8047-66.8945L39.4043-66.8945L39.4043-48.6816C39.4043-41.748 42.7246-38.4766 49.6582-38.4766L67.627-38.4766L67.627-7.95898C67.627-5.07812 66.2109-3.56445 63.1348-3.56445ZM50.4395-47.1191C48.8281-47.1191 48.0957-47.9004 48.0957-49.5117L48.0957-66.0645L66.7969-47.1191ZM56.2012-29.8828L31.25-29.8828C29.6387-29.8828 28.5156-28.7598 28.5156-27.2461C28.5156-25.7324 29.6387-24.5117 31.25-24.5117L56.2012-24.5117C57.7148-24.5117 58.8867-25.7324 58.8867-27.2461C58.8867-28.7598 57.7148-29.8828 56.2012-29.8828ZM56.2012-18.1152L31.25-18.1152C29.6387-18.1152 28.5156-16.8945 28.5156-15.3809C28.5156-13.8672 29.6387-12.7441 31.25-12.7441L56.2012-12.7441C57.7148-12.7441 58.8867-13.8672 58.8867-15.3809C58.8867-16.8945 57.7148-18.1152 56.2012-18.1152Z"/>
  </g>
  <g id="Semibold-S" transform="matrix(1 0 0 1 1999.91 696)">
   <path d="M22.998 6.64062L63.7695 6.64062C72.4121 6.64062 76.9531 2.00195 76.9531-6.68945L76.9531-40.918C76.9531-46.9238 76.1719-49.7559 72.4121-53.5645L53.7598-72.5098C50.0977-76.2207 47.0703-77.0996 41.6016-77.0996L22.998-77.0996C14.3555-77.0996 9.76562-72.4609 9.76562-63.7695L9.76562-6.68945C9.76562 2.00195 14.3555 6.64062 22.998 6.64062ZM23.9258-2.68555C20.6543-2.68555 19.0918-4.39453 19.0918-7.4707L19.0918-62.9883C19.0918-66.0645 20.6543-67.7734 23.9258-67.7734L39.209-67.7734L39.209-48.3398C39.209-42.041 42.2363-39.0137 48.4863-39.0137L67.6758-39.0137L67.6758-7.4707C67.6758-4.39453 66.0645-2.68555 62.793-2.68555ZM49.3164-46.9238C47.8027-46.9238 47.1191-47.6074 47.1191-49.1211L47.1191-66.7969L66.6504-46.9238ZM56.1035-30.0781L29.8828-30.0781C28.3203-30.0781 27.1484-28.9062 27.1484-27.4414C27.1484-25.9277 28.3203-24.707 29.8828-24.707L56.1035-24.707C57.6172-24.707 58.7402-25.9277 58.7402-27.4414C58.7402-28.9062 57.6172-30.0781 56.1035-30.0781ZM56.1035-17.7246L29.8828-17.7246C28.3203-17.7246 27.1484-16.5527 27.1484-15.0391C27.1484-13.5254 28.3203-12.4023 29.8828-12.4023L56.1035-12.4023C57.6172-12.4023 58.7402-13.5254 58.7402-15.0391C58.7402-16.5527 57.6172-17.7246 56.1035-17.7246Z"/>
  </g>
  <g id="Medium-S" transform="matrix(1 0 0 1 1703.66 696)">
   <path d="M22.5586 6.29883L63.2324 6.29883C71.6797 6.29883 76.0254 1.9043 76.0254-6.64062L76.0254-40.7715C76.0254-46.4844 75.293-49.1211 71.7285-52.7832L52.3926-72.5098C48.9258-76.0254 46.0449-76.8066 40.918-76.8066L22.5586-76.8066C14.1113-76.8066 9.76562-72.3633 9.76562-63.8672L9.76562-6.64062C9.76562 1.9043 14.1113 6.29883 22.5586 6.29883ZM23.2422-2.00195C19.8242-2.00195 18.0664-3.85742 18.0664-7.12891L18.0664-63.3789C18.0664-66.6504 19.8242-68.457 23.291-68.457L39.0625-68.457L39.0625-48.0469C39.0625-42.2852 41.8945-39.4531 47.6562-39.4531L67.6758-39.4531L67.6758-7.12891C67.6758-3.85742 65.9668-2.00195 62.5-2.00195ZM48.4863-46.7773C47.0215-46.7773 46.3867-47.4121 46.3867-48.877L46.3867-67.334L66.5527-46.7773ZM56.0059-30.2246L28.8574-30.2246C27.2949-30.2246 26.1719-29.0527 26.1719-27.5879C26.1719-26.0742 27.2949-24.9023 28.8574-24.9023L56.0059-24.9023C57.5195-24.9023 58.6426-26.0742 58.6426-27.5879C58.6426-29.0527 57.5195-30.2246 56.0059-30.2246ZM56.0059-17.4316L28.8574-17.4316C27.2949-17.4316 26.1719-16.2598 26.1719-14.7461C26.1719-13.2812 27.2949-12.1582 28.8574-12.1582L56.0059-12.1582C57.5195-12.1582 58.6426-13.2812 58.6426-14.7461C58.6426-16.2598 57.5195-17.4316 56.0059-17.4316Z"/>
  </g>
  <g id="Regular-S" transform="matrix(1 0 0 1 1407.56 696)">
   <path d="M22.0215 5.9082L62.5 5.9082C70.7031 5.9082 74.8047 1.75781 74.8047-6.54297L74.8047-40.5762C74.8047-45.9473 74.2188-48.291 70.8496-51.7578L50.5859-72.4609C47.4121-75.7324 44.7754-76.416 40.0879-76.416L22.0215-76.416C13.8184-76.416 9.76562-72.2656 9.76562-63.9648L9.76562-6.54297C9.76562 1.80664 13.8184 5.9082 22.0215 5.9082ZM22.3633-1.12305C18.7012-1.12305 16.7969-3.125 16.7969-6.64062L16.7969-63.8672C16.7969-67.3828 18.7012-69.3848 22.4121-69.3848L38.8672-69.3848L38.8672-47.6562C38.8672-42.5781 41.4551-39.9902 46.5332-39.9902L67.7246-39.9902L67.7246-6.64062C67.7246-3.125 65.8203-1.12305 62.1582-1.12305ZM47.3633-46.582C45.9961-46.582 45.4102-47.168 45.4102-48.5352L45.4102-68.0664L66.4062-46.582ZM55.9082-30.3711L27.5391-30.3711C25.9766-30.3711 24.8047-29.248 24.8047-27.7832C24.8047-26.2695 25.9766-25.0977 27.5391-25.0977L55.9082-25.0977C57.4219-25.0977 58.5449-26.2695 58.5449-27.7832C58.5449-29.248 57.4219-30.3711 55.9082-30.3711ZM55.9082-17.0898L27.5391-17.0898C25.9766-17.0898 24.8047-15.918 24.8047-14.4043C24.8047-12.9395 25.9766-11.8164 27.5391-11.8164L55.9082-11.8164C57.4219-11.8164 58.5449-12.9395 58.5449-14.4043C58.5449-15.918 57.4219-17.0898 55.9082-17.0898Z"/>
  </g>
  <g id="Light-S" transform="matrix(1 0 0 1 1111.48 696)">
   <path d="M21.2891 5.66406L62.0605 5.66406C69.6777 5.66406 73.5352 1.75781 73.5352-5.95703L73.5352-41.3086C73.5352-45.8008 72.998-47.8027 70.2148-50.6348L48.3887-72.7539C45.752-75.4883 43.5547-76.123 39.5508-76.123L21.2891-76.123C13.6719-76.123 9.76562-72.168 9.76562-64.4531L9.76562-5.95703C9.76562 1.75781 13.623 5.66406 21.2891 5.66406ZM21.5332 0.244141C17.3828 0.244141 15.1855-2.00195 15.1855-6.05469L15.1855-64.3555C15.1855-68.3594 17.3828-70.6543 21.582-70.6543L39.0137-70.6543L39.0137-48.0469C39.0137-43.457 41.3574-41.2598 45.8008-41.2598L68.1152-41.2598L68.1152-6.05469C68.1152-2.00195 65.9668 0.244141 61.7676 0.244141ZM46.4355-46.3379C44.7754-46.3379 44.1406-47.0215 44.1406-48.6816L44.1406-69.5801L67.041-46.3379ZM56.1035-29.8828L26.5625-29.8828C25.293-29.8828 24.3652-28.9551 24.3652-27.7832C24.3652-26.6113 25.293-25.6348 26.5625-25.6348L56.1035-25.6348C57.3242-25.6348 58.2031-26.6113 58.2031-27.7832C58.2031-28.9551 57.3242-29.8828 56.1035-29.8828ZM56.1035-16.5039L26.5625-16.5039C25.293-16.5039 24.3652-15.5762 24.3652-14.3555C24.3652-13.1836 25.293-12.2559 26.5625-12.2559L56.1035-12.2559C57.3242-12.2559 58.2031-13.1836 58.2031-14.3555C58.2031-15.5762 57.3242-16.5039 56.1035-16.5039Z"/>
  </g>
  <g id="Thin-S" transform="matrix(1 0 0 1 815.578 696)">
   <path d="M20.2637 5.32227L61.4258 5.32227C68.3594 5.32227 71.9238 1.70898 71.9238-5.22461L71.9238-42.2363C71.9238-45.6055 71.4355-47.1191 69.3848-49.1699L45.5078-73.1445C43.5547-75.1465 41.9434-75.6836 38.8184-75.6836L20.2637-75.6836C13.4277-75.6836 9.76562-72.0703 9.76562-65.1367L9.76562-5.22461C9.76562 1.75781 13.3789 5.32227 20.2637 5.32227ZM20.4102 2.05078C15.5762 2.05078 13.0859-0.488281 13.0859-5.32227L13.0859-65.0391C13.0859-69.7266 15.5762-72.4121 20.459-72.4121L39.209-72.4121L39.209-48.5352C39.209-44.6289 41.2109-42.8711 44.9219-42.8711L68.6035-42.8711L68.6035-5.32227C68.6035-0.488281 66.1133 2.05078 61.2793 2.05078ZM45.2148-46.0449C43.2129-46.0449 42.3828-46.8262 42.3828-48.8281L42.3828-71.6309L67.8711-46.0449ZM56.3477-29.248L25.293-29.248C24.4141-29.248 23.8281-28.6133 23.8281-27.832C23.8281-27.002 24.4141-26.3672 25.293-26.3672L56.3477-26.3672C57.1777-26.3672 57.8125-27.002 57.8125-27.832C57.8125-28.6133 57.1777-29.248 56.3477-29.248ZM56.3477-15.7227L25.293-15.7227C24.4141-15.7227 23.8281-15.0879 23.8281-14.3066C23.8281-13.5254 24.4141-12.8906 25.293-12.8906L56.3477-12.8906C57.1777-12.8906 57.8125-13.5254 57.8125-14.3066C57.8125-15.0879 57.1777-15.7227 56.3477-15.7227Z"/>
  </g>
  <g id="Ultralight-S" transform="matrix(1 0 0 1 519.281 696)">
   <path d="M19.7266 5.17578L61.084 5.17578C67.627 5.17578 71.0938 1.70898 71.0938-4.83398L71.0938-42.7734C71.0938-45.5078 70.6055-46.7773 68.9453-48.4375L44.043-73.3398C42.3828-75 41.1133-75.4883 38.4277-75.4883L19.7266-75.4883C13.3301-75.4883 9.76562-72.0215 9.76562-65.4785L9.76562-4.83398C9.76562 1.70898 13.2324 5.17578 19.7266 5.17578ZM19.873 2.97852C14.6484 2.97852 11.9629 0.244141 11.9629-4.93164L11.9629-65.3809C11.9629-70.4102 14.6484-73.291 19.873-73.291L39.3066-73.291L39.3066-48.8281C39.3066-45.2148 41.1133-43.7012 44.4336-43.7012L68.8965-43.7012L68.8965-4.93164C68.8965 0.244141 66.2109 2.97852 60.9863 2.97852ZM44.5801-45.8984C42.3828-45.8984 41.5039-46.7285 41.5039-48.9746L41.5039-72.7051L68.3105-45.8984ZM56.4453-28.9062L24.6094-28.9062C23.9746-28.9062 23.4863-28.418 23.4863-27.832C23.4863-27.2461 23.9746-26.7578 24.6094-26.7578L56.4453-26.7578C57.0801-26.7578 57.5684-27.2461 57.5684-27.832C57.5684-28.418 57.0801-28.9062 56.4453-28.9062ZM56.4453-15.332L24.6094-15.332C23.9746-15.332 23.4863-14.8438 23.4863-14.2578C23.4863-13.6719 23.9746-13.2324 24.6094-13.2324L56.4453-13.2324C57.0801-13.2324 57.5684-13.6719 57.5684-14.2578C57.5684-14.8438 57.0801-15.332 56.4453-15.332Z"/>
  </g>
 </g>
</svg>
