<?xml version="1.0" encoding="UTF-8"?>
<!--Generator: Apple Native CoreSVG 149-->
<!DOCTYPE svg
PUBLIC "-//W3C//DTD SVG 1.1//EN"
       "http://www.w3.org/Graphics/SVG/1.1/DTD/svg11.dtd">
<svg version="1.1" xmlns="http://www.w3.org/2000/svg" xmlns:xlink="http://www.w3.org/1999/xlink" width="3300" height="2200">
 <!--glyph: "uni10025A.medium", point size: 100.000000, font version: "Version 16.0d12e3", template writer version: "8"-->
 <g id="Notes">
  <rect height="2200" id="artboard" style="fill:white;opacity:1" width="3300" x="0" y="0"/>
  <line id="" style="fill:none;stroke:black;opacity:1;stroke-width:0.5;" x1="263" x2="3036" y1="292" y2="292"/>
  <text style="stroke:none;fill:black;font-family:-apple-system,&quot;SF Pro Display&quot;,&quot;SF Pro Text&quot;,Helvetica,sans-serif;font-weight:bold;" transform="matrix(1 0 0 1 263 322)">Weight/Scale Variations</text>
  <text style="stroke:none;fill:black;font-family:-apple-system,&quot;SF Pro Display&quot;,&quot;SF Pro Text&quot;,Helvetica,sans-serif;text-anchor:middle;" transform="matrix(1 0 0 1 559.711 322)">Ultralight</text>
  <text style="stroke:none;fill:black;font-family:-apple-system,&quot;SF Pro Display&quot;,&quot;SF Pro Text&quot;,Helvetica,sans-serif;text-anchor:middle;" transform="matrix(1 0 0 1 856.422 322)">Thin</text>
  <text style="stroke:none;fill:black;font-family:-apple-system,&quot;SF Pro Display&quot;,&quot;SF Pro Text&quot;,Helvetica,sans-serif;text-anchor:middle;" transform="matrix(1 0 0 1 1153.13 322)">Light</text>
  <text style="stroke:none;fill:black;font-family:-apple-system,&quot;SF Pro Display&quot;,&quot;SF Pro Text&quot;,Helvetica,sans-serif;text-anchor:middle;" transform="matrix(1 0 0 1 1449.84 322)">Regular</text>
  <text style="stroke:none;fill:black;font-family:-apple-system,&quot;SF Pro Display&quot;,&quot;SF Pro Text&quot;,Helvetica,sans-serif;text-anchor:middle;" transform="matrix(1 0 0 1 1746.56 322)">Medium</text>
  <text style="stroke:none;fill:black;font-family:-apple-system,&quot;SF Pro Display&quot;,&quot;SF Pro Text&quot;,Helvetica,sans-serif;text-anchor:middle;" transform="matrix(1 0 0 1 2043.27 322)">Semibold</text>
  <text style="stroke:none;fill:black;font-family:-apple-system,&quot;SF Pro Display&quot;,&quot;SF Pro Text&quot;,Helvetica,sans-serif;text-anchor:middle;" transform="matrix(1 0 0 1 2339.98 322)">Bold</text>
  <text style="stroke:none;fill:black;font-family:-apple-system,&quot;SF Pro Display&quot;,&quot;SF Pro Text&quot;,Helvetica,sans-serif;text-anchor:middle;" transform="matrix(1 0 0 1 2636.69 322)">Heavy</text>
  <text style="stroke:none;fill:black;font-family:-apple-system,&quot;SF Pro Display&quot;,&quot;SF Pro Text&quot;,Helvetica,sans-serif;text-anchor:middle;" transform="matrix(1 0 0 1 2933.4 322)">Black</text>
  <line id="" style="fill:none;stroke:black;opacity:1;stroke-width:0.5;" x1="263" x2="3036" y1="1903" y2="1903"/>
  <g id="" transform="matrix(1 0 0 1 263 1933)">
   <path d="M9.24805 0.830078C13.5547 0.830078 17.1387-2.74414 17.1387-7.05078C17.1387-11.3574 13.5449-14.9316 9.23828-14.9316C4.94141-14.9316 1.36719-11.3574 1.36719-7.05078C1.36719-2.74414 4.95117 0.830078 9.24805 0.830078ZM9.24805-0.654297C5.70312-0.654297 2.87109-3.49609 2.87109-7.05078C2.87109-10.6055 5.69336-13.4473 9.23828-13.4473C12.793-13.4473 15.6348-10.6055 15.6445-7.05078C15.6543-3.49609 12.8027-0.654297 9.24805-0.654297ZM9.22852-3.62305C9.69727-3.62305 9.9707-3.93555 9.9707-4.45312L9.9707-6.31836L12.002-6.31836C12.5-6.31836 12.832-6.57227 12.832-7.04102C12.832-7.51953 12.5195-7.7832 12.002-7.7832L9.9707-7.7832L9.9707-9.81445C9.9707-10.332 9.69727-10.6543 9.22852-10.6543C8.75977-10.6543 8.50586-10.3125 8.50586-9.81445L8.50586-7.7832L6.49414-7.7832C5.97656-7.7832 5.64453-7.51953 5.64453-7.04102C5.64453-6.57227 5.99609-6.31836 6.49414-6.31836L8.50586-6.31836L8.50586-4.45312C8.50586-3.95508 8.75977-3.62305 9.22852-3.62305Z"/>
  </g>
  <g id="" transform="matrix(1 0 0 1 281.506 1933)">
   <path d="M11.709 2.91016C17.1582 2.91016 21.6699-1.61133 21.6699-7.05078C21.6699-12.5 17.1484-17.0117 11.6992-17.0117C6.25977-17.0117 1.74805-12.5 1.74805-7.05078C1.74805-1.61133 6.26953 2.91016 11.709 2.91016ZM11.709 1.25C7.09961 1.25 3.41797-2.44141 3.41797-7.05078C3.41797-11.6602 7.08984-15.3516 11.6992-15.3516C16.3086-15.3516 20-11.6602 20.0098-7.05078C20.0195-2.44141 16.3184 1.25 11.709 1.25ZM11.6797-2.66602C12.207-2.66602 12.5098-3.01758 12.5098-3.59375L12.5098-6.23047L15.3223-6.23047C15.8691-6.23047 16.25-6.51367 16.25-7.03125C16.25-7.55859 15.8887-7.86133 15.3223-7.86133L12.5098-7.86133L12.5098-10.6836C12.5098-11.25 12.207-11.6113 11.6797-11.6113C11.1621-11.6113 10.8789-11.2305 10.8789-10.6836L10.8789-7.86133L8.07617-7.86133C7.50977-7.86133 7.13867-7.55859 7.13867-7.03125C7.13867-6.51367 7.5293-6.23047 8.07617-6.23047L10.8789-6.23047L10.8789-3.59375C10.8789-3.03711 11.1621-2.66602 11.6797-2.66602Z"/>
  </g>
  <g id="" transform="matrix(1 0 0 1 304.924 1933)">
   <path d="M14.9707 5.66406C21.9336 5.66406 27.6953-0.0976562 27.6953-7.05078C27.6953-14.0137 21.9238-19.7754 14.9609-19.7754C8.00781-19.7754 2.25586-14.0137 2.25586-7.05078C2.25586-0.0976562 8.01758 5.66406 14.9707 5.66406ZM14.9707 3.84766C8.93555 3.84766 4.08203-1.01562 4.08203-7.05078C4.08203-13.0957 8.92578-17.9492 14.9609-17.9492C21.0059-17.9492 25.8594-13.0957 25.8691-7.05078C25.8789-1.01562 21.0156 3.84766 14.9707 3.84766ZM14.9414-1.38672C15.5176-1.38672 15.8594-1.77734 15.8594-2.38281L15.8594-6.13281L19.7754-6.13281C20.3711-6.13281 20.7812-6.46484 20.7812-7.02148C20.7812-7.59766 20.3906-7.93945 19.7754-7.93945L15.8594-7.93945L15.8594-11.8652C15.8594-12.4805 15.5176-12.8711 14.9414-12.8711C14.375-12.8711 14.0527-12.4609 14.0527-11.8652L14.0527-7.93945L10.1465-7.93945C9.53125-7.93945 9.13086-7.59766 9.13086-7.02148C9.13086-6.46484 9.55078-6.13281 10.1465-6.13281L14.0527-6.13281L14.0527-2.38281C14.0527-1.79688 14.375-1.38672 14.9414-1.38672Z"/>
  </g>
  <text style="stroke:none;fill:black;font-family:-apple-system,&quot;SF Pro Display&quot;,&quot;SF Pro Text&quot;,Helvetica,sans-serif;font-weight:bold;" transform="matrix(1 0 0 1 263 1953)">Design Variations</text>
  <text style="stroke:none;fill:black;font-family:-apple-system,&quot;SF Pro Display&quot;,&quot;SF Pro Text&quot;,Helvetica,sans-serif;" transform="matrix(1 0 0 1 263 1971)">Symbols are supported in up to nine weights and three scales.</text>
  <text style="stroke:none;fill:black;font-family:-apple-system,&quot;SF Pro Display&quot;,&quot;SF Pro Text&quot;,Helvetica,sans-serif;" transform="matrix(1 0 0 1 263 1989)">For optimal layout with text and other symbols, vertically align</text>
  <text style="stroke:none;fill:black;font-family:-apple-system,&quot;SF Pro Display&quot;,&quot;SF Pro Text&quot;,Helvetica,sans-serif;" transform="matrix(1 0 0 1 263 2007)">symbols with the adjacent text.</text>
  <line id="" style="fill:none;stroke:#00AEEF;stroke-width:0.5;opacity:1.0;" x1="776" x2="776" y1="1919" y2="1933"/>
  <g id="" transform="matrix(1 0 0 1 776 1933)">
   <path d="M3.31055 0.126953C3.82812 0.126953 4.08203-0.0683594 4.26758-0.605469L5.52734-4.0625L11.2891-4.0625L12.5488-0.605469C12.7344-0.0683594 12.9883 0.126953 13.4961 0.126953C14.0137 0.126953 14.3457-0.185547 14.3457-0.673828C14.3457-0.839844 14.3164-0.986328 14.2383-1.20117L9.6582-13.3887C9.43359-13.9941 9.0332-14.2871 8.4082-14.2871C7.80273-14.2871 7.39258-13.9941 7.17773-13.3984L2.59766-1.19141C2.51953-0.976562 2.49023-0.830078 2.49023-0.664062C2.49023-0.175781 2.80273 0.126953 3.31055 0.126953ZM6.00586-5.53711L8.37891-12.1094L8.42773-12.1094L10.8008-5.53711Z"/>
  </g>
  <line id="" style="fill:none;stroke:#00AEEF;stroke-width:0.5;opacity:1.0;" x1="792.836" x2="792.836" y1="1919" y2="1933"/>
  <text style="stroke:none;fill:black;font-family:-apple-system,&quot;SF Pro Display&quot;,&quot;SF Pro Text&quot;,Helvetica,sans-serif;font-weight:bold;" transform="matrix(1 0 0 1 776 1953)">Margins</text>
  <text style="stroke:none;fill:black;font-family:-apple-system,&quot;SF Pro Display&quot;,&quot;SF Pro Text&quot;,Helvetica,sans-serif;" transform="matrix(1 0 0 1 776 1971)">Leading and trailing margins on the left and right side of each symbol</text>
  <text style="stroke:none;fill:black;font-family:-apple-system,&quot;SF Pro Display&quot;,&quot;SF Pro Text&quot;,Helvetica,sans-serif;" transform="matrix(1 0 0 1 776 1989)">can be adjusted by modifying the x-location of the margin guidelines.</text>
  <text style="stroke:none;fill:black;font-family:-apple-system,&quot;SF Pro Display&quot;,&quot;SF Pro Text&quot;,Helvetica,sans-serif;" transform="matrix(1 0 0 1 776 2007)">Modifications are automatically applied proportionally to all</text>
  <text style="stroke:none;fill:black;font-family:-apple-system,&quot;SF Pro Display&quot;,&quot;SF Pro Text&quot;,Helvetica,sans-serif;" transform="matrix(1 0 0 1 776 2025)">scales and weights.</text>
  <g id="" transform="matrix(1 0 0 1 1289 1933)">
   <path d="M2.8418 1.86523L4.54102 3.57422C5.40039 4.44336 6.38672 4.38477 7.31445 3.35938L17.4902-7.85156C17.7539-7.76367 18.0273-7.7832 18.3398-7.8418L19.4043-8.03711L20.0684-7.36328L20.0293-6.80664C19.9902-6.30859 20.1172-5.92773 20.6055-5.44922L21.3672-4.70703C21.8457-4.22852 22.4609-4.19922 22.9297-4.66797L25.8398-7.58789C26.3086-8.05664 26.2891-8.65234 25.8105-9.13086L25.0391-9.89258C24.5605-10.3711 24.1895-10.5273 23.7109-10.4883L23.1348-10.4395L22.4902-11.0742L22.7344-12.1973C22.8613-12.7637 22.7051-13.2031 22.1191-13.7891L19.9219-15.9766C16.582-19.2969 12.1484-19.2188 9.25781-16.3281C8.83789-15.918 8.80859-15.3418 9.04297-14.9512C9.27734-14.5898 9.73633-14.3555 10.3809-14.5215C11.8457-14.8633 13.3691-14.9219 14.7949-13.9844L14.209-12.5293C14.0137-12.0508 13.9844-11.6504 14.1113-11.2891L3.04688-0.898438C2.06055 0.0195312 1.98242 0.996094 2.8418 1.86523ZM10.752-15.957C13.1836-17.7344 16.4746-17.4316 18.7012-15.2051L21.1328-12.793C21.3672-12.5586 21.4062-12.373 21.3379-12.0312L21.0156-10.5469L22.5195-9.0625L23.5059-9.12109C23.7598-9.13086 23.8379-9.11133 24.0332-8.91602L24.6094-8.33984L22.168-5.89844L21.5918-6.47461C21.3965-6.66992 21.3672-6.74805 21.377-7.01172L21.4453-7.98828L19.9512-9.47266L18.4277-9.21875C18.1055-9.15039 17.959-9.17969 17.7148-9.41406L15.7129-11.416C15.459-11.6504 15.4297-11.8164 15.5859-12.1875L16.4648-14.2773C14.9023-15.7324 12.8711-16.3574 10.8398-15.7617C10.6836-15.7227 10.625-15.8496 10.752-15.957ZM5.27344 2.30469L4.10156 1.14258C3.63281 0.683594 3.74023 0.341797 4.14062-0.0195312L14.9512-10.1953L16.416-8.71094L6.42578 2.27539C6.07422 2.67578 5.74219 2.77344 5.27344 2.30469Z"/>
  </g>
  <text style="stroke:none;fill:black;font-family:-apple-system,&quot;SF Pro Display&quot;,&quot;SF Pro Text&quot;,Helvetica,sans-serif;font-weight:bold;" transform="matrix(1 0 0 1 1289 1953)">Exporting</text>
  <text style="stroke:none;fill:black;font-family:-apple-system,&quot;SF Pro Display&quot;,&quot;SF Pro Text&quot;,Helvetica,sans-serif;" transform="matrix(1 0 0 1 1289 1971)">Symbols should be outlined when exporting to ensure the</text>
  <text style="stroke:none;fill:black;font-family:-apple-system,&quot;SF Pro Display&quot;,&quot;SF Pro Text&quot;,Helvetica,sans-serif;" transform="matrix(1 0 0 1 1289 1989)">design is preserved when submitting to Xcode.</text>
  <text id="template-version" style="stroke:none;fill:black;font-family:-apple-system,&quot;SF Pro Display&quot;,&quot;SF Pro Text&quot;,Helvetica,sans-serif;text-anchor:end;" transform="matrix(1 0 0 1 3036 1933)">Template v.2.0</text>
  <text style="stroke:none;fill:black;font-family:-apple-system,&quot;SF Pro Display&quot;,&quot;SF Pro Text&quot;,Helvetica,sans-serif;text-anchor:end;" transform="matrix(1 0 0 1 3036 1951)">Requires Xcode 12 or greater</text>
  <text style="stroke:none;fill:black;font-family:-apple-system,&quot;SF Pro Display&quot;,&quot;SF Pro Text&quot;,Helvetica,sans-serif;text-anchor:end;" transform="matrix(1 0 0 1 3036 1969)">Generated from book</text>
  <text style="stroke:none;fill:black;font-family:-apple-system,&quot;SF Pro Display&quot;,&quot;SF Pro Text&quot;,Helvetica,sans-serif;text-anchor:end;" transform="matrix(1 0 0 1 3036 1987)">Typeset at 100 points</text>
  <text style="stroke:none;fill:black;font-family:-apple-system,&quot;SF Pro Display&quot;,&quot;SF Pro Text&quot;,Helvetica,sans-serif;" transform="matrix(1 0 0 1 263 726)">Small</text>
  <text style="stroke:none;fill:black;font-family:-apple-system,&quot;SF Pro Display&quot;,&quot;SF Pro Text&quot;,Helvetica,sans-serif;" transform="matrix(1 0 0 1 263 1156)">Medium</text>
  <text style="stroke:none;fill:black;font-family:-apple-system,&quot;SF Pro Display&quot;,&quot;SF Pro Text&quot;,Helvetica,sans-serif;" transform="matrix(1 0 0 1 263 1586)">Large</text>
 </g>
 <g id="Guides">
  <g id="H-reference" style="fill:#27AAE1;stroke:none;" transform="matrix(1 0 0 1 339 696)">
   <path d="M0.976562 0L3.66211 0L12.9883-24.4629L45.752-24.4629L55.127 0L57.7637 0L30.6152-70.459L28.125-70.459ZM29.3457-67.1387L29.4434-67.1387L44.873-26.709L13.8672-26.709Z"/>
  </g>
  <line id="Baseline-S" style="fill:none;stroke:#27AAE1;opacity:1;stroke-width:0.5;" x1="263" x2="3036" y1="696" y2="696"/>
  <line id="Capline-S" style="fill:none;stroke:#27AAE1;opacity:1;stroke-width:0.5;" x1="263" x2="3036" y1="625.541" y2="625.541"/>
  <g id="H-reference" style="fill:#27AAE1;stroke:none;" transform="matrix(1 0 0 1 339 1126)">
   <path d="M0.976562 0L3.66211 0L12.9883-24.4629L45.752-24.4629L55.127 0L57.7637 0L30.6152-70.459L28.125-70.459ZM29.3457-67.1387L29.4434-67.1387L44.873-26.709L13.8672-26.709Z"/>
  </g>
  <line id="Baseline-M" style="fill:none;stroke:#27AAE1;opacity:1;stroke-width:0.5;" x1="263" x2="3036" y1="1126" y2="1126"/>
  <line id="Capline-M" style="fill:none;stroke:#27AAE1;opacity:1;stroke-width:0.5;" x1="263" x2="3036" y1="1055.54" y2="1055.54"/>
  <g id="H-reference" style="fill:#27AAE1;stroke:none;" transform="matrix(1 0 0 1 339 1556)">
   <path d="M0.976562 0L3.66211 0L12.9883-24.4629L45.752-24.4629L55.127 0L57.7637 0L30.6152-70.459L28.125-70.459ZM29.3457-67.1387L29.4434-67.1387L44.873-26.709L13.8672-26.709Z"/>
  </g>
  <line id="Baseline-L" style="fill:none;stroke:#27AAE1;opacity:1;stroke-width:0.5;" x1="263" x2="3036" y1="1556" y2="1556"/>
  <line id="Capline-L" style="fill:none;stroke:#27AAE1;opacity:1;stroke-width:0.5;" x1="263" x2="3036" y1="1485.54" y2="1485.54"/>
  <line id="left-margin" style="fill:none;stroke:#00AEEF;stroke-width:0.5;opacity:1.0;" x1="1383.17" x2="1383.17" y1="1030.79" y2="1150.12"/>
  <line id="right-margin" style="fill:none;stroke:#00AEEF;stroke-width:0.5;opacity:1.0;" x1="1516.52" x2="1516.52" y1="1030.79" y2="1150.12"/>
 </g>
 <g id="Symbols">
  <g id="Black-L" transform="matrix(1 0 0 1 2840.9 1556)">
   <path d="M92.4805-87.207C85.5469-94.2383 74.6582-100.146 59.7168-100.146C38.7695-100.146 21.8262-88.9648 16.0645-77.9297L16.0645 15.8691C16.0645 25.5859 22.3633 29.1504 29.248 29.1504C33.9844 29.1504 36.6211 27.832 39.6973 25.6348C43.7012 22.7539 49.707 19.3848 59.7168 19.3848C69.9219 19.3848 77.1973 22.7539 80.8594 25.1953C83.6914 27.1484 86.9141 29.1504 92.4805 29.1504C98.0957 29.1504 101.27 27.0996 104.15 25.1953C107.861 22.8027 115.088 19.3848 125.293 19.3848C135.303 19.3848 141.357 22.7539 145.312 25.6348C148.389 27.832 150.977 29.1504 155.762 29.1504C162.598 29.1504 168.945 25.5859 168.945 15.8691L168.945-77.9297C163.184-88.9648 146.24-100.146 125.293-100.146C110.352-100.146 99.4629-94.2383 92.4805-87.207ZM38.4766-70.2148C40.8203-74.1699 48.3887-79.5898 59.7168-79.5898C71.0449-79.5898 79.2969-74.1699 81.2988-70.2148L81.2988 3.85742C75.1465-0.0976562 67.4316-1.61133 59.7168-1.61133C52.002-1.61133 44.5801-0.0976562 38.4766 4.00391ZM146.484-70.2148L146.484 4.00391C140.43-0.0976562 133.008-1.61133 125.293-1.61133C117.529-1.61133 109.863-0.0976562 103.711 3.85742L103.711-70.2148C105.713-74.1699 113.916-79.5898 125.293-79.5898C136.621-79.5898 144.189-74.1699 146.484-70.2148Z"/>
  </g>
  <g id="Heavy-L" transform="matrix(1 0 0 1 2545.97 1556)">
   <path d="M90.7227-86.1328C84.375-92.8711 73.0469-98.877 58.1055-98.877C37.6953-98.877 21.1426-88.0859 16.0645-77.6855L16.0645 16.5039C16.0645 24.9512 21.5332 28.0762 27.5391 28.0762C31.7871 28.0762 34.1309 26.8555 36.8164 24.9023C40.8691 21.7773 47.2656 18.1152 58.1055 18.1152C69.043 18.1152 76.6602 21.7773 80.2734 24.4629C82.8125 26.2695 85.6934 28.0762 90.7227 28.0762C95.752 28.0762 98.584 26.2207 101.123 24.4629C104.883 21.875 112.354 18.1152 123.34 18.1152C134.131 18.1152 140.625 21.7773 144.629 24.9023C147.314 26.8555 149.658 28.0762 153.906 28.0762C159.863 28.0762 165.381 24.9512 165.381 16.5039L165.381-77.6855C160.303-88.0859 143.75-98.877 123.34-98.877C108.398-98.877 97.0215-92.8711 90.7227-86.1328ZM35.4004-71.1426C37.4512-75.1465 45.752-81.1035 58.1055-81.1035C70.459-81.1035 79.2969-75.0977 81.0547-71.1426L81.0547 6.10352C74.8535 1.85547 66.6016 0 58.1055 0C49.5605 0 41.5527 1.9043 35.4004 6.29883ZM146.045-71.1426L146.045 6.29883C139.893 1.9043 131.836 0 123.34 0C114.844 0 106.592 1.85547 100.342 6.10352L100.342-71.1426C102.148-75.0977 110.986-81.1035 123.34-81.1035C135.693-81.1035 143.994-75.1465 146.045-71.1426Z"/>
  </g>
  <g id="Bold-L" transform="matrix(1 0 0 1 2251.26 1556)">
   <path d="M88.7207-84.9121C83.1055-91.3086 71.1914-97.4121 56.25-97.4121C36.4746-97.4121 20.4102-87.0605 16.0645-77.4414L16.0645 17.1875C16.0645 24.1699 20.6055 26.8555 25.6348 26.8555C29.248 26.8555 31.2988 25.7812 33.5938 24.0723C37.7441 20.7031 44.5801 16.6992 56.25 16.6992C68.1152 16.6992 76.0742 20.7031 79.6387 23.6816C81.8359 25.293 84.3262 26.8555 88.7207 26.8555C93.1152 26.8555 95.5566 25.1953 97.7539 23.6816C101.514 20.8496 109.326 16.6992 121.191 16.6992C132.861 16.6992 139.795 20.7031 143.848 24.0723C146.143 25.7812 148.193 26.8555 151.807 26.8555C156.836 26.8555 161.377 24.1699 161.377 17.1875L161.377-77.4414C157.031-87.0605 140.918-97.4121 121.191-97.4121C106.25-97.4121 94.3359-91.3086 88.7207-84.9121ZM31.8848-72.2168C33.6426-76.2207 42.7734-82.7637 56.25-82.7637C69.7754-82.7637 79.2969-76.1719 80.8105-72.2168L80.8105 8.69141C74.5117 4.10156 65.625 1.85547 56.25 1.85547C46.875 1.85547 38.1348 4.15039 31.8848 8.83789ZM145.508-72.2168L145.508 8.83789C139.307 4.15039 130.566 1.85547 121.191 1.85547C111.816 1.85547 102.93 4.10156 96.6309 8.69141L96.6309-72.2168C98.1445-76.1719 107.666-82.7637 121.191-82.7637C134.668-82.7637 143.75-76.2207 145.508-72.2168Z"/>
  </g>
  <g id="Semibold-L" transform="matrix(1 0 0 1 1955.94 1556)">
   <path d="M87.3535-84.0332C82.1777-90.2344 69.9219-96.3867 54.9805-96.3867C35.6934-96.3867 19.873-86.377 16.0645-77.2949L16.0645 17.6758C16.0645 23.6816 19.9707 25.9766 24.3164 25.9766C27.5391 25.9766 29.3457 25.0488 31.3477 23.5352C35.5469 19.9707 42.7246 15.7227 54.9805 15.7227C67.4316 15.7227 75.6348 19.9707 79.248 23.1445C81.1523 24.6582 83.3984 25.9766 87.3535 25.9766C91.3086 25.9766 93.457 24.5117 95.459 23.1445C99.2188 20.1172 107.227 15.7227 119.678 15.7227C131.982 15.7227 139.258 19.9219 143.311 23.5352C145.312 25.0488 147.168 25.9766 150.391 25.9766C154.736 25.9766 158.594 23.6816 158.594 17.6758L158.594-77.2949C154.785-86.377 139.014-96.3867 119.678-96.3867C104.785-96.3867 92.4805-90.2344 87.3535-84.0332ZM29.4922-72.9492C31.0547-76.9531 40.7227-83.9355 54.9805-83.9355C69.2871-83.9355 79.2969-76.9043 80.6152-72.9492L80.6152 10.4492C74.2676 5.61523 64.9414 3.125 54.9805 3.125C45.0195 3.125 35.791 5.66406 29.4922 10.5957ZM145.166-72.9492L145.166 10.5957C138.916 5.66406 129.688 3.125 119.678 3.125C109.717 3.125 100.391 5.61523 94.043 10.4492L94.043-72.9492C95.4102-76.9043 105.371-83.9355 119.678-83.9355C133.936-83.9355 143.604-76.9531 145.166-72.9492Z"/>
  </g>
  <g id="Medium-L" transform="matrix(1 0 0 1 1660.25 1556)">
   <path d="M86.2793-83.3984C81.543-89.4043 68.9453-95.6543 54.0527-95.6543C35.0586-95.6543 19.4824-85.8398 16.0645-77.1484L16.0645 18.0176C16.0645 23.291 19.4824 25.3418 23.291 25.3418C26.2207 25.3418 27.8809 24.4629 29.6875 23.0957C33.9355 19.3848 41.3086 14.9902 54.0527 14.9902C66.9434 14.9902 75.3418 19.4336 78.9062 22.7539C80.6641 24.1211 82.666 25.3418 86.2793 25.3418C89.8926 25.3418 91.8945 23.9746 93.7012 22.7539C97.4609 19.5801 105.664 14.9902 118.555 14.9902C131.299 14.9902 138.818 19.3848 142.92 23.0957C144.727 24.4629 146.387 25.3418 149.316 25.3418C153.125 25.3418 156.543 23.291 156.543 18.0176L156.543-77.1484C153.125-85.8398 137.549-95.6543 118.555-95.6543C103.613-95.6543 91.0645-89.4043 86.2793-83.3984ZM27.6855-73.4863C29.0527-77.4902 39.209-84.8145 54.0527-84.8145C68.9453-84.8145 79.2969-77.4414 80.4688-73.4863L80.4688 11.7676C74.0723 6.78711 64.4531 4.10156 54.0527 4.10156C43.6035 4.10156 33.9844 6.83594 27.6855 11.9629ZM144.922-73.4863L144.922 11.9629C138.574 6.83594 129.004 4.10156 118.555 4.10156C108.154 4.10156 98.4863 6.78711 92.0898 11.7676L92.0898-73.4863C93.3105-77.4414 103.662-84.8145 118.555-84.8145C133.398-84.8145 143.506-77.4902 144.922-73.4863Z"/>
  </g>
  <g id="Regular-L" transform="matrix(1 0 0 1 1364.91 1556)">
   <path d="M84.9121-82.5684C80.6641-88.3301 67.7246-94.6289 52.7832-94.6289C34.2285-94.6289 18.9941-85.1562 16.0645-76.9531L16.0645 18.5059C16.0645 22.7539 18.8477 24.5117 21.9727 24.5117C24.5117 24.5117 25.9277 23.7305 27.4902 22.5586C31.7871 18.6523 39.4531 14.0137 52.7832 14.0137C66.2598 14.0137 74.9512 18.7012 78.4668 22.2168C79.9805 23.4375 81.7383 24.5117 84.9121 24.5117C88.1348 24.5117 89.8438 23.291 91.4062 22.2168C95.166 18.8477 103.564 14.0137 117.09 14.0137C130.42 14.0137 138.281 18.6035 142.383 22.5586C143.945 23.7305 145.361 24.5117 147.9 24.5117C151.025 24.5117 153.809 22.7539 153.809 18.5059L153.809-76.9531C150.879-85.1562 135.645-94.6289 117.09-94.6289C102.148-94.6289 89.209-88.3301 84.9121-82.5684ZM25.293-74.1699C26.5137-78.2227 37.1582-85.9375 52.7832-85.9375C68.457-85.9375 79.2969-78.1738 80.3223-74.1699L80.3223 13.5254C73.877 8.30078 63.7695 5.37109 52.7832 5.37109C41.748 5.37109 31.6895 8.34961 25.293 13.7207ZM144.58-74.1699L144.58 13.7207C138.184 8.34961 128.125 5.37109 117.09 5.37109C106.055 5.37109 95.9961 8.30078 89.5508 13.5254L89.5508-74.1699C90.5762-78.1738 101.367-85.9375 117.09-85.9375C132.715-85.9375 143.359-78.2227 144.58-74.1699Z"/>
  </g>
  <g id="Light-L" transform="matrix(1 0 0 1 1069.71 1556)">
   <path d="M83.4473-82.0312C80.4199-86.8164 67.2852-93.7988 51.4648-93.7988C33.3496-93.7988 17.8711-84.5215 16.0645-77.6367L16.0645 18.8965C16.0645 22.0215 18.0664 23.3887 20.459 23.3887C22.4121 23.3887 23.5352 22.8027 24.6582 21.8262C28.8086 17.5781 37.0117 12.4023 51.4648 12.4023C66.2109 12.4023 75.1953 17.7246 78.5645 21.6309C79.6387 22.6074 80.957 23.3887 83.4473 23.3887C85.8887 23.3887 87.207 22.5098 88.2812 21.6309C91.8457 17.8711 100.635 12.4023 115.381 12.4023C129.834 12.4023 138.281 17.4805 142.188 21.8262C143.311 22.8027 144.434 23.3887 146.387 23.3887C148.828 23.3887 150.781 22.0215 150.781 18.8965L150.781-77.6367C148.975-84.5215 133.496-93.7988 115.381-93.7988C99.5605-93.7988 86.4258-86.8164 83.4473-82.0312ZM23.0469-75.4395C23.7793-79.248 35.5469-87.1582 51.4648-87.1582C67.4805-87.1582 79.2969-79.1992 79.9316-75.4395L79.9316 14.6484C73.6816 8.98438 63.1348 5.81055 51.4648 5.81055C39.6973 5.81055 29.248 9.08203 23.0469 14.7461ZM143.799-75.4395L143.799 14.7461C137.598 9.08203 127.148 5.81055 115.381 5.81055C103.711 5.81055 93.1641 8.98438 86.9141 14.6484L86.9141-75.4395C87.5488-79.1992 99.3652-87.1582 115.381-87.1582C131.299-87.1582 143.066-79.248 143.799-75.4395Z"/>
  </g>
  <g id="Thin-L" transform="matrix(1 0 0 1 775.001 1556)">
   <path d="M81.4453-81.2988C80.0781-84.7656 66.748-92.6758 49.7559-92.6758C32.1777-92.6758 16.4551-83.7402 16.0645-78.4668L16.0645 19.4336C16.0645 20.9961 16.9922 21.9238 18.4082 21.9238C19.6289 21.9238 20.3613 21.5332 20.9473 20.8984C24.9023 16.1621 33.7402 10.3027 49.7559 10.3027C66.1133 10.3027 75.4883 16.4551 78.6133 20.8496C79.1504 21.4844 79.9805 21.9238 81.4453 21.9238C82.9102 21.9238 83.6914 21.4844 84.2285 20.8496C87.4512 16.5527 96.7285 10.3027 113.086 10.3027C129.102 10.3027 138.232 15.9668 141.943 20.8984C142.48 21.5332 143.213 21.9238 144.482 21.9238C145.85 21.9238 146.777 20.9961 146.777 19.4336L146.777-78.4668C146.387-83.7402 130.713-92.6758 113.086-92.6758C96.1426-92.6758 82.7637-84.7656 81.4453-81.2988ZM20.0684-77.0508C20.2148-80.6152 33.4473-88.7207 49.7559-88.7207C66.1133-88.7207 79.2969-80.5664 79.4434-77.0508L79.4434 16.1133C73.3887 9.86328 62.3047 6.39648 49.7559 6.39648C36.9629 6.39648 26.0254 10.0098 20.0684 16.1621ZM142.773-77.0508L142.773 16.1621C136.816 10.0098 125.879 6.39648 113.086 6.39648C100.537 6.39648 89.4531 9.86328 83.4473 16.1133L83.4473-77.0508C83.5449-80.5664 96.7285-88.7207 113.086-88.7207C129.395-88.7207 142.627-80.6152 142.773-77.0508Z"/>
  </g>
  <g id="Ultralight-L" transform="matrix(1 0 0 1 479.316 1556)">
   <path d="M80.4199-80.9082C79.9316-83.7402 66.4551-92.0898 48.877-92.0898C31.543-92.0898 15.7227-83.3008 16.0645-78.9062L16.0645 19.7266C16.0645 20.459 16.4551 21.1426 17.334 21.1426C18.2129 21.1426 18.75 20.8496 18.9941 20.4102C22.9004 15.4297 32.0801 9.22852 48.877 9.22852C66.0645 9.22852 75.6836 15.8203 78.6621 20.4102C78.9551 20.8984 79.4434 21.1426 80.4199 21.1426C81.3477 21.1426 81.8848 20.9473 82.1289 20.4102C85.2051 15.8691 94.7266 9.22852 111.963 9.22852C128.711 9.22852 138.232 15.1855 141.797 20.4102C142.041 20.8496 142.578 21.1426 143.457 21.1426C144.336 21.1426 144.727 20.459 144.727 19.7266L144.727-78.9062C145.068-83.3008 129.248-92.0898 111.963-92.0898C94.3848-92.0898 80.8594-83.7402 80.4199-80.9082ZM18.5547-77.8809C18.4082-81.2988 32.373-89.5508 48.877-89.5508C65.4297-89.5508 79.2969-81.2988 79.1504-77.8809L79.1504 16.8945C73.291 10.3027 61.8652 6.68945 48.877 6.68945C35.5957 6.68945 24.3652 10.498 18.5547 16.8457ZM142.236-77.8809L142.236 16.8457C136.426 10.498 125.195 6.68945 111.963 6.68945C98.9258 6.68945 87.5488 10.3027 81.6406 16.8945L81.6406-77.8809C81.4941-81.2988 95.3613-89.5508 111.963-89.5508C128.467-89.5508 142.383-81.2988 142.236-77.8809Z"/>
  </g>
  <g id="Black-M" transform="matrix(1 0 0 1 2860.11 1126)">
   <path d="M73.291-76.6602C67.7246-82.0312 59.8633-86.8652 47.8027-86.8652C30.957-86.8652 17.2363-77.7832 12.4512-68.9453L12.4512 3.75977C12.4512 12.4023 18.0664 15.5273 24.1699 15.5273C28.2715 15.5273 30.5176 14.4043 33.1543 12.5488C36.084 10.4004 40.4785 7.95898 47.8027 7.95898C55.2734 7.95898 60.6934 10.498 63.4277 12.207C65.8691 13.8672 68.6035 15.5273 73.291 15.5273C77.9785 15.5273 80.7129 13.8672 83.1543 12.207C85.8887 10.498 91.2598 7.95898 98.7793 7.95898C106.104 7.95898 110.498 10.4004 113.428 12.5488C116.064 14.4043 118.311 15.5273 122.412 15.5273C128.516 15.5273 134.131 12.4023 134.131 3.75977L134.131-68.9453C129.346-77.7832 115.576-86.8652 98.7793-86.8652C86.7188-86.8652 78.8574-82.0312 73.291-76.6602ZM32.8125-61.7676C34.7656-64.6973 40.2344-68.2617 47.8027-68.2617C55.3711-68.2617 61.4258-64.6973 63.1348-61.7676L63.1348-7.42188C58.5449-10.3516 53.0762-11.1816 47.8027-11.1816C42.4805-11.1816 37.3535-10.3516 32.8125-7.37305ZM113.721-61.7676L113.721-7.37305C109.229-10.3516 104.102-11.1816 98.7793-11.1816C93.457-11.1816 88.0371-10.3516 83.4473-7.42188L83.4473-61.7676C85.1562-64.6973 91.2109-68.2617 98.7793-68.2617C106.348-68.2617 111.816-64.6973 113.721-61.7676Z"/>
  </g>
  <g id="Heavy-M" transform="matrix(1 0 0 1 2564.96 1126)">
   <path d="M71.7285-75.6348C66.5039-80.9082 58.1543-85.6445 46.3379-85.6445C30.0293-85.6445 16.748-76.9531 12.4512-68.5547L12.4512 4.3457C12.4512 11.8652 17.334 14.6484 22.7051 14.6484C26.3672 14.6484 28.3691 13.623 30.7129 11.9141C33.7402 9.66797 38.4766 6.98242 46.3379 6.98242C54.3945 6.98242 60.0586 9.66797 62.793 11.6211C64.9902 13.1348 67.4316 14.6484 71.7285 14.6484C76.0254 14.6484 78.418 13.0859 80.6641 11.6211C83.4473 9.7168 89.0625 6.98242 97.1191 6.98242C104.98 6.98242 109.717 9.66797 112.744 11.9141C115.088 13.623 117.09 14.6484 120.752 14.6484C126.123 14.6484 131.006 11.8652 131.006 4.3457L131.006-68.5547C126.709-76.9531 113.428-85.6445 97.1191-85.6445C85.3027-85.6445 76.9531-80.9082 71.7285-75.6348ZM30.0293-62.4512C31.7871-65.4785 37.7441-69.5801 46.3379-69.5801C54.9316-69.5801 61.4258-65.4297 62.9883-62.4512L62.9883-5.22461C58.252-8.34961 52.2949-9.47266 46.3379-9.47266C40.3809-9.47266 34.668-8.34961 30.0293-5.12695ZM113.428-62.4512L113.428-5.12695C108.789-8.34961 103.076-9.47266 97.1191-9.47266C91.1621-9.47266 85.2051-8.34961 80.4688-5.22461L80.4688-62.4512C82.0312-65.4297 88.5254-69.5801 97.1191-69.5801C105.713-69.5801 111.67-65.4785 113.428-62.4512Z"/>
  </g>
  <g id="Bold-M" transform="matrix(1 0 0 1 2269.98 1126)">
   <path d="M69.9707-74.4629C65.1855-79.6387 56.2988-84.2773 44.7266-84.2773C29.0039-84.2773 16.2598-76.0254 12.4512-68.0664L12.4512 4.98047C12.4512 11.2793 16.5527 13.623 21.0449 13.623C24.2188 13.623 25.9766 12.7441 28.0273 11.2305C31.2012 8.78906 36.2305 5.9082 44.7266 5.9082C53.3691 5.9082 59.3262 8.78906 62.1094 10.9375C64.0137 12.3047 66.2109 13.623 69.9707 13.623C73.7793 13.623 75.9277 12.207 77.8809 10.9375C80.7617 8.88672 86.6211 5.9082 95.2637 5.9082C103.76 5.9082 108.838 8.78906 111.963 11.2305C113.965 12.7441 115.771 13.623 118.945 13.623C123.438 13.623 127.539 11.2793 127.539 4.98047L127.539-68.0664C123.682-76.0254 110.938-84.2773 95.2637-84.2773C83.6914-84.2773 74.8047-79.6387 69.9707-74.4629ZM26.8555-63.2324C28.418-66.3086 34.9609-71.0449 44.7266-71.0449C54.4922-71.0449 61.4258-66.3086 62.793-63.2324L62.793-2.7832C57.959-6.10352 51.4648-7.61719 44.7266-7.61719C37.9883-7.61719 31.6406-6.10352 26.8555-2.63672ZM113.086-63.2324L113.086-2.63672C108.301-6.10352 101.953-7.61719 95.2637-7.61719C88.5254-7.61719 82.0312-6.10352 77.1973-2.7832L77.1973-63.2324C78.5156-66.3086 85.4492-71.0449 95.2637-71.0449C104.98-71.0449 111.572-66.3086 113.086-63.2324Z"/>
  </g>
  <g id="Semibold-M" transform="matrix(1 0 0 1 1974.49 1126)">
   <path d="M68.7988-73.6816C64.2578-78.7598 54.9805-83.3984 43.6035-83.3984C28.3203-83.3984 15.918-75.3906 12.4512-67.7734L12.4512 5.41992C12.4512 10.8887 16.0156 12.9395 19.9219 12.9395C22.7539 12.9395 24.3652 12.1094 26.1719 10.791C29.3945 8.20312 34.668 5.12695 43.6035 5.12695C52.6367 5.12695 58.8379 8.1543 61.6211 10.4492C63.3789 11.7188 65.332 12.9395 68.7988 12.9395C72.2656 12.9395 74.1699 11.6211 75.9277 10.4492C78.9062 8.30078 84.9121 5.12695 93.9453 5.12695C102.881 5.12695 108.252 8.20312 111.426 10.791C113.232 12.1094 114.795 12.9395 117.676 12.9395C121.582 12.9395 125.098 10.8887 125.098 5.41992L125.098-67.7734C121.631-75.3906 109.277-83.3984 93.9453-83.3984C82.5684-83.3984 73.3398-78.7598 68.7988-73.6816ZM24.707-63.7695C26.123-66.9434 33.0566-72.0703 43.6035-72.0703C54.1992-72.0703 61.4258-66.8945 62.6953-63.7695L62.6953-1.07422C57.7148-4.54102 50.8301-6.29883 43.6035-6.29883C36.377-6.29883 29.5898-4.54102 24.707-0.927734ZM112.891-63.7695L112.891-0.927734C108.008-4.54102 101.221-6.29883 93.9453-6.29883C86.7188-6.29883 79.834-4.54102 74.9023-1.07422L74.9023-63.7695C76.123-66.8945 83.3984-72.0703 93.9453-72.0703C104.492-72.0703 111.475-66.9434 112.891-63.7695Z"/>
  </g>
  <g id="Medium-M" transform="matrix(1 0 0 1 1678.68 1126)">
   <path d="M67.8711-73.0469C63.5742-78.125 54.0039-82.666 42.7734-82.666C27.7832-82.666 15.6738-74.9023 12.4512-67.5293L12.4512 5.76172C12.4512 10.5469 15.5762 12.4023 19.043 12.4023C21.6309 12.4023 23.0957 11.6211 24.7559 10.4004C28.0762 7.71484 33.4961 4.58984 42.7734 4.58984C52.0996 4.58984 58.4473 7.71484 61.2793 10.1074C62.8418 11.2793 64.6484 12.4023 67.8711 12.4023C71.0938 12.4023 72.8516 11.1816 74.4629 10.1074C77.4902 7.86133 83.6426 4.58984 92.9688 4.58984C102.246 4.58984 107.764 7.76367 110.986 10.4004C112.646 11.6211 114.111 12.4023 116.699 12.4023C120.166 12.4023 123.291 10.5469 123.291 5.76172L123.291-67.5293C120.068-74.9023 108.008-82.666 92.9688-82.666C81.7383-82.666 72.2168-78.125 67.8711-73.0469ZM23.0469-64.1602C24.3652-67.3828 31.5918-72.8516 42.7734-72.8516C53.9551-72.8516 61.4258-67.334 62.5977-64.1602L62.5977 0.244141C57.5684-3.36914 50.3906-5.32227 42.7734-5.32227C35.1074-5.32227 27.9785-3.36914 23.0469 0.390625ZM112.695-64.1602L112.695 0.390625C107.764-3.36914 100.635-5.32227 92.9688-5.32227C85.3516-5.32227 78.1738-3.36914 73.1445 0.244141L73.1445-64.1602C74.3164-67.334 81.7871-72.8516 92.9688-72.8516C104.15-72.8516 111.377-67.3828 112.695-64.1602Z"/>
  </g>
  <g id="Regular-M" transform="matrix(1 0 0 1 1383.17 1126)">
   <path d="M66.6992-72.2656C62.6465-77.2461 52.7344-81.7383 41.6504-81.7383C27.0508-81.7383 15.332-74.2676 12.4512-67.1875L12.4512 6.15234C12.4512 10.1562 15.0391 11.7188 17.9199 11.7188C20.2148 11.7188 21.4844 11.0352 22.9004 9.96094C26.3184 7.12891 31.9824 3.85742 41.6504 3.85742C51.416 3.85742 57.959 7.08008 60.791 9.61914C62.1582 10.7422 63.8184 11.7188 66.6992 11.7188C69.5801 11.7188 71.1426 10.5957 72.5586 9.61914C75.6348 7.27539 81.9824 3.85742 91.6992 3.85742C101.416 3.85742 107.178 7.17773 110.449 9.96094C111.914 11.0352 113.184 11.7188 115.43 11.7188C118.311 11.7188 120.898 10.1562 120.898 6.15234L120.898-67.1875C118.018-74.2676 106.299-81.7383 91.6992-81.7383C80.6641-81.7383 70.752-77.2461 66.6992-72.2656ZM20.8984-64.6973C22.0703-67.9688 29.7363-73.8281 41.6504-73.8281C53.6621-73.8281 61.4258-67.9199 62.4512-64.6973L62.4512 1.9043C57.373-1.85547 49.8047-4.00391 41.6504-4.00391C33.4961-4.00391 25.9277-1.85547 20.8984 2.09961ZM112.451-64.6973L112.451 2.09961C107.422-1.85547 99.8535-4.00391 91.6992-4.00391C83.5449-4.00391 76.0254-1.85547 70.8984 1.9043L70.8984-64.6973C71.9238-67.9199 79.7363-73.8281 91.6992-73.8281C103.662-73.8281 111.279-67.9688 112.451-64.6973Z"/>
  </g>
  <g id="Light-M" transform="matrix(1 0 0 1 1087.8 1126)">
   <path d="M65.332-71.7285C62.4023-75.8789 52.3438-81.0059 40.4785-81.0059C26.2695-81.0059 14.3555-73.7305 12.4512-67.7734L12.4512 6.54297C12.4512 9.47266 14.3555 10.6934 16.5527 10.6934C18.3105 10.6934 19.3359 10.1562 20.3613 9.32617C23.6328 6.20117 29.7852 2.39258 40.4785 2.39258C51.3672 2.39258 58.1543 6.25 60.8398 9.08203C61.8652 9.96094 63.0859 10.6934 65.332 10.6934C67.5293 10.6934 68.75 9.86328 69.8242 9.08203C72.6562 6.34766 79.2969 2.39258 90.1855 2.39258C100.879 2.39258 107.178 6.10352 110.303 9.32617C111.328 10.1562 112.354 10.6934 114.111 10.6934C116.309 10.6934 118.213 9.47266 118.213 6.54297L118.213-67.7734C116.309-73.7305 104.395-81.0059 90.1855-81.0059C78.3203-81.0059 68.2617-75.8789 65.332-71.7285ZM18.8965-65.8203C19.6289-68.8965 28.2715-74.9023 40.4785-74.9023C52.7344-74.9023 61.4258-68.8477 62.1094-65.8203L62.1094 2.92969C57.1777-1.26953 49.2188-3.61328 40.4785-3.61328C31.6895-3.61328 23.7305-1.2207 18.8965 3.02734ZM111.768-65.8203L111.768 3.02734C106.885-1.2207 98.9746-3.61328 90.1855-3.61328C81.4453-3.61328 73.4863-1.26953 68.5547 2.92969L68.5547-65.8203C69.2383-68.8477 77.9297-74.9023 90.1855-74.9023C102.393-74.9023 110.986-68.8965 111.768-65.8203Z"/>
  </g>
  <g id="Thin-M" transform="matrix(1 0 0 1 792.897 1126)">
   <path d="M63.5254-71.0938C62.1582-74.0723 51.8555-79.9805 38.916-79.9805C25.1953-79.9805 13.0859-72.998 12.4512-68.5547L12.4512 7.03125C12.4512 8.54492 13.3789 9.375 14.6973 9.375C15.8203 9.375 16.4551 9.0332 17.041 8.44727C20.166 4.93164 26.8555 0.537109 38.916 0.537109C51.2695 0.537109 58.4473 5.07812 60.8887 8.39844C61.4746 8.98438 62.207 9.375 63.5254 9.375C64.8926 9.375 65.625 8.93555 66.1621 8.39844C68.7012 5.17578 75.7812 0.537109 88.1348 0.537109C100.195 0.537109 107.129 4.78516 110.059 8.44727C110.596 9.0332 111.279 9.375 112.354 9.375C113.672 9.375 114.6 8.54492 114.6 7.03125L114.6-68.5547C114.014-72.998 101.904-79.9805 88.1348-79.9805C75.2441-79.9805 64.9414-74.0723 63.5254-71.0938ZM16.2109-67.2852C16.4551-70.1172 26.3672-76.3672 38.916-76.3672C51.5137-76.3672 61.4258-70.0684 61.6699-67.2852L61.6699 4.24805C56.9336-0.488281 48.4863-3.07617 38.916-3.07617C29.248-3.07617 20.8496-0.390625 16.2109 4.29688ZM110.84-67.2852L110.84 4.29688C106.201-0.390625 97.8027-3.07617 88.1348-3.07617C78.6133-3.07617 70.1172-0.488281 65.4297 4.24805L65.4297-67.2852C65.625-70.0684 75.5371-76.3672 88.1348-76.3672C100.684-76.3672 110.596-70.1172 110.84-67.2852Z"/>
  </g>
  <g id="Ultralight-M" transform="matrix(1 0 0 1 497.089 1126)">
   <path d="M62.5977-70.752C62.0117-73.1445 51.5625-79.4922 38.1348-79.4922C24.6094-79.4922 12.4023-72.6074 12.4512-68.9453L12.4512 7.27539C12.4512 8.05664 12.8906 8.69141 13.7695 8.69141C14.5508 8.69141 15.0391 8.44727 15.2832 8.00781C18.3594 4.24805 25.3418-0.439453 38.1348-0.439453C51.2207-0.439453 58.5938 4.54102 60.9375 8.00781C61.2305 8.44727 61.7188 8.69141 62.5977 8.69141C63.5254 8.69141 64.0137 8.44727 64.2578 8.00781C66.6992 4.58984 74.0234-0.439453 87.1094-0.439453C99.8535-0.439453 107.129 4.05273 109.912 8.00781C110.205 8.44727 110.693 8.69141 111.475 8.69141C112.305 8.69141 112.793 8.05664 112.793 7.27539L112.793-68.9453C112.842-72.6074 100.586-79.4922 87.1094-79.4922C73.6328-79.4922 63.2324-73.1445 62.5977-70.752ZM14.8438-68.0664C14.7949-70.7031 25.3906-77.0996 38.1348-77.0996C50.9277-77.0996 61.4258-70.7031 61.4258-68.0664L61.4258 4.93164C56.8359-0.0976562 48.0957-2.83203 38.1348-2.83203C27.9785-2.83203 19.3848 0.0488281 14.8438 4.93164ZM110.4-68.0664L110.4 4.93164C105.859 0.0488281 97.2168-2.83203 87.1094-2.83203C77.1484-2.83203 68.4082-0.0976562 63.8184 4.93164L63.8184-68.0664C63.7695-70.7031 74.3164-77.0996 87.1094-77.0996C99.8047-77.0996 110.4-70.7031 110.4-68.0664Z"/>
  </g>
  <g id="Black-S" transform="matrix(1 0 0 1 2876.08 696)">
   <path d="M57.3242-67.627C52.9785-71.8262 46.7773-75.5859 37.3535-75.5859C24.2188-75.5859 13.4766-68.5059 9.76562-61.6211L9.76562-4.63867C9.76562 2.05078 14.1113 4.49219 18.8477 4.49219C22.0215 4.49219 23.7793 3.61328 25.8301 2.14844C28.125 0.488281 31.5918-1.46484 37.3535-1.46484C43.2617-1.46484 47.5098 0.537109 49.6582 1.9043C51.5625 3.17383 53.6621 4.49219 57.3242 4.49219C60.9863 4.49219 63.0859 3.17383 64.9902 1.9043C67.1387 0.537109 71.3867-1.46484 77.2949-1.46484C83.0566-1.46484 86.5234 0.488281 88.8184 2.14844C90.8691 3.61328 92.627 4.49219 95.8008 4.49219C100.537 4.49219 104.883 2.05078 104.883-4.63867L104.883-61.6211C101.172-68.5059 90.4297-75.5859 77.2949-75.5859C67.8711-75.5859 61.6699-71.8262 57.3242-67.627ZM25.5371-56.0547C27.0508-58.3496 31.3477-61.1816 37.3535-61.1816C43.3594-61.1816 48.1445-58.3496 49.4629-56.0547L49.4629-13.2812C45.8496-15.5762 41.5527-16.2598 37.3535-16.2598C33.1543-16.2598 29.1016-15.5762 25.5371-13.2324ZM89.1113-56.0547L89.1113-13.2324C85.5469-15.5762 81.4941-16.2598 77.2949-16.2598C73.0957-16.2598 68.7988-15.5762 65.1855-13.2812L65.1855-56.0547C66.5039-58.3496 71.2891-61.1816 77.2949-61.1816C83.3008-61.1816 87.5977-58.3496 89.1113-56.0547Z"/>
  </g>
  <g id="Heavy-S" transform="matrix(1 0 0 1 2580.41 696)">
   <path d="M56.2988-66.8945C52.0996-71.1426 45.5078-74.7559 36.377-74.7559C23.584-74.7559 13.2324-67.9199 9.76562-61.2305L9.76562-4.24805C9.76562 1.70898 13.623 3.90625 17.8711 3.90625C20.8008 3.90625 22.3633 3.07617 24.2676 1.75781C26.6602 0 30.3223-2.05078 36.377-2.05078C42.5781-2.05078 46.9727 0 49.1699 1.51367C50.9277 2.68555 52.8809 3.90625 56.2988 3.90625C59.668 3.90625 61.6211 2.68555 63.3789 1.51367C65.625 0.0488281 70.0195-2.05078 76.1719-2.05078C82.2754-2.05078 85.9375 0 88.2812 1.75781C90.1855 3.07617 91.7969 3.90625 94.6777 3.90625C98.9258 3.90625 102.783 1.70898 102.783-4.24805L102.783-61.2305C99.3164-67.9199 88.9648-74.7559 76.1719-74.7559C67.041-74.7559 60.498-71.1426 56.2988-66.8945ZM23.584-56.4453C25.0488-58.8379 29.5898-62.0605 36.377-62.0605C43.1641-62.0605 48.1445-58.8379 49.3652-56.4453L49.3652-11.7188C45.6543-14.1113 41.0156-14.9902 36.377-14.9902C31.7383-14.9902 27.2949-14.1113 23.584-11.6211ZM88.9648-56.4453L88.9648-11.6211C85.3027-14.1113 80.8105-14.9902 76.1719-14.9902C71.5332-14.9902 66.8945-14.1113 63.1836-11.7188L63.1836-56.4453C64.4043-58.8379 69.4336-62.0605 76.1719-62.0605C82.959-62.0605 87.5488-58.8379 88.9648-56.4453Z"/>
  </g>
  <g id="Bold-S" transform="matrix(1 0 0 1 2284.85 696)">
   <path d="M55.127-66.0645C51.0742-70.3125 44.1406-73.8281 35.3027-73.8281C22.9004-73.8281 12.9883-67.2852 9.76562-60.791L9.76562-3.80859C9.76562 1.36719 13.1348 3.27148 16.7969 3.27148C19.3848 3.27148 20.8496 2.53906 22.5098 1.31836C25-0.537109 28.8574-2.68555 35.3027-2.68555C41.7969-2.68555 46.3867-0.537109 48.6328 1.02539C50.2441 2.14844 52.002 3.27148 55.127 3.27148C58.252 3.27148 60.0098 2.09961 61.6211 1.02539C63.916-0.488281 68.457-2.68555 74.9512-2.68555C81.3965-2.68555 85.2539-0.537109 87.7441 1.31836C89.4043 2.53906 90.8691 3.27148 93.457 3.27148C97.1191 3.27148 100.488 1.36719 100.488-3.80859L100.488-60.791C97.2656-67.2852 87.3047-73.8281 74.9512-73.8281C66.1133-73.8281 59.1797-70.3125 55.127-66.0645ZM21.4355-56.9336C22.7539-59.375 27.6855-63.0859 35.3027-63.0859C42.9199-63.0859 48.1445-59.375 49.2676-56.9336L49.2676-9.96094C45.459-12.5 40.4297-13.623 35.3027-13.623C30.1758-13.623 25.2441-12.5 21.4355-9.86328ZM88.7695-56.9336L88.7695-9.86328C85.0098-12.5 80.0781-13.623 74.9512-13.623C69.8242-13.623 64.7949-12.5 60.9375-9.96094L60.9375-56.9336C62.1094-59.375 67.334-63.0859 74.9512-63.0859C82.5684-63.0859 87.5-59.375 88.7695-56.9336Z"/>
  </g>
  <g id="Semibold-S" transform="matrix(1 0 0 1 1988.95 696)">
   <path d="M54.2969-65.4785C50.3906-69.7754 43.1641-73.1934 34.5215-73.1934C22.4121-73.1934 12.793-66.8457 9.76562-60.498L9.76562-3.51562C9.76562 1.12305 12.793 2.83203 16.0156 2.83203C18.4082 2.83203 19.7754 2.09961 21.2891 1.02539C23.877-0.927734 27.8809-3.125 34.5215-3.125C41.2598-3.125 45.9961-0.976562 48.2422 0.732422C49.707 1.80664 51.3672 2.83203 54.2969 2.83203C57.2266 2.83203 58.8867 1.70898 60.3516 0.732422C62.7441-0.878906 67.3828-3.125 74.1211-3.125C80.7617-3.125 84.8145-0.878906 87.3535 1.02539C88.8672 2.09961 90.1855 2.83203 92.5781 2.83203C95.8496 2.83203 98.877 1.12305 98.877-3.51562L98.877-60.498C95.8496-66.8457 86.1816-73.1934 74.1211-73.1934C65.4785-73.1934 58.252-69.7754 54.2969-65.4785ZM19.9707-57.2266C21.1914-59.7656 26.3184-63.7695 34.5215-63.7695C42.7734-63.7695 48.1445-59.7656 49.2188-57.2266L49.2188-8.74023C45.3125-11.3281 40.0391-12.6465 34.5215-12.6465C29.0527-12.6465 23.8281-11.3281 19.9707-8.59375ZM88.6719-57.2266L88.6719-8.59375C84.8145-11.3281 79.5898-12.6465 74.1211-12.6465C68.6035-12.6465 63.3301-11.3281 59.4238-8.74023L59.4238-57.2266C60.498-59.7656 65.8691-63.7695 74.1211-63.7695C82.3242-63.7695 87.4512-59.7656 88.6719-57.2266Z"/>
  </g>
  <g id="Medium-S" transform="matrix(1 0 0 1 1692.84 696)">
   <path d="M53.7109-65.0391C49.8535-69.3848 42.4316-72.7051 33.9844-72.7051C22.0703-72.7051 12.6953-66.5039 9.76562-60.3027L9.76562-3.27148C9.76562 0.927734 12.5 2.49023 15.4785 2.49023C17.6758 2.49023 18.9453 1.80664 20.3613 0.78125C23.0469-1.17188 27.0996-3.4668 33.9844-3.4668C40.8691-3.4668 45.7031-1.26953 47.998 0.488281C49.3652 1.51367 50.9277 2.49023 53.7109 2.49023C56.4941 2.49023 58.0078 1.41602 59.4238 0.488281C61.8652-1.12305 66.5527-3.4668 73.4375-3.4668C80.3223-3.4668 84.4238-1.17188 87.0117 0.78125C88.4766 1.80664 89.6973 2.49023 91.9434 2.49023C94.9219 2.49023 97.6562 0.927734 97.6562-3.27148L97.6562-60.3027C94.7266-66.5039 85.3516-72.7051 73.4375-72.7051C64.9902-72.7051 57.5684-69.3848 53.7109-65.0391ZM18.8477-57.4707C20.0195-60.0586 25.3418-64.2578 33.9844-64.2578C42.627-64.2578 48.1445-60.0098 49.1699-57.4707L49.1699-7.8125C45.166-10.498 39.6973-11.9141 33.9844-11.9141C28.2227-11.9141 22.7539-10.498 18.8477-7.66602ZM88.5742-57.4707L88.5742-7.66602C84.6191-10.498 79.1992-11.9141 73.4375-11.9141C67.6758-11.9141 62.207-10.498 58.252-7.8125L58.252-57.4707C59.2773-60.0098 64.7949-64.2578 73.4375-64.2578C82.0801-64.2578 87.4023-60.0586 88.5742-57.4707Z"/>
  </g>
  <g id="Regular-S" transform="matrix(1 0 0 1 1396.94 696)">
   <path d="M52.9297-64.4531C49.1699-68.8477 41.5039-72.0703 33.2031-72.0703C21.582-72.0703 12.5-66.0645 9.76562-60.0098L9.76562-2.97852C9.76562 0.683594 12.1582 2.05078 14.7461 2.05078C16.748 2.05078 17.8711 1.41602 19.1895 0.488281C21.9238-1.5625 26.123-3.95508 33.2031-3.95508C40.332-3.95508 45.3125-1.66016 47.6074 0.146484C48.877 1.17188 50.3418 2.05078 52.9297 2.05078C55.5176 2.05078 56.8848 1.02539 58.2031 0.146484C60.7422-1.51367 65.5273-3.95508 72.6074-3.95508C79.6875-3.95508 83.9844-1.51367 86.6211 0.488281C87.9395 1.41602 89.0625 2.05078 91.1133 2.05078C93.7012 2.05078 96.0449 0.683594 96.0449-2.97852L96.0449-60.0098C93.3105-66.0645 84.2285-72.0703 72.6074-72.0703C64.3555-72.0703 56.6406-68.8477 52.9297-64.4531ZM17.3828-57.8125C18.457-60.4492 23.9746-64.9414 33.2031-64.9414C42.4805-64.9414 48.1445-60.4004 49.1211-57.8125L49.1211-6.64062C45.0195-9.375 39.3066-10.9863 33.2031-10.9863C27.1484-10.9863 21.3867-9.375 17.3828-6.44531ZM88.4766-57.8125L88.4766-6.44531C84.4238-9.375 78.6621-10.9863 72.6074-10.9863C66.5039-10.9863 60.791-9.375 56.6895-6.64062L56.6895-57.8125C57.666-60.4004 63.3301-64.9414 72.6074-64.9414C81.8359-64.9414 87.3535-60.4492 88.4766-57.8125Z"/>
  </g>
  <g id="Light-S" transform="matrix(1 0 0 1 1101.42 696)">
   <path d="M51.709-64.0137C48.9746-67.627 41.1621-71.3867 32.1777-71.3867C20.8984-71.3867 11.6211-65.5762 9.76562-60.498L9.76562-2.63672C9.76562 0.0488281 11.5234 1.12305 13.4766 1.12305C15.0879 1.12305 15.9668 0.683594 16.9434-0.0976562C19.5801-2.39258 24.1699-5.17578 32.1777-5.17578C40.2832-5.17578 45.5078-2.39258 47.6562-0.292969C48.584 0.488281 49.707 1.12305 51.709 1.12305C53.7109 1.12305 54.7852 0.390625 55.7617-0.292969C58.0566-2.29492 63.1836-5.17578 71.2402-5.17578C79.248-5.17578 83.9844-2.44141 86.4746-0.0976562C87.4512 0.683594 88.3301 1.12305 89.9414 1.12305C91.8945 1.12305 93.6523 0.0488281 93.6523-2.63672L93.6523-60.498C91.7969-65.5762 82.5195-71.3867 71.2402-71.3867C62.2559-71.3867 54.4434-67.627 51.709-64.0137ZM15.5762-58.7891C16.3086-61.2305 22.7051-65.918 32.1777-65.918C41.6992-65.918 48.1445-61.2305 48.8281-58.7891L48.8281-5.71289C44.873-8.83789 38.8184-10.6445 32.1777-10.6445C25.5371-10.6445 19.4336-8.83789 15.5762-5.61523ZM87.8418-58.7891L87.8418-5.61523C83.9844-8.83789 77.8809-10.6445 71.2402-10.6445C64.5996-10.6445 58.5449-8.83789 54.6387-5.71289L54.6387-58.7891C55.2734-61.2305 61.7676-65.918 71.2402-65.918C80.7129-65.918 87.1094-61.2305 87.8418-58.7891Z"/>
  </g>
  <g id="Thin-S" transform="matrix(1 0 0 1 806.3 696)">
   <path d="M50.1465-63.4766C48.7305-66.0156 40.7227-70.5078 30.8105-70.5078C19.9219-70.5078 10.498-64.9414 9.76562-61.1816L9.76562-2.24609C9.76562-0.732422 10.6934-0.0488281 11.8652-0.0488281C12.8906-0.0488281 13.4766-0.341797 13.9648-0.830078C16.4551-3.51562 21.582-6.83594 30.8105-6.83594C40.1855-6.83594 45.752-3.41797 47.7051-0.927734C48.2422-0.390625 48.9258-0.0488281 50.1465-0.0488281C51.3672-0.0488281 52.002-0.439453 52.5391-0.927734C54.5898-3.32031 60.0586-6.83594 69.4336-6.83594C78.6621-6.83594 83.9355-3.61328 86.2793-0.830078C86.8164-0.341797 87.4023-0.0488281 88.3789-0.0488281C89.5508-0.0488281 90.4785-0.732422 90.4785-2.24609L90.4785-61.1816C89.7461-64.9414 80.3223-70.5078 69.4336-70.5078C59.5215-70.5078 51.5137-66.0156 50.1465-63.4766ZM13.2324-60.0586C13.5254-62.3047 21.0449-67.1875 30.8105-67.1875C40.625-67.1875 48.1445-62.3047 48.3887-60.0586L48.3887-4.54102C44.6777-8.1543 38.1348-10.1562 30.8105-10.1562C23.3887-10.1562 16.8945-8.10547 13.2324-4.49219ZM87.0605-60.0586L87.0605-4.49219C83.3496-8.10547 76.8555-10.1562 69.4336-10.1562C62.1094-10.1562 55.5664-8.1543 51.8555-4.54102L51.8555-60.0586C52.0996-62.3047 59.6191-67.1875 69.4336-67.1875C79.1992-67.1875 86.7676-62.3047 87.0605-60.0586Z"/>
  </g>
  <g id="Ultralight-S" transform="matrix(1 0 0 1 510.395 696)">
   <path d="M49.3164-63.1348C48.6328-65.1855 40.4785-70.0195 30.0781-70.0195C19.4336-70.0195 9.91211-64.6484 9.76562-61.5234L9.76562-2.00195C9.76562-1.17188 10.2539-0.634766 11.0352-0.634766C11.7188-0.634766 12.1582-0.878906 12.4512-1.2207C14.8438-4.10156 20.2637-7.71484 30.0781-7.71484C40.1367-7.71484 45.8496-3.95508 47.7539-1.26953C48.0469-0.878906 48.4863-0.634766 49.3164-0.634766C50.1465-0.634766 50.5859-0.878906 50.8789-1.26953C52.7832-3.85742 58.4473-7.71484 68.5059-7.71484C78.3203-7.71484 83.9355-4.24805 86.1816-1.2207C86.4746-0.878906 86.8652-0.634766 87.5977-0.634766C88.3789-0.634766 88.8672-1.17188 88.8672-2.00195L88.8672-61.5234C88.7207-64.6484 79.1504-70.0195 68.5059-70.0195C58.1543-70.0195 50-65.1855 49.3164-63.1348ZM12.0117-60.7422C12.0605-62.8418 20.166-67.8223 30.0781-67.8223C40.0879-67.8223 48.1445-62.8418 48.1934-60.7422L48.1934-3.95508C44.5801-7.8125 37.793-9.91211 30.0781-9.91211C22.2656-9.91211 15.5762-7.71484 12.0117-3.95508ZM86.6211-60.7422L86.6211-3.95508C83.0566-7.71484 76.3184-9.91211 68.5059-9.91211C60.8398-9.91211 54.0527-7.8125 50.4395-3.95508L50.4395-60.7422C50.4883-62.8418 58.5449-67.8223 68.5059-67.8223C78.4668-67.8223 86.5723-62.8418 86.6211-60.7422Z"/>
  </g>
 </g>
</svg>
