<?xml version="1.0" encoding="UTF-8"?>
<!--Generator: Apple Native CoreSVG 149-->
<!DOCTYPE svg
PUBLIC "-//W3C//DTD SVG 1.1//EN"
       "http://www.w3.org/Graphics/SVG/1.1/DTD/svg11.dtd">
<svg version="1.1" xmlns="http://www.w3.org/2000/svg" xmlns:xlink="http://www.w3.org/1999/xlink" width="3300" height="2200">
 <!--glyph: "uni100148.medium", point size: 100.000000, font version: "Version 16.0d12e3", template writer version: "8"-->
 <g id="Notes">
  <rect height="2200" id="artboard" style="fill:white;opacity:1" width="3300" x="0" y="0"/>
  <line id="" style="fill:none;stroke:black;opacity:1;stroke-width:0.5;" x1="263" x2="3036" y1="292" y2="292"/>
  <text style="stroke:none;fill:black;font-family:-apple-system,&quot;SF Pro Display&quot;,&quot;SF Pro Text&quot;,Helvetica,sans-serif;font-weight:bold;" transform="matrix(1 0 0 1 263 322)">Weight/Scale Variations</text>
  <text style="stroke:none;fill:black;font-family:-apple-system,&quot;SF Pro Display&quot;,&quot;SF Pro Text&quot;,Helvetica,sans-serif;text-anchor:middle;" transform="matrix(1 0 0 1 559.711 322)">Ultralight</text>
  <text style="stroke:none;fill:black;font-family:-apple-system,&quot;SF Pro Display&quot;,&quot;SF Pro Text&quot;,Helvetica,sans-serif;text-anchor:middle;" transform="matrix(1 0 0 1 856.422 322)">Thin</text>
  <text style="stroke:none;fill:black;font-family:-apple-system,&quot;SF Pro Display&quot;,&quot;SF Pro Text&quot;,Helvetica,sans-serif;text-anchor:middle;" transform="matrix(1 0 0 1 1153.13 322)">Light</text>
  <text style="stroke:none;fill:black;font-family:-apple-system,&quot;SF Pro Display&quot;,&quot;SF Pro Text&quot;,Helvetica,sans-serif;text-anchor:middle;" transform="matrix(1 0 0 1 1449.84 322)">Regular</text>
  <text style="stroke:none;fill:black;font-family:-apple-system,&quot;SF Pro Display&quot;,&quot;SF Pro Text&quot;,Helvetica,sans-serif;text-anchor:middle;" transform="matrix(1 0 0 1 1746.56 322)">Medium</text>
  <text style="stroke:none;fill:black;font-family:-apple-system,&quot;SF Pro Display&quot;,&quot;SF Pro Text&quot;,Helvetica,sans-serif;text-anchor:middle;" transform="matrix(1 0 0 1 2043.27 322)">Semibold</text>
  <text style="stroke:none;fill:black;font-family:-apple-system,&quot;SF Pro Display&quot;,&quot;SF Pro Text&quot;,Helvetica,sans-serif;text-anchor:middle;" transform="matrix(1 0 0 1 2339.98 322)">Bold</text>
  <text style="stroke:none;fill:black;font-family:-apple-system,&quot;SF Pro Display&quot;,&quot;SF Pro Text&quot;,Helvetica,sans-serif;text-anchor:middle;" transform="matrix(1 0 0 1 2636.69 322)">Heavy</text>
  <text style="stroke:none;fill:black;font-family:-apple-system,&quot;SF Pro Display&quot;,&quot;SF Pro Text&quot;,Helvetica,sans-serif;text-anchor:middle;" transform="matrix(1 0 0 1 2933.4 322)">Black</text>
  <line id="" style="fill:none;stroke:black;opacity:1;stroke-width:0.5;" x1="263" x2="3036" y1="1903" y2="1903"/>
  <g id="" transform="matrix(1 0 0 1 263 1933)">
   <path d="M9.24805 0.830078C13.5547 0.830078 17.1387-2.74414 17.1387-7.05078C17.1387-11.3574 13.5449-14.9316 9.23828-14.9316C4.94141-14.9316 1.36719-11.3574 1.36719-7.05078C1.36719-2.74414 4.95117 0.830078 9.24805 0.830078ZM9.24805-0.654297C5.70312-0.654297 2.87109-3.49609 2.87109-7.05078C2.87109-10.6055 5.69336-13.4473 9.23828-13.4473C12.793-13.4473 15.6348-10.6055 15.6445-7.05078C15.6543-3.49609 12.8027-0.654297 9.24805-0.654297ZM9.22852-3.62305C9.69727-3.62305 9.9707-3.93555 9.9707-4.45312L9.9707-6.31836L12.002-6.31836C12.5-6.31836 12.832-6.57227 12.832-7.04102C12.832-7.51953 12.5195-7.7832 12.002-7.7832L9.9707-7.7832L9.9707-9.81445C9.9707-10.332 9.69727-10.6543 9.22852-10.6543C8.75977-10.6543 8.50586-10.3125 8.50586-9.81445L8.50586-7.7832L6.49414-7.7832C5.97656-7.7832 5.64453-7.51953 5.64453-7.04102C5.64453-6.57227 5.99609-6.31836 6.49414-6.31836L8.50586-6.31836L8.50586-4.45312C8.50586-3.95508 8.75977-3.62305 9.22852-3.62305Z"/>
  </g>
  <g id="" transform="matrix(1 0 0 1 281.506 1933)">
   <path d="M11.709 2.91016C17.1582 2.91016 21.6699-1.61133 21.6699-7.05078C21.6699-12.5 17.1484-17.0117 11.6992-17.0117C6.25977-17.0117 1.74805-12.5 1.74805-7.05078C1.74805-1.61133 6.26953 2.91016 11.709 2.91016ZM11.709 1.25C7.09961 1.25 3.41797-2.44141 3.41797-7.05078C3.41797-11.6602 7.08984-15.3516 11.6992-15.3516C16.3086-15.3516 20-11.6602 20.0098-7.05078C20.0195-2.44141 16.3184 1.25 11.709 1.25ZM11.6797-2.66602C12.207-2.66602 12.5098-3.01758 12.5098-3.59375L12.5098-6.23047L15.3223-6.23047C15.8691-6.23047 16.25-6.51367 16.25-7.03125C16.25-7.55859 15.8887-7.86133 15.3223-7.86133L12.5098-7.86133L12.5098-10.6836C12.5098-11.25 12.207-11.6113 11.6797-11.6113C11.1621-11.6113 10.8789-11.2305 10.8789-10.6836L10.8789-7.86133L8.07617-7.86133C7.50977-7.86133 7.13867-7.55859 7.13867-7.03125C7.13867-6.51367 7.5293-6.23047 8.07617-6.23047L10.8789-6.23047L10.8789-3.59375C10.8789-3.03711 11.1621-2.66602 11.6797-2.66602Z"/>
  </g>
  <g id="" transform="matrix(1 0 0 1 304.924 1933)">
   <path d="M14.9707 5.66406C21.9336 5.66406 27.6953-0.0976562 27.6953-7.05078C27.6953-14.0137 21.9238-19.7754 14.9609-19.7754C8.00781-19.7754 2.25586-14.0137 2.25586-7.05078C2.25586-0.0976562 8.01758 5.66406 14.9707 5.66406ZM14.9707 3.84766C8.93555 3.84766 4.08203-1.01562 4.08203-7.05078C4.08203-13.0957 8.92578-17.9492 14.9609-17.9492C21.0059-17.9492 25.8594-13.0957 25.8691-7.05078C25.8789-1.01562 21.0156 3.84766 14.9707 3.84766ZM14.9414-1.38672C15.5176-1.38672 15.8594-1.77734 15.8594-2.38281L15.8594-6.13281L19.7754-6.13281C20.3711-6.13281 20.7812-6.46484 20.7812-7.02148C20.7812-7.59766 20.3906-7.93945 19.7754-7.93945L15.8594-7.93945L15.8594-11.8652C15.8594-12.4805 15.5176-12.8711 14.9414-12.8711C14.375-12.8711 14.0527-12.4609 14.0527-11.8652L14.0527-7.93945L10.1465-7.93945C9.53125-7.93945 9.13086-7.59766 9.13086-7.02148C9.13086-6.46484 9.55078-6.13281 10.1465-6.13281L14.0527-6.13281L14.0527-2.38281C14.0527-1.79688 14.375-1.38672 14.9414-1.38672Z"/>
  </g>
  <text style="stroke:none;fill:black;font-family:-apple-system,&quot;SF Pro Display&quot;,&quot;SF Pro Text&quot;,Helvetica,sans-serif;font-weight:bold;" transform="matrix(1 0 0 1 263 1953)">Design Variations</text>
  <text style="stroke:none;fill:black;font-family:-apple-system,&quot;SF Pro Display&quot;,&quot;SF Pro Text&quot;,Helvetica,sans-serif;" transform="matrix(1 0 0 1 263 1971)">Symbols are supported in up to nine weights and three scales.</text>
  <text style="stroke:none;fill:black;font-family:-apple-system,&quot;SF Pro Display&quot;,&quot;SF Pro Text&quot;,Helvetica,sans-serif;" transform="matrix(1 0 0 1 263 1989)">For optimal layout with text and other symbols, vertically align</text>
  <text style="stroke:none;fill:black;font-family:-apple-system,&quot;SF Pro Display&quot;,&quot;SF Pro Text&quot;,Helvetica,sans-serif;" transform="matrix(1 0 0 1 263 2007)">symbols with the adjacent text.</text>
  <line id="" style="fill:none;stroke:#00AEEF;stroke-width:0.5;opacity:1.0;" x1="776" x2="776" y1="1919" y2="1933"/>
  <g id="" transform="matrix(1 0 0 1 776 1933)">
   <path d="M3.31055 0.126953C3.82812 0.126953 4.08203-0.0683594 4.26758-0.605469L5.52734-4.0625L11.2891-4.0625L12.5488-0.605469C12.7344-0.0683594 12.9883 0.126953 13.4961 0.126953C14.0137 0.126953 14.3457-0.185547 14.3457-0.673828C14.3457-0.839844 14.3164-0.986328 14.2383-1.20117L9.6582-13.3887C9.43359-13.9941 9.0332-14.2871 8.4082-14.2871C7.80273-14.2871 7.39258-13.9941 7.17773-13.3984L2.59766-1.19141C2.51953-0.976562 2.49023-0.830078 2.49023-0.664062C2.49023-0.175781 2.80273 0.126953 3.31055 0.126953ZM6.00586-5.53711L8.37891-12.1094L8.42773-12.1094L10.8008-5.53711Z"/>
  </g>
  <line id="" style="fill:none;stroke:#00AEEF;stroke-width:0.5;opacity:1.0;" x1="792.836" x2="792.836" y1="1919" y2="1933"/>
  <text style="stroke:none;fill:black;font-family:-apple-system,&quot;SF Pro Display&quot;,&quot;SF Pro Text&quot;,Helvetica,sans-serif;font-weight:bold;" transform="matrix(1 0 0 1 776 1953)">Margins</text>
  <text style="stroke:none;fill:black;font-family:-apple-system,&quot;SF Pro Display&quot;,&quot;SF Pro Text&quot;,Helvetica,sans-serif;" transform="matrix(1 0 0 1 776 1971)">Leading and trailing margins on the left and right side of each symbol</text>
  <text style="stroke:none;fill:black;font-family:-apple-system,&quot;SF Pro Display&quot;,&quot;SF Pro Text&quot;,Helvetica,sans-serif;" transform="matrix(1 0 0 1 776 1989)">can be adjusted by modifying the x-location of the margin guidelines.</text>
  <text style="stroke:none;fill:black;font-family:-apple-system,&quot;SF Pro Display&quot;,&quot;SF Pro Text&quot;,Helvetica,sans-serif;" transform="matrix(1 0 0 1 776 2007)">Modifications are automatically applied proportionally to all</text>
  <text style="stroke:none;fill:black;font-family:-apple-system,&quot;SF Pro Display&quot;,&quot;SF Pro Text&quot;,Helvetica,sans-serif;" transform="matrix(1 0 0 1 776 2025)">scales and weights.</text>
  <g id="" transform="matrix(1 0 0 1 1289 1933)">
   <path d="M2.8418 1.86523L4.54102 3.57422C5.40039 4.44336 6.38672 4.38477 7.31445 3.35938L17.4902-7.85156C17.7539-7.76367 18.0273-7.7832 18.3398-7.8418L19.4043-8.03711L20.0684-7.36328L20.0293-6.80664C19.9902-6.30859 20.1172-5.92773 20.6055-5.44922L21.3672-4.70703C21.8457-4.22852 22.4609-4.19922 22.9297-4.66797L25.8398-7.58789C26.3086-8.05664 26.2891-8.65234 25.8105-9.13086L25.0391-9.89258C24.5605-10.3711 24.1895-10.5273 23.7109-10.4883L23.1348-10.4395L22.4902-11.0742L22.7344-12.1973C22.8613-12.7637 22.7051-13.2031 22.1191-13.7891L19.9219-15.9766C16.582-19.2969 12.1484-19.2188 9.25781-16.3281C8.83789-15.918 8.80859-15.3418 9.04297-14.9512C9.27734-14.5898 9.73633-14.3555 10.3809-14.5215C11.8457-14.8633 13.3691-14.9219 14.7949-13.9844L14.209-12.5293C14.0137-12.0508 13.9844-11.6504 14.1113-11.2891L3.04688-0.898438C2.06055 0.0195312 1.98242 0.996094 2.8418 1.86523ZM10.752-15.957C13.1836-17.7344 16.4746-17.4316 18.7012-15.2051L21.1328-12.793C21.3672-12.5586 21.4062-12.373 21.3379-12.0312L21.0156-10.5469L22.5195-9.0625L23.5059-9.12109C23.7598-9.13086 23.8379-9.11133 24.0332-8.91602L24.6094-8.33984L22.168-5.89844L21.5918-6.47461C21.3965-6.66992 21.3672-6.74805 21.377-7.01172L21.4453-7.98828L19.9512-9.47266L18.4277-9.21875C18.1055-9.15039 17.959-9.17969 17.7148-9.41406L15.7129-11.416C15.459-11.6504 15.4297-11.8164 15.5859-12.1875L16.4648-14.2773C14.9023-15.7324 12.8711-16.3574 10.8398-15.7617C10.6836-15.7227 10.625-15.8496 10.752-15.957ZM5.27344 2.30469L4.10156 1.14258C3.63281 0.683594 3.74023 0.341797 4.14062-0.0195312L14.9512-10.1953L16.416-8.71094L6.42578 2.27539C6.07422 2.67578 5.74219 2.77344 5.27344 2.30469Z"/>
  </g>
  <text style="stroke:none;fill:black;font-family:-apple-system,&quot;SF Pro Display&quot;,&quot;SF Pro Text&quot;,Helvetica,sans-serif;font-weight:bold;" transform="matrix(1 0 0 1 1289 1953)">Exporting</text>
  <text style="stroke:none;fill:black;font-family:-apple-system,&quot;SF Pro Display&quot;,&quot;SF Pro Text&quot;,Helvetica,sans-serif;" transform="matrix(1 0 0 1 1289 1971)">Symbols should be outlined when exporting to ensure the</text>
  <text style="stroke:none;fill:black;font-family:-apple-system,&quot;SF Pro Display&quot;,&quot;SF Pro Text&quot;,Helvetica,sans-serif;" transform="matrix(1 0 0 1 1289 1989)">design is preserved when submitting to Xcode.</text>
  <text id="template-version" style="stroke:none;fill:black;font-family:-apple-system,&quot;SF Pro Display&quot;,&quot;SF Pro Text&quot;,Helvetica,sans-serif;text-anchor:end;" transform="matrix(1 0 0 1 3036 1933)">Template v.2.0</text>
  <text style="stroke:none;fill:black;font-family:-apple-system,&quot;SF Pro Display&quot;,&quot;SF Pro Text&quot;,Helvetica,sans-serif;text-anchor:end;" transform="matrix(1 0 0 1 3036 1951)">Requires Xcode 12 or greater</text>
  <text style="stroke:none;fill:black;font-family:-apple-system,&quot;SF Pro Display&quot;,&quot;SF Pro Text&quot;,Helvetica,sans-serif;text-anchor:end;" transform="matrix(1 0 0 1 3036 1969)">Generated from arrow.clockwise</text>
  <text style="stroke:none;fill:black;font-family:-apple-system,&quot;SF Pro Display&quot;,&quot;SF Pro Text&quot;,Helvetica,sans-serif;text-anchor:end;" transform="matrix(1 0 0 1 3036 1987)">Typeset at 100 points</text>
  <text style="stroke:none;fill:black;font-family:-apple-system,&quot;SF Pro Display&quot;,&quot;SF Pro Text&quot;,Helvetica,sans-serif;" transform="matrix(1 0 0 1 263 726)">Small</text>
  <text style="stroke:none;fill:black;font-family:-apple-system,&quot;SF Pro Display&quot;,&quot;SF Pro Text&quot;,Helvetica,sans-serif;" transform="matrix(1 0 0 1 263 1156)">Medium</text>
  <text style="stroke:none;fill:black;font-family:-apple-system,&quot;SF Pro Display&quot;,&quot;SF Pro Text&quot;,Helvetica,sans-serif;" transform="matrix(1 0 0 1 263 1586)">Large</text>
 </g>
 <g id="Guides">
  <g id="H-reference" style="fill:#27AAE1;stroke:none;" transform="matrix(1 0 0 1 339 696)">
   <path d="M0.976562 0L3.66211 0L12.9883-24.4629L45.752-24.4629L55.127 0L57.7637 0L30.6152-70.459L28.125-70.459ZM29.3457-67.1387L29.4434-67.1387L44.873-26.709L13.8672-26.709Z"/>
  </g>
  <line id="Baseline-S" style="fill:none;stroke:#27AAE1;opacity:1;stroke-width:0.5;" x1="263" x2="3036" y1="696" y2="696"/>
  <line id="Capline-S" style="fill:none;stroke:#27AAE1;opacity:1;stroke-width:0.5;" x1="263" x2="3036" y1="625.541" y2="625.541"/>
  <g id="H-reference" style="fill:#27AAE1;stroke:none;" transform="matrix(1 0 0 1 339 1126)">
   <path d="M0.976562 0L3.66211 0L12.9883-24.4629L45.752-24.4629L55.127 0L57.7637 0L30.6152-70.459L28.125-70.459ZM29.3457-67.1387L29.4434-67.1387L44.873-26.709L13.8672-26.709Z"/>
  </g>
  <line id="Baseline-M" style="fill:none;stroke:#27AAE1;opacity:1;stroke-width:0.5;" x1="263" x2="3036" y1="1126" y2="1126"/>
  <line id="Capline-M" style="fill:none;stroke:#27AAE1;opacity:1;stroke-width:0.5;" x1="263" x2="3036" y1="1055.54" y2="1055.54"/>
  <g id="H-reference" style="fill:#27AAE1;stroke:none;" transform="matrix(1 0 0 1 339 1556)">
   <path d="M0.976562 0L3.66211 0L12.9883-24.4629L45.752-24.4629L55.127 0L57.7637 0L30.6152-70.459L28.125-70.459ZM29.3457-67.1387L29.4434-67.1387L44.873-26.709L13.8672-26.709Z"/>
  </g>
  <line id="Baseline-L" style="fill:none;stroke:#27AAE1;opacity:1;stroke-width:0.5;" x1="263" x2="3036" y1="1556" y2="1556"/>
  <line id="Capline-L" style="fill:none;stroke:#27AAE1;opacity:1;stroke-width:0.5;" x1="263" x2="3036" y1="1485.54" y2="1485.54"/>
  <line id="left-margin" style="fill:none;stroke:#00AEEF;stroke-width:0.5;opacity:1.0;" x1="1397.96" x2="1397.96" y1="1030.79" y2="1150.12"/>
  <line id="right-margin" style="fill:none;stroke:#00AEEF;stroke-width:0.5;opacity:1.0;" x1="1501.72" x2="1501.72" y1="1030.79" y2="1150.12"/>
 </g>
 <g id="Symbols">
  <g id="Black-L" transform="matrix(1 0 0 1 2863.67 1556)">
   <path d="M69.6289-42.7246C72.3145-42.7246 74.5605-43.6523 76.3184-45.4102L101.758-71.2402C103.809-73.291 104.834-75.6836 104.834-78.4668C104.834-81.1523 103.76-83.6914 101.758-85.6445L76.3184-111.572C74.5117-113.477 72.2656-114.404 69.6289-114.404C64.209-114.404 59.9121-109.961 59.9121-104.492C59.9121-101.709 60.9863-99.8047 62.6465-98.0957L72.0215-88.9648C70.9961-89.0137 69.9219-89.0625 68.8965-89.0625C36.7188-89.0625 11.2793-63.4277 11.2793-31.0547C11.2793 1.26953 37.4512 27.4902 69.7266 27.4902C102.002 27.4902 128.174 1.26953 128.174-31.0547C128.174-37.1582 123.926-41.3574 118.018-41.3574C112.207-41.3574 108.057-37.1582 108.057-31.0547C108.057-9.91211 90.918 7.22656 69.7266 7.22656C48.5352 7.22656 31.543-9.91211 31.543-31.0547C31.543-52.9297 47.8516-69.873 68.8965-69.873C70.6055-69.873 72.2168-69.8242 73.7305-69.7266L62.6465-58.8379C60.9863-57.1777 59.9121-55.2734 59.9121-52.5391C59.9121-47.0703 64.209-42.7246 69.6289-42.7246Z"/>
  </g>
  <g id="Heavy-L" transform="matrix(1 0 0 1 2567.72 1556)">
   <path d="M68.1641-43.8965C70.5078-43.8965 72.5098-44.7266 74.0234-46.2402L99.707-72.3145C101.514-74.1211 102.441-76.2207 102.441-78.6133C102.441-80.957 101.514-83.1543 99.707-84.9121L74.0234-111.084C72.4609-112.744 70.5078-113.574 68.1641-113.574C63.4766-113.574 59.7656-109.717 59.7656-104.932C59.7656-102.588 60.6934-100.83 62.1094-99.3652L73.6328-88.0371C71.875-88.2324 70.1172-88.3301 68.3594-88.3301C36.5234-88.3301 11.2793-62.9395 11.2793-31.0059C11.2793 0.927734 37.0605 26.7578 68.9453 26.7578C100.879 26.7578 126.66 0.927734 126.66-31.0059C126.66-36.2793 122.949-39.9414 117.822-39.9414C112.744-39.9414 109.229-36.2793 109.229-31.0059C109.229-8.74023 91.2598 9.27734 68.9453 9.27734C46.6797 9.27734 28.8086-8.74023 28.8086-31.0059C28.8086-53.8574 46.1426-71.6309 68.3594-71.6309C70.9961-71.6309 73.3887-71.5332 75.6348-71.2891L62.1582-57.959C60.6934-56.4941 59.7656-54.7852 59.7656-52.3926C59.7656-47.6562 63.4766-43.8965 68.1641-43.8965Z"/>
  </g>
  <g id="Bold-L" transform="matrix(1 0 0 1 2271.86 1556)">
   <path d="M66.5527-45.2148C68.5547-45.2148 70.2148-45.8984 71.4355-47.168L97.4121-73.4863C99.0234-75.0488 99.7559-76.8066 99.7559-78.8086C99.7559-80.7129 98.9746-82.6172 97.4121-84.082L71.4844-110.547C70.166-111.914 68.5547-112.646 66.5527-112.646C62.6465-112.646 59.5703-109.424 59.5703-105.469C59.5703-103.516 60.3027-102.002 61.5234-100.732L75.5371-86.9629C72.9004-87.3047 70.3125-87.5 67.7246-87.5C36.2793-87.5 11.2793-62.4512 11.2793-30.957C11.2793 0.585938 36.6211 25.9766 68.1152 25.9766C99.5605 25.9766 124.951 0.585938 124.951-30.957C124.951-35.3027 121.875-38.3301 117.578-38.3301C113.428-38.3301 110.547-35.3027 110.547-30.957C110.547-7.37305 91.6504 11.5234 68.1152 11.5234C44.5801 11.5234 25.7324-7.37305 25.7324-30.957C25.7324-54.834 44.2383-73.584 67.7246-73.584C71.3379-73.584 74.6582-73.3398 77.6367-72.9004L61.5723-56.9824C60.3027-55.6641 59.5703-54.1992 59.5703-52.2461C59.5703-48.291 62.6465-45.2148 66.5527-45.2148Z"/>
  </g>
  <g id="Semibold-L" transform="matrix(1 0 0 1 1975.76 1556)">
   <path d="M65.4297-46.0938C67.1875-46.0938 68.6035-46.6797 69.6777-47.8027L95.8496-74.2676C97.2656-75.6836 97.9004-77.1973 97.9004-78.9062C97.9004-80.5664 97.2168-82.2266 95.8496-83.5449L69.7266-110.156C68.6035-111.377 67.1875-111.963 65.4297-111.963C62.0605-111.963 59.4238-109.229 59.4238-105.811C59.4238-104.15 60.0586-102.783 61.1328-101.66L76.8555-86.1328C73.6816-86.6699 70.459-86.9141 67.2363-86.9141C36.084-86.9141 11.2793-62.1094 11.2793-30.9082C11.2793 0.341797 36.3281 25.4395 67.5293 25.4395C98.6816 25.4395 123.73 0.341797 123.73-30.9082C123.73-34.6191 121.143-37.207 117.432-37.207C113.867-37.207 111.426-34.6191 111.426-30.9082C111.426-6.49414 91.8945 13.0859 67.5293 13.0859C43.1152 13.0859 23.6328-6.49414 23.6328-30.9082C23.6328-55.5176 42.8711-74.9512 67.2363-74.9512C71.582-74.9512 75.4883-74.6094 79.0039-73.9746L61.1816-56.2988C60.0586-55.127 59.4238-53.8086 59.4238-52.1484C59.4238-48.7793 62.0605-46.0938 65.4297-46.0938Z"/>
  </g>
  <g id="Medium-L" transform="matrix(1 0 0 1 1679.49 1556)">
   <path d="M64.5996-46.7773C66.1621-46.7773 67.3828-47.3145 68.3594-48.291L94.6777-74.9023C95.9473-76.1719 96.4844-77.4902 96.4844-79.0039C96.4844-80.4688 95.8496-81.9336 94.6777-83.1055L68.3594-109.912C67.4316-110.938 66.1621-111.475 64.5508-111.475C61.6211-111.475 59.375-109.082 59.375-106.104C59.375-104.639 59.8633-103.418 60.8398-102.393L77.8809-85.498C74.3164-86.1328 70.6055-86.5234 66.9434-86.5234C35.9863-86.5234 11.2793-61.8164 11.2793-30.8594C11.2793 0.146484 36.084 25 67.0898 25C98.0469 25 122.852 0.146484 122.852-30.8594C122.852-34.082 120.557-36.377 117.334-36.377C114.209-36.377 112.109-34.082 112.109-30.8594C112.109-5.76172 92.0898 14.2578 67.0898 14.2578C42.041 14.2578 22.0215-5.76172 22.0215-30.8594C22.0215-56.0059 41.8945-75.9277 66.9434-75.9277C71.7285-75.9277 76.123-75.5859 79.9805-74.7559L60.8887-55.7617C59.8633-54.7363 59.375-53.5156 59.375-52.0996C59.375-49.1211 61.6211-46.7773 64.5996-46.7773Z"/>
  </g>
  <g id="Regular-L" transform="matrix(1 0 0 1 1383.36 1556)">
   <path d="M63.4766-47.7051C64.7949-47.7051 65.8203-48.0957 66.6016-48.9258L93.1152-75.6836C94.1895-76.8066 94.6289-77.8809 94.6289-79.1016C94.6289-80.3223 94.1406-81.543 93.1152-82.5195L66.6016-109.521C65.8691-110.4 64.8438-110.84 63.4766-110.84C61.0352-110.84 59.2285-108.887 59.2285-106.445C59.2285-105.322 59.6191-104.199 60.4492-103.32L79.248-84.6191C75.1953-85.4492 70.8496-85.9375 66.5039-85.9375C35.791-85.9375 11.2793-61.4746 11.2793-30.8594C11.2793-0.0976562 35.791 24.4629 66.5039 24.4629C97.168 24.4629 121.68-0.0976562 121.68-30.8594C121.68-33.4473 119.824-35.3027 117.188-35.3027C114.648-35.3027 113.037-33.4473 113.037-30.8594C113.037-4.88281 92.3828 15.8203 66.5039 15.8203C40.5762 15.8203 19.9219-4.88281 19.9219-30.8594C19.9219-56.6895 40.5762-77.2949 66.5039-77.2949C71.9238-77.2949 76.9531-76.8066 81.25-75.7812L60.498-55.0781C59.6191-54.1992 59.2285-53.125 59.2285-52.002C59.2285-49.5605 61.084-47.7051 63.4766-47.7051Z"/>
  </g>
  <g id="Light-L" transform="matrix(1 0 0 1 1087.31 1556)">
   <path d="M61.9141-47.7051C62.9395-47.7051 63.6719-47.998 64.2578-48.6328L91.5527-76.416C92.627-77.5391 93.0176-78.3691 93.0176-79.3457C93.0176-80.2734 92.5781-81.25 91.5527-82.2266L64.3066-110.107C63.7207-110.791 62.9883-111.133 61.8652-111.133C59.9609-111.133 58.6426-109.619 58.6426-107.812C58.6426-106.885 58.9355-106.055 59.5703-105.322L81.1523-83.6426C76.6113-84.7168 71.2402-85.3516 65.8203-85.3516C35.4004-85.3516 11.2793-61.3281 11.2793-31.0059C11.2793-0.537109 35.4004 23.6328 65.8203 23.6328C96.2402 23.6328 120.361-0.537109 120.361-31.0059C120.361-33.0078 118.945-34.4238 116.943-34.4238C114.99-34.4238 113.721-33.0078 113.721-31.0059C113.721-4.19922 92.5781 16.9922 65.8203 16.9922C39.0625 16.9922 17.9199-4.19922 17.9199-31.0059C17.9199-57.666 39.0625-78.7598 65.8203-78.7598C72.0703-78.7598 78.125-78.0762 82.9102-76.8555L59.6191-53.418C58.9355-52.6855 58.6426-51.9043 58.6426-50.9766C58.6426-49.1211 60.0098-47.7051 61.9141-47.7051Z"/>
  </g>
  <g id="Thin-L" transform="matrix(1 0 0 1 791.481 1556)">
   <path d="M59.8633-47.7051C60.4492-47.7051 60.8398-47.9004 61.2305-48.291L89.502-77.3438C90.5762-78.4668 90.8203-79.0039 90.8203-79.5898C90.8203-80.2246 90.4785-80.9082 89.502-81.8359L61.2793-110.889C60.9375-111.279 60.5957-111.475 59.7656-111.475C58.5449-111.475 57.8125-110.596 57.8125-109.57C57.8125-108.936 58.0078-108.447 58.4473-108.008L83.6426-82.3242C78.7598-83.5938 72.0215-84.6191 64.9902-84.6191C34.9121-84.6191 11.2793-61.1328 11.2793-31.25C11.2793-1.17188 34.9121 22.5098 64.9902 22.5098C95.0195 22.5098 118.604-1.17188 118.604-31.25C118.604-32.4219 117.822-33.252 116.65-33.252C115.479-33.252 114.697-32.4219 114.697-31.25C114.697-3.32031 92.8223 18.6035 64.9902 18.6035C37.0605 18.6035 15.1855-3.32031 15.1855-31.25C15.1855-58.9844 37.0605-80.6641 64.9902-80.6641C72.3145-80.6641 79.7363-79.7852 85.1074-78.2227L58.4473-51.2207C58.0078-50.7324 57.8125-50.2441 57.8125-49.6094C57.8125-48.584 58.5938-47.7051 59.8633-47.7051Z"/>
  </g>
  <g id="Ultralight-L" transform="matrix(1 0 0 1 495.209 1556)">
   <path d="M58.7891-47.7539C59.1797-47.7539 59.375-47.8516 59.668-48.1445L88.4766-77.7832C89.502-78.9062 89.6973-79.3457 89.6973-79.7363C89.6973-80.2246 89.4043-80.7129 88.4766-81.6406L59.7656-111.279C59.4727-111.572 59.3262-111.67 58.6914-111.67C57.8125-111.67 57.4219-111.084 57.4219-110.498C57.4219-110.01 57.5195-109.717 57.9102-109.375L84.9121-81.6406C80.1758-82.959 72.5586-84.2285 64.5508-84.2285C34.6191-84.2285 11.2793-61.0352 11.2793-31.3965C11.2793-1.46484 34.6191 21.9727 64.5508 21.9727C94.3848 21.9727 117.725-1.46484 117.725-31.3965C117.725-32.1777 117.236-32.666 116.455-32.666C115.723-32.666 115.186-32.1777 115.186-31.3965C115.186-2.88086 92.9688 19.3848 64.5508 19.3848C36.0352 19.3848 13.8184-2.88086 13.8184-31.3965C13.8184-59.6191 36.0352-81.6895 64.5508-81.6895C72.4121-81.6895 80.6641-80.6641 86.1816-78.9062L57.8613-50.0977C57.5195-49.7559 57.4219-49.4141 57.4219-48.9258C57.4219-48.3398 57.9102-47.7539 58.7891-47.7539Z"/>
  </g>
  <g id="Black-M" transform="matrix(1 0 0 1 2878.66 1126)">
   <path d="M55.0781-39.502C57.4219-39.502 59.4238-40.332 60.9863-41.8945L80.7617-62.1094C82.666-64.0137 83.5938-66.1133 83.5938-68.6523C83.5938-71.0449 82.666-73.3398 80.7617-75.1465L60.9863-95.3613C59.375-97.0703 57.4219-97.9004 55.0781-97.9004C50.2441-97.9004 46.2891-93.8965 46.2891-89.0137C46.2891-86.4746 47.3145-84.8145 48.7793-83.3984L54.6875-77.6367C54.3945-77.6367 54.1016-77.6367 53.8574-77.6367C28.5645-77.6367 8.74023-57.6172 8.74023-32.1777C8.74023-6.78711 29.3457 13.916 54.7363 13.916C80.127 13.916 100.732-6.78711 100.732-32.1777C100.732-37.6953 96.875-41.4062 91.6016-41.4062C86.3281-41.4062 82.5684-37.6953 82.5684-32.1777C82.5684-16.8457 70.1172-4.39453 54.7363-4.39453C39.3555-4.39453 27.0508-16.8457 27.0508-32.1777C27.0508-48.291 38.5742-60.498 53.8574-60.498C54.3945-60.498 54.9805-60.498 55.5176-60.498L48.7793-53.8574C47.3145-52.3926 46.2891-50.7812 46.2891-48.2422C46.2891-43.4082 50.2441-39.502 55.0781-39.502Z"/>
  </g>
  <g id="Heavy-M" transform="matrix(1 0 0 1 2582.64 1126)">
   <path d="M53.9062-40.7715C55.957-40.7715 57.7148-41.4551 59.082-42.8711L78.9551-63.0859C80.5664-64.6973 81.3965-66.6016 81.3965-68.75C81.3965-70.8496 80.5664-72.8516 78.9551-74.4141L59.082-94.6777C57.666-96.1426 55.957-96.875 53.9062-96.875C49.6582-96.875 46.2891-93.4082 46.2891-89.1602C46.2891-86.9629 47.168-85.498 48.4375-84.2285L55.9082-76.9043C55.0781-76.9531 54.1992-77.002 53.3691-77.002C28.418-77.002 8.74023-57.1777 8.74023-32.0312C8.74023-6.98242 29.0039 13.3301 54.0527 13.3301C79.1016 13.3301 99.3652-6.98242 99.3652-32.0312C99.3652-36.8652 96.0449-40.0879 91.4551-40.0879C86.9141-40.0879 83.6426-36.8652 83.6426-32.0312C83.6426-15.7227 70.4102-2.49023 54.0527-2.49023C37.6953-2.49023 24.5605-15.7227 24.5605-32.0312C24.5605-49.0234 37.1094-62.0117 53.3691-62.0117C54.7363-62.0117 56.0059-62.0117 57.1777-61.9141L48.4375-53.3203C47.168-52.002 46.2891-50.5371 46.2891-48.3887C46.2891-44.1406 49.6582-40.7715 53.9062-40.7715Z"/>
  </g>
  <g id="Bold-M" transform="matrix(1 0 0 1 2286.66 1126)">
   <path d="M52.5879-42.1875C54.3457-42.1875 55.8105-42.7734 56.9336-43.9453L76.9043-64.1602C78.2715-65.5273 78.9551-67.0898 78.9551-68.8965C78.9551-70.6055 78.2227-72.3145 76.9043-73.6328L56.9824-93.8965C55.8105-95.166 54.3457-95.752 52.5879-95.752C49.0723-95.752 46.2891-92.9199 46.2891-89.3066C46.2891-87.5488 46.9727-86.2305 48.0469-85.1074L57.373-75.9766C55.8594-76.1719 54.3457-76.2207 52.8809-76.2207C28.2715-76.2207 8.74023-56.6406 8.74023-31.9336C8.74023-7.27539 28.6621 12.6953 53.3203 12.6953C77.9785 12.6953 97.9004-7.27539 97.9004-31.9336C97.9004-35.8887 95.1172-38.623 91.2598-38.623C87.5-38.623 84.8633-35.8887 84.8633-31.9336C84.8633-14.4531 70.8008-0.390625 53.3203-0.390625C35.8398-0.390625 21.8262-14.4531 21.8262-31.9336C21.8262-49.8047 35.4492-63.7207 52.8809-63.7207C55.0781-63.7207 57.0801-63.623 58.9355-63.4277L48.0469-52.6855C46.9727-51.5625 46.2891-50.293 46.2891-48.5352C46.2891-44.9707 49.0723-42.1875 52.5879-42.1875Z"/>
  </g>
  <g id="Semibold-M" transform="matrix(1 0 0 1 1990.48 1126)">
   <path d="M51.6602-43.1641C53.2227-43.1641 54.541-43.6523 55.4688-44.6777L75.4883-64.8926C76.709-66.0645 77.2461-67.4316 77.2461-68.9941C77.2461-70.459 76.6602-71.9238 75.4883-73.0469L55.5176-93.4082C54.4922-94.4824 53.2227-95.0195 51.6602-95.0195C48.6328-95.0195 46.2891-92.5293 46.2891-89.4531C46.2891-87.9395 46.8262-86.7676 47.8027-85.7422L58.3984-75.3418C56.4453-75.5859 54.4434-75.7324 52.4902-75.7324C28.1738-75.7324 8.74023-56.2988 8.74023-31.8359C8.74023-7.42188 28.418 12.2559 52.7832 12.2559C77.1973 12.2559 96.8262-7.42188 96.8262-31.8359C96.8262-35.2539 94.4824-37.5977 91.1621-37.5977C87.9395-37.5977 85.6934-35.2539 85.6934-31.8359C85.6934-13.623 71.0449 1.07422 52.7832 1.07422C34.5703 1.07422 19.9219-13.623 19.9219-31.8359C19.9219-50.3418 34.3262-64.9414 52.4902-64.9414C55.2734-64.9414 57.8125-64.7461 60.0586-64.4043L47.8027-52.2949C46.8262-51.2695 46.2891-50.0977 46.2891-48.6328C46.2891-45.5566 48.6328-43.1641 51.6602-43.1641Z"/>
  </g>
  <g id="Medium-M" transform="matrix(1 0 0 1 1694.16 1126)">
   <path d="M50.9766-43.8965C52.3926-43.8965 53.5156-44.3359 54.3945-45.2637L74.4141-65.4297C75.4883-66.5039 75.9766-67.6758 75.9766-69.043C75.9766-70.3613 75.4395-71.6309 74.4141-72.6074L54.3945-92.9688C53.5156-93.9453 52.3926-94.4336 50.9766-94.4336C48.3398-94.4336 46.2402-92.2363 46.2402-89.5508C46.2402-88.2324 46.7285-87.1582 47.5586-86.2305L59.2285-74.8047C56.9336-75.1465 54.5898-75.3418 52.2461-75.3418C28.0762-75.3418 8.74023-56.0059 8.74023-31.7871C8.74023-7.56836 28.2227 11.9141 52.3926 11.9141C76.6113 11.9141 96.0449-7.56836 96.0449-31.7871C96.0449-34.7168 93.9941-36.8164 91.0645-36.8164C88.2324-36.8164 86.3281-34.7168 86.3281-31.7871C86.3281-12.9395 71.2402 2.19727 52.3926 2.19727C33.5938 2.19727 18.457-12.9395 18.457-31.7871C18.457-50.7812 33.4473-65.8203 52.2461-65.8203C55.4199-65.8203 58.3496-65.5762 60.9375-65.1367L47.6074-51.9531C46.7285-51.0742 46.2402-50 46.2402-48.6816C46.2402-45.9961 48.3398-43.8965 50.9766-43.8965Z"/>
  </g>
  <g id="Regular-M" transform="matrix(1 0 0 1 1397.96 1126)">
   <path d="M50.0977-44.873C51.3184-44.873 52.2461-45.2637 52.9297-45.9961L73.0469-66.2109C73.9258-67.041 74.2676-68.0176 74.2676-69.1406C74.2676-70.2148 73.8281-71.2891 73.0469-72.0703L52.9297-92.4805C52.2461-93.2617 51.2695-93.6523 50.0977-93.6523C47.9004-93.6523 46.2402-91.8945 46.2402-89.6484C46.2402-88.623 46.6309-87.6465 47.3145-86.8652L60.3516-74.0723C57.5684-74.5605 54.7363-74.8535 51.9043-74.8535C27.9785-74.8535 8.74023-55.6641 8.74023-31.7383C8.74023-7.76367 27.9785 11.4746 51.9043 11.4746C75.8301 11.4746 95.0195-7.76367 95.0195-31.7383C95.0195-34.082 93.3594-35.791 90.9668-35.791C88.6719-35.791 87.1582-34.082 87.1582-31.7383C87.1582-12.1094 71.4844 3.61328 51.9043 3.61328C32.3242 3.61328 16.6016-12.1094 16.6016-31.7383C16.6016-51.3184 32.3242-66.9922 51.9043-66.9922C55.6152-66.9922 59.0332-66.6992 61.9629-66.0645L47.3633-51.5625C46.6309-50.7812 46.2402-49.8047 46.2402-48.7793C46.2402-46.5332 47.9004-44.873 50.0977-44.873Z"/>
  </g>
  <g id="Light-M" transform="matrix(1 0 0 1 1101.84 1126)">
   <path d="M48.6816-44.873C49.6094-44.873 50.293-45.166 50.8301-45.752L71.6309-66.7969C72.5098-67.6758 72.8027-68.457 72.8027-69.2871C72.8027-70.166 72.4121-70.9961 71.6309-71.7773L50.8789-93.0176C50.3418-93.6035 49.6582-93.9453 48.6328-93.9453C46.9238-93.9453 45.7031-92.5781 45.7031-90.8691C45.7031-90.0391 45.9961-89.3066 46.582-88.6719L62.0605-73.1934C58.7402-73.9258 55.0293-74.3164 51.3184-74.3164C27.6367-74.3164 8.74023-55.5176 8.74023-31.8848C8.74023-8.1543 27.6367 10.7422 51.3184 10.7422C75 10.7422 93.8477-8.1543 93.8477-31.8848C93.8477-33.6914 92.5781-35.0098 90.7227-35.0098C88.9648-35.0098 87.8418-33.6914 87.8418-31.8848C87.8418-11.4746 71.6309 4.73633 51.3184 4.73633C30.957 4.73633 14.7949-11.4746 14.7949-31.8848C14.7949-52.1973 30.957-68.3105 51.3184-68.3105C55.8105-68.3105 60.0098-67.8711 63.5254-66.9922L46.582-50.0488C45.9961-49.4141 45.7031-48.6816 45.7031-47.9004C45.7031-46.1914 46.9727-44.873 48.6816-44.873Z"/>
  </g>
  <g id="Thin-M" transform="matrix(1 0 0 1 805.91 1126)">
   <path d="M46.8262-44.9219C47.3633-44.9219 47.7539-45.0684 48.0957-45.459L69.8242-67.627C70.6543-68.5059 70.8496-69.043 70.8496-69.5312C70.8496-70.1172 70.5566-70.7031 69.8242-71.4355L48.1445-93.7012C47.8027-94.043 47.4609-94.2383 46.7773-94.2383C45.6543-94.2383 44.9707-93.457 44.9707-92.4805C44.9707-91.8945 45.166-91.4551 45.5566-91.0156L64.2578-72.0215C60.5469-72.9492 55.6152-73.6816 50.5371-73.6816C27.1484-73.6816 8.74023-55.3711 8.74023-32.0801C8.74023-8.69141 27.1484 9.76562 50.5371 9.76562C73.877 9.76562 92.2852-8.69141 92.2852-32.0801C92.2852-33.2031 91.5527-33.9355 90.4785-33.9355C89.3555-33.9355 88.6719-33.2031 88.6719-32.0801C88.6719-10.6934 71.875 6.15234 50.5371 6.15234C29.1504 6.15234 12.3535-10.6934 12.3535-32.0801C12.3535-53.3691 29.1504-70.0195 50.5371-70.0195C56.0059-70.0195 61.4258-69.3848 65.4785-68.2617L45.5566-48.0957C45.166-47.6562 44.9707-47.2168 44.9707-46.6797C44.9707-45.7031 45.7031-44.9219 46.8262-44.9219Z"/>
  </g>
  <g id="Ultralight-M" transform="matrix(1 0 0 1 509.589 1126)">
   <path d="M45.8496-44.9219C46.2402-44.9219 46.4844-45.0195 46.7285-45.2637L68.8477-68.0664C69.6777-68.9453 69.873-69.3359 69.873-69.6777C69.873-70.1172 69.6289-70.5078 68.8477-71.2891L46.7773-94.043C46.5332-94.2871 46.3379-94.4336 45.8008-94.4336C45.0195-94.4336 44.6289-93.8965 44.6289-93.3105C44.6289-92.8711 44.7266-92.5781 45.0195-92.2852L65.4297-71.3867C61.6699-72.4121 56.0547-73.291 50.1465-73.291C26.9043-73.291 8.74023-55.2734 8.74023-32.2266C8.74023-8.98438 26.9043 9.27734 50.1465 9.27734C73.3398 9.27734 91.5039-8.98438 91.5039-32.2266C91.5039-32.9102 91.0156-33.3984 90.332-33.3984C89.5996-33.3984 89.1113-32.9102 89.1113-32.2266C89.1113-10.3027 72.0215 6.88477 50.1465 6.88477C28.2227 6.88477 11.1328-10.3027 11.1328-32.2266C11.1328-53.9551 28.2227-70.8984 50.1465-70.8984C56.1035-70.8984 62.207-70.166 66.4551-68.8965L45.0195-47.0703C44.7266-46.7773 44.6289-46.4844 44.6289-46.0449C44.6289-45.459 45.0684-44.9219 45.8496-44.9219Z"/>
  </g>
  <g id="Black-S" transform="matrix(1 0 0 1 2890.58 696)">
   <path d="M43.0664-38.6719C44.873-38.6719 46.4355-39.3066 47.6562-40.5273L63.1348-56.3477C64.5996-57.8125 65.332-59.4727 65.332-61.4258C65.332-63.2812 64.5996-65.0391 63.1348-66.4551L47.6562-82.2754C46.3867-83.5938 44.873-84.2285 43.0664-84.2285C39.3066-84.2285 36.2793-81.1523 36.2793-77.3438C36.2793-75.3906 37.0605-74.1211 38.1836-72.998L42.9199-68.4082C42.627-68.4082 42.3828-68.4082 42.1387-68.4082C22.3633-68.4082 6.83594-52.7344 6.83594-32.8125C6.83594-12.9395 22.9492 3.22266 42.8223 3.22266C62.6953 3.22266 78.8086-12.9395 78.8086-32.8125C78.8086-37.1094 75.8301-39.9902 71.7285-39.9902C67.6758-39.9902 64.7461-37.1094 64.7461-32.8125C64.7461-20.752 54.9316-10.9375 42.8223-10.9375C30.7129-10.9375 20.9961-20.752 20.9961-32.8125C20.9961-45.5078 30.127-55.127 42.1387-55.127C42.627-55.127 43.1152-55.127 43.6035-55.127L38.1836-49.8047C37.0605-48.6816 36.2793-47.4121 36.2793-45.459C36.2793-41.6992 39.3066-38.6719 43.0664-38.6719Z"/>
  </g>
  <g id="Heavy-S" transform="matrix(1 0 0 1 2594.31 696)">
   <path d="M42.334-39.6484C43.9453-39.6484 45.3613-40.1855 46.4355-41.3086L61.9141-57.0312C63.1836-58.3008 63.8184-59.7656 63.8184-61.4746C63.8184-63.1348 63.1836-64.6973 61.9141-65.918L46.4355-81.6895C45.3125-82.8613 43.9453-83.4473 42.334-83.4473C39.0137-83.4473 36.3281-80.7129 36.3281-77.3438C36.3281-75.6348 37.0117-74.4629 37.9883-73.4375L43.6523-67.9199C43.0664-67.9688 42.4316-67.9688 41.8457-67.9688C22.3145-67.9688 6.83594-52.3926 6.83594-32.7148C6.83594-13.0859 22.7539 2.88086 42.3828 2.88086C62.0117 2.88086 77.9297-13.0859 77.9297-32.7148C77.9297-36.4746 75.293-39.0625 71.6309-39.0625C68.0664-39.0625 65.5273-36.4746 65.5273-32.7148C65.5273-19.9707 55.1758-9.61914 42.3828-9.61914C29.5898-9.61914 19.3359-19.9707 19.3359-32.7148C19.3359-45.9473 29.1504-56.1523 41.8457-56.1523C42.8711-56.1523 43.7988-56.1523 44.6777-56.0547L38.0371-49.5605C37.0117-48.5352 36.3281-47.3633 36.3281-45.6543C36.3281-42.2852 39.0137-39.6484 42.334-39.6484Z"/>
  </g>
  <g id="Bold-S" transform="matrix(1 0 0 1 2298.11 696)">
   <path d="M41.5039-40.7227C42.9199-40.7227 44.1406-41.2109 45.0684-42.1387L60.498-57.7637C61.5723-58.8379 62.1094-60.1074 62.1094-61.5723C62.1094-62.9395 61.5723-64.3066 60.498-65.332L45.0684-81.0547C44.0918-82.0801 42.9199-82.5684 41.5039-82.5684C38.623-82.5684 36.377-80.2246 36.377-77.2949C36.377-75.8789 36.9629-74.8047 37.793-73.877L44.5801-67.334C43.5547-67.4316 42.5293-67.4805 41.5527-67.4805C22.2168-67.4805 6.83594-52.002 6.83594-32.6172C6.83594-13.2324 22.5098 2.49023 41.8945 2.49023C61.2305 2.49023 76.9043-13.2324 76.9043-32.6172C76.9043-35.791 74.6582-38.0371 71.5332-38.0371C68.5059-38.0371 66.3574-35.791 66.3574-32.6172C66.3574-19.0918 55.4199-8.10547 41.8945-8.10547C28.3203-8.10547 17.4316-19.0918 17.4316-32.6172C17.4316-46.4355 28.0273-57.3242 41.5527-57.3242C43.0664-57.3242 44.4824-57.2266 45.8008-57.0801L37.8418-49.2676C36.9629-48.3398 36.377-47.3145 36.377-45.8984C36.377-42.9688 38.6719-40.7227 41.5039-40.7227Z"/>
  </g>
  <g id="Semibold-S" transform="matrix(1 0 0 1 2001.74 696)">
   <path d="M40.918-41.4551C42.2363-41.4551 43.3105-41.8945 44.0918-42.7246L59.5703-58.3008C60.498-59.2285 60.9375-60.3027 60.9375-61.6211C60.9375-62.8418 60.4492-64.0625 59.5703-64.9414L44.0918-80.6152C43.3105-81.4941 42.1875-81.9336 40.918-81.9336C38.4277-81.9336 36.4258-79.8828 36.4258-77.2949C36.4258-76.0742 36.9141-75.0488 37.6465-74.2188L45.2148-66.8945C43.8965-67.041 42.5781-67.1387 41.3086-67.1387C22.168-67.1387 6.83594-51.7578 6.83594-32.5195C6.83594-13.3301 22.3633 2.19727 41.5527 2.19727C60.6934 2.19727 76.2207-13.3301 76.2207-32.5195C76.2207-35.3516 74.2676-37.3047 71.4844-37.3047C68.7988-37.3047 66.9434-35.3516 66.9434-32.5195C66.9434-18.457 55.5664-7.08008 41.5527-7.08008C27.4902-7.08008 16.1621-18.457 16.1621-32.5195C16.1621-46.7773 27.2949-58.1055 41.3086-58.1055C43.2129-58.1055 44.9707-58.0078 46.5332-57.7637L37.6953-49.0723C36.9141-48.2422 36.4258-47.2656 36.4258-46.0449C36.4258-43.457 38.4277-41.4551 40.918-41.4551Z"/>
  </g>
  <g id="Medium-S" transform="matrix(1 0 0 1 1705.3 696)">
   <path d="M40.4785-42.041C41.6992-42.041 42.6758-42.4316 43.4082-43.1641L58.8379-58.6914C59.668-59.4727 60.0586-60.498 60.0586-61.6699C60.0586-62.7441 59.6191-63.8672 58.8379-64.5996L43.4082-80.2734C42.6758-81.0547 41.6504-81.4941 40.4785-81.4941C38.2324-81.4941 36.4258-79.6387 36.4258-77.2949C36.4258-76.2207 36.8652-75.2441 37.5488-74.4629L45.752-66.5527C44.1895-66.748 42.6758-66.8457 41.1621-66.8457C22.1191-66.8457 6.83594-51.5625 6.83594-32.4707C6.83594-13.3789 22.2168 2.00195 41.2598 2.00195C60.3027 2.00195 75.6836-13.3789 75.6836-32.4707C75.6836-34.9609 73.9258-36.7676 71.4355-36.7676C68.9941-36.7676 67.3828-34.9609 67.3828-32.4707C67.3828-18.0176 55.7129-6.29883 41.2598-6.29883C26.8066-6.29883 15.1367-18.0176 15.1367-32.4707C15.1367-47.0703 26.709-58.6914 41.1621-58.6914C43.3594-58.6914 45.3125-58.5449 47.1191-58.252L37.5977-48.9258C36.8652-48.1445 36.4258-47.2168 36.4258-46.1426C36.4258-43.7988 38.2324-42.041 40.4785-42.041Z"/>
  </g>
  <g id="Regular-S" transform="matrix(1 0 0 1 1408.93 696)">
   <path d="M39.9414-42.7734C41.0156-42.7734 41.8457-43.1152 42.4316-43.75L57.9102-59.1797C58.5938-59.8633 58.8867-60.6934 58.8867-61.7188C58.8867-62.6465 58.5449-63.5742 57.9102-64.209L42.4316-79.834C41.8457-80.5176 40.9668-80.9082 39.8926-80.9082C37.9883-80.9082 36.4746-79.2969 36.4746-77.2949C36.4746-76.3672 36.8164-75.4883 37.4512-74.8047L46.4355-66.0645C44.5801-66.3574 42.7246-66.5039 40.918-66.5039C22.0703-66.5039 6.83594-51.3184 6.83594-32.4219C6.83594-13.4766 22.0703 1.75781 40.918 1.75781C59.7656 1.75781 75-13.4766 75-32.4219C75-34.5215 73.5352-36.0352 71.3379-36.0352C69.2871-36.0352 67.9688-34.5215 67.9688-32.4219C67.9688-17.3828 55.9082-5.32227 40.918-5.32227C25.9766-5.32227 13.8672-17.3828 13.8672-32.4219C13.8672-47.4121 25.9766-59.4727 40.918-59.4727C43.5059-59.4727 45.752-59.2773 47.8027-58.8867L37.5-48.7305C36.8164-48.0469 36.4746-47.168 36.4746-46.2891C36.4746-44.2871 37.9883-42.7734 39.9414-42.7734Z"/>
  </g>
  <g id="Light-S" transform="matrix(1 0 0 1 1112.73 696)">
   <path d="M38.6719-42.7734C39.502-42.7734 40.1367-43.0664 40.625-43.5547L56.6406-59.7168C57.3242-60.4004 57.6172-61.084 57.6172-61.8652C57.6172-62.5977 57.2754-63.3789 56.6406-63.9648L40.625-80.2734C40.1367-80.8105 39.502-81.1035 38.6719-81.1035C37.1582-81.1035 35.9863-79.8828 35.9863-78.3691C35.9863-77.6367 36.2793-76.9531 36.7676-76.3672L47.9492-65.332C45.5566-65.7715 42.9688-66.0645 40.4297-66.0645C21.7773-66.0645 6.83594-51.1719 6.83594-32.5684C6.83594-13.8672 21.7773 1.07422 40.4297 1.07422C59.0332 1.07422 73.9746-13.8672 73.9746-32.5684C73.9746-34.1797 72.8027-35.3516 71.1426-35.3516C69.5801-35.3516 68.5547-34.1797 68.5547-32.5684C68.5547-16.8457 56.0547-4.3457 40.4297-4.3457C24.7559-4.3457 12.2559-16.8457 12.2559-32.5684C12.2559-48.1934 24.7559-60.6445 40.4297-60.6445C43.6523-60.6445 46.6309-60.3516 49.1699-59.7656L36.7676-47.4121C36.2793-46.875 35.9863-46.1914 35.9863-45.5078C35.9863-43.9453 37.1582-42.7734 38.6719-42.7734Z"/>
  </g>
  <g id="Thin-S" transform="matrix(1 0 0 1 816.701 696)">
   <path d="M37.0117-42.8223C37.5488-42.8223 37.8906-42.9688 38.1836-43.3105L55.0293-60.4492C55.6641-61.1328 55.8594-61.5723 55.8594-62.0605C55.8594-62.5977 55.6152-63.0859 55.0293-63.6719L38.2324-80.9082C37.9395-81.25 37.5977-81.3965 37.0117-81.3965C36.0352-81.3965 35.3516-80.6641 35.3516-79.7852C35.3516-79.2969 35.5469-78.8574 35.8887-78.5156L49.9512-64.2578C47.0215-64.9902 43.457-65.4785 39.7461-65.4785C21.3379-65.4785 6.83594-51.0254 6.83594-32.7148C6.83594-14.3555 21.3379 0.195312 39.7461 0.195312C58.1055 0.195312 72.6074-14.3555 72.6074-32.7148C72.6074-33.7402 71.9238-34.4238 70.8984-34.4238C69.9219-34.4238 69.2871-33.7402 69.2871-32.7148C69.2871-16.1621 56.25-3.07617 39.7461-3.07617C23.1934-3.07617 10.1562-16.1621 10.1562-32.7148C10.1562-49.2188 23.1934-62.1582 39.7461-62.1582C43.7988-62.1582 47.8516-61.7188 50.9277-60.8887L35.8887-45.7031C35.5469-45.3125 35.3516-44.9219 35.3516-44.4336C35.3516-43.5547 36.0352-42.8223 37.0117-42.8223Z"/>
  </g>
  <g id="Ultralight-S" transform="matrix(1 0 0 1 520.356 696)">
   <path d="M36.1816-42.8223C36.5234-42.8223 36.7188-42.9199 36.9629-43.1641L54.1992-60.8398C54.834-61.5234 54.9805-61.8652 54.9805-62.1582C54.9805-62.5488 54.7852-62.9395 54.1992-63.5254L37.0117-81.25C36.7676-81.4453 36.6211-81.543 36.1328-81.543C35.4492-81.543 35.0586-81.0547 35.0586-80.5176C35.0586-80.127 35.1562-79.834 35.4004-79.5898L50.9277-63.7207C47.998-64.502 43.7988-65.1367 39.4043-65.1367C21.1426-65.1367 6.83594-50.9277 6.83594-32.8613C6.83594-14.5996 21.1426-0.244141 39.4043-0.244141C57.5684-0.244141 71.875-14.5996 71.875-32.8613C71.875-33.4961 71.4355-33.9355 70.8008-33.9355C70.1172-33.9355 69.6777-33.4961 69.6777-32.8613C69.6777-15.8203 56.3477-2.44141 39.4043-2.44141C22.3633-2.44141 9.0332-15.8203 9.0332-32.8613C9.0332-49.7559 22.3633-62.9395 39.4043-62.9395C43.8965-62.9395 48.5352-62.4023 51.8066-61.4258L35.4004-44.7754C35.1562-44.5312 35.0586-44.2383 35.0586-43.8965C35.0586-43.3105 35.498-42.8223 36.1816-42.8223Z"/>
  </g>
 </g>
</svg>
